<?xml version="1.0" encoding="UTF-8"?>
<svg width="48" height="48"  xmlns="http://www.w3.org/2000/svg" xmlns:xlink="http://www.w3.org/1999/xlink" version="1.1">
<g id="bulb-group-icon" transform="translate(0,-952)">
  <g id="icon-bulb-group">
   <path class="li-body" d="m46.763 965.28c-16.171 0.64166-43.074 6.1897-45.707 3.4961 0.2943 3.1328 4.2528 8.3507 6.2695 10.283 1.0477 1.0039 0.12182 4.94 0.78516 7.2363 0.66329 2.2964 4.5215 2.9531 4.5215 2.9531s3.4582-0.4345 4.334-2.4902c0.45692 0.52463 0.89448 1.0016 1.2617 1.3535 1.1409 1.0932 0.13311 5.3802 0.85547 7.8809 0.72232 2.5008 4.9238 3.2168 4.9238 3.2168s4.2015-0.7161 4.9238-3.2168c0.72236-2.5007-0.28546-6.7876 0.85547-7.8809 0.80582-0.77231 1.8953-2.0261 2.9688-3.4727l-0.14453 0.20118c1.2125 0.6118 2.4727 0.82617 2.4727 0.82617s3.9081-0.66404 4.5801-2.9902c0.67197-2.3263-0.26451-6.3131 0.79688-7.3301 1.9695-1.8872 5.7649-6.8676 6.3027-10.066z" fill="#bcbcbc"></path>
   <g class="bulb-back" transform="matrix(.70333 0 0 .70333 18.367 282.77)">
    <g fill="none" stroke="#000">
     <path class="li-line" transform="matrix(1.4218,0,0,1.4218,-26.648,952.23)" d="m36.51 25.622c1.1608-0.09216 2.3336-0.34248 3.5591-0.75097"></path>
     <path class="li-line" transform="matrix(1.4218,0,0,1.4218,-26.648,952.23)" d="m35.666 28.123c1.4385-0.01908 2.8801-0.28246 4.4031-0.79013"></path>
     <path class="li-line" transform="matrix(1.4218,0,0,1.4218,-26.648,952.23)" d="m34.424 30.54c1.8584 0.15638 3.6844-0.09228 5.6455-0.74597"></path>
    </g>
    <path class="li-state" transform="matrix(1.4218,0,0,1.4218,-26.115,951.52)" d="m47.126 12.969c-4.8184 2.891-9.3551 3.6014-14.491 2.5149-2.118-2.027-5.1433-3.254-8.4787-3.254-0.23856 0-0.47553 0.0063-0.67198 0.34154 0.01425 0.1377 0.0015-0.21199 0.0015-0.21199 0-6.2343 5.2378-11.253 11.744-11.253s11.744 5.019 11.744 11.253c0 0.22501-0.02212 0.46309-0.06397 0.71196" fill="#82bffd"></path>
    <g fill="none">
     <path class="li-line" d="m20.094 973.33c7.4939 1.5215 13.944 0.51155 20.795-3.5989" stroke="#000" stroke-width="1.4218"></path>
     <path class="li-state-line" transform="matrix(1.4218,0,0,1.4218,-26.115,951.52)" d="m23.522 12.894c-0.02452-0.18517-0.0373-0.3638-0.0373-0.53486 0-6.2343 5.2378-11.253 11.744-11.253s11.744 5.019 11.744 11.253c0 0.22501-0.02212 0.46309-0.06397 0.71196" stroke="#0b5e85" stroke-width="2"></path>
     <path class="li-line li-frame" transform="matrix(1.4218,0,0,1.4218,-26.115,951.52)" d="m46.909 13.071c-0.53788 3.1988-4.3347 8.1787-6.3042 10.066-1.0614 1.017-0.12405 5.0042-0.79602 7.3305-0.67198 2.3262-4.5798 2.9916-4.5798 2.9916s-1.2608-0.21467-2.4733-0.82645" stroke="#000" stroke-width="2"></path>
    </g>
   </g>
   <g class="bulb-middle" transform="matrix(.69429 0 0 .69429 -4.2416 295.45)">
    <g>
     <path class="li-line" transform="matrix(1.4403,0,0,1.4403,6.8294,945.64)" d="m1.0627 16.91c4.0774 2.0387 7.8222 3.0797 11.397 3.1229" fill="none"></path>
     <g fill="none">
      <path class="li-line" transform="matrix(1.4403,0,0,1.4403,6.8294,945.64)" d="m7.6585 29.06c2.0112 0.6704 3.8785 0.90924 5.7872 0.71654"></path>
      <path class="li-line" transform="matrix(1.4403,0,0,1.4403,6.8294,945.64)" d="m7.6585 31.49c2.5157 0.83855 4.8062 1.0019 7.2342 0.49008"></path>
      <path class="li-line" transform="matrix(1.4403,0,0,1.4403,6.8294,945.64)" d="m7.6585 33.92c3.106 1.0353 5.8689 1.0414 8.9709 0.01819"></path>
     </g>
     <path class="li-state" d="m8.3601 969.75c5.8728 2.9364 11.267 4.4357 15.963 4.4244 2.1021-6.3542 8.3396-10.842 15.861-10.893-2.1364-6.0444-8.3376-10.531-15.673-10.531-9.2505 0-16.698 7.136-16.698 16 0 0.16639 0.00851 0.33781 0.025044 0.5138z" fill="#83fd82" stroke-width="1.4403"></path>
     <path class="li-line li-frame" transform="matrix(1.4403,0,0,1.4403,6.1093,945.64)" d="m17.21 34.309c-0.68852 2.2717-4.4337 2.7351-4.4337 2.7351s-3.8576-0.6568-4.5209-2.9532c-0.66334-2.2964 0.26193-6.2323-0.78579-7.2362-2.0168-1.9325-5.9746-7.1502-6.2689-10.283" fill="none" stroke-width="2"></path>
    </g>
    <path class="li-state-line" transform="matrix(1.4403,0,0,1.4403,6.1093,945.64)" d="m1.2011 16.572c-0.011481-0.12219-0.017388-0.2412-0.017388-0.35673 0-6.1542 5.1705-11.109 11.593-11.109 5.0927 0 9.3982 3.1152 10.963 7.4735" fill-opacity="0" stroke="#049302" stroke-width="2"></path>
   </g>
   <g class="bulb-front" transform="matrix(.75605 0 0 .75605 5.8918 243.71)">
    <g fill="none" stroke="#000" stroke-width="1.3227">
     <path class="li-line" d="m17.5 994.5c4.5 1.5 8.5 1.5 13 0"></path>
     <path class="li-line" d="m17.5 991c4.5 1.5 8.5 1.5 13 0"></path>
     <path class="li-line" d="m17.5 987.5c4.5 1.5 8.5 1.5 13 0"></path>
    </g>
    <path class="li-state" transform="matrix(1.3227,0,0,1.3227,-7.7929,936.83)" d="m24.152 12.223c-6.9938 0-12.625 5.3941-12.625 12.096 0 0.15249 0.01104 0.31157 0.0293 0.47461h-0.05664c9.0726 4.5363 17.94 4.5363 25.5 0h-0.25586c0.01802-0.1619 0.03125-0.32313 0.03125-0.47461 0-6.7016-5.6292-12.096-12.623-12.096z" fill="#fd8282"></path>
    <g fill="none">
     <path class="li-line" d="m7.4177 969.42c12 6 23.728 6 33.728 0" stroke="#000" stroke-width="1.3227"></path>
     <path class="li-state-line" transform="matrix(1.3227,0,0,1.3227,-7.7929,936.83)" d="m11.556 24.798c-0.0187-0.16517-0.02839-0.32525-0.02839-0.47961 0-6.7016 5.6304-12.097 12.624-12.097s12.624 5.3952 12.624 12.097c0 0.18454-0.01384 0.37727-0.04038 0.57708" stroke="#b01a1a" stroke-width="2"></path>
     <path class="li-line li-frame" transform="matrix(1.3227,0,0,1.3227,-7.7929,936.83)" d="m36.735 24.896c-0.45538 3.4282-4.6489 8.9425-6.8051 11.009-1.1409 1.0933-0.13335 5.3793-0.85569 7.8799s-4.923 3.2159-4.923 3.2159-4.2007-0.71522-4.923-3.2159c-0.72234-2.5006 0.28522-6.7867-0.85569-7.8799-2.1767-2.0858-6.4299-7.6858-6.8171-11.106" stroke="#000" stroke-width="2"></path>
    </g>
   </g>
  </g>
 </g>
</svg>
