<?xml version="1.0" encoding="UTF-8"?>
<!-- Created with EazyDraw for Mac ( http://www.eazydraw.com/ ) -->

<svg
    version="1.1"
    xmlns:dc="http://purl.org/dc/elements/1.1/"
    xmlns:cc="http://creativecommons.org/ns#"
    xmlns:rdf="http://www.w3.org/1999/02/22-rdf-syntax-ns#"
    xmlns:svg="http://www.w3.org/2000/svg"
    xmlns:xlink="http://www.w3.org/1999/xlink"
    xmlns="http://www.w3.org/2000/svg"
    width="437.171315605"
    height="437.33488324"
    viewBox="0, 0, 437.171315605, 437.33488324"
    preserveAspectRatio="none"
    id="svg2">
   <defs
       id="defs_31FD947D"/>
   <metadata
       id="metadata7">
      <rdf:RDF>
         <cc:Work
             rdf:about="">
            <dc:format>image/svg+xml</dc:format>
            <dc:type rdf:resource="http://purl.org/dc/dcmitype/StillImage"/>
            <dc:title></dc:title>
         </cc:Work>
      </rdf:RDF>
   </metadata>
   <g
       id="layer_Paper"
       style="fill:#000000;fill-opacity:1;stroke:#000000;stroke-opacity:1;fill-rule:nonzero;stroke-linecap:square;stroke-linejoin:miter;stroke-width:1;stroke-miterlimit:10">
      <g
          id="9C658D5D">
         <path
             style="stroke-linecap:butt;stroke-width:2;stroke-miterlimit:4"
             id="2D658D5D"
             d="M218.585657803,436.78488324 C98.3634458859,436.78488324 0.55,338.971437354 0.55,218.749225437 C0.55,98.527013521 98.3634458859,0.55 218.585657803,0.55 C338.807869719,0.55 436.621315605,98.3634458856 436.621315605,218.585657803
C436.621315605,338.807869719 338.807869719,436.78488324 218.585657803,436.78488324 z M218.585657803,7.092705410273 C101.961933862,7.092705410273 7.092705410541,101.961933861 7.092705410541,218.585657803
C7.092705410541,335.209381743 101.961933862,430.078610194 218.585657803,430.078610194 C335.209381743,430.078610194 430.078610195,335.209381743 430.078610195,218.585657803 C430.078610195,101.961933861 335.209381743,7.092705410273 218.585657803,7.092705410273
z"/>
      </g>
      <g
          id="52B0816D">
         <path
             style="stroke-linecap:butt;stroke-width:4;stroke-miterlimit:4"
             id="32B0816D"
             d="M222.572069021,398.222156996 C198.128007872,398.222156996 178.240186691,378.334335815 178.240186691,353.890274665 C178.240186691,329.446213516 198.128007872,309.525135109 222.572069021,309.525135109 C247.016130171,309.525135109 266.903951352,329.41295629 266.903951352,353.857017439
C266.903951352,378.301078589 247.016130171,398.222156996 222.572069021,398.222156996 z M222.572069021,310.855424151 C198.859666845,310.855424151 179.570475733,330.144615263 179.570475733,353.857017439 C179.570475733,377.569419616 198.859666845,396.858610727 222.572069021,396.858610727
C246.284471198,396.858610727 265.573662309,377.569419616 265.573662309,353.857017439 C265.573662309,330.144615263 246.284471198,310.855424151 222.572069021,310.855424151 z"/>
      </g>
   </g>
</svg>
