<?xml version="1.0" encoding="UTF-8" standalone="no"?>
<svg
   xmlns:dc="http://purl.org/dc/elements/1.1/"
   xmlns:cc="http://creativecommons.org/ns#"
   xmlns:rdf="http://www.w3.org/1999/02/22-rdf-syntax-ns#"
   xmlns:svg="http://www.w3.org/2000/svg"
   xmlns="http://www.w3.org/2000/svg"
   version="1.1"
   id="Layer_1"
   x="0px"
   y="0px"
   viewBox="0 0 764.5 718.2"
   style="enable-background:new 0 0 764.5 718.2;"
   xml:space="preserve"><metadata
   id="metadata11"><rdf:RDF><cc:Work
       rdf:about=""><dc:format>image/svg+xml</dc:format><dc:type
         rdf:resource="http://purl.org/dc/dcmitype/StillImage" /><dc:title></dc:title></cc:Work></rdf:RDF></metadata><defs
   id="defs9" />
<style
   type="text/css"
   id="style2">
	.st0{fill-rule:evenodd;clip-rule:evenodd;}
</style>

<path
   id="path856"
   d="m 420.58097,127.70736 h -6.69347 l -86.17847,55.22115 -5.02011,3.34674 -9.20353,0.83669 -61.07794,-25.10053 -5.0201,-2.51005 -13.38695,2.51005 -153.949885,96.21868 c 0,0 -8.741263,6.27283 -12.550269,10.04021 -5.636427,5.57482 -10.345892,12.03348 -15.060312,18.40705 -4.783924,6.46752 -9.794406,12.88261 -13.386947,20.08042 -4.884484,9.78627 -8.444471,20.29371 -10.876894,30.95731 -2.246611,9.84902 -3.457325,20.01925 -3.34674,30.12064 0.09238,8.44038 0.29299,17.23139 3.34674,25.10052 2.826961,7.28473 13.386946,19.24374 13.386946,19.24374 l 10.040208,5.85678 453.482823,196.6208 c 0,0 10.89548,6.18957 16.94285,7.32101 5.41813,1.01374 11.20111,0.80248 16.52451,-0.62749 5.18096,-1.39175 9.67229,-4.69033 14.22364,-7.53017 45.05602,-28.11299 128.84938,-93.70871 128.84938,-93.70871 0,0 9.69406,-8.68705 15.94778,-16.43783 3.59333,-4.45357 6.4097,-6.90309 10.82613,-12.84608 5.62895,-7.57465 11.58836,-15.03095 15.89696,-23.42716 6.64688,-12.95282 11.76307,-26.81708 15.06032,-40.99752 2.41346,-10.37966 3.1548,-21.13918 3.34673,-31.794 0.14601,-8.10584 -0.0485,-16.32119 -1.67334,-24.26384 -1.3612,-6.65372 -3.00812,-13.5391 -6.69346,-19.24374 -3.96096,-6.13122 -9.46548,-11.60838 -15.89702,-15.06031 -3.27852,-1.75966 -10.87689,-2.51005 -10.87689,-2.51005 L 319.34218,187.11194"
   style="fill:none;stroke:#000000;stroke-width:5;stroke-linecap:butt;stroke-linejoin:miter;stroke-miterlimit:4;stroke-dasharray:none;stroke-opacity:1" /><path
   id="path858"
   d="m 572.85752,281.65724 38.48744,-27.61057 4.18343,-7.53015 -36.8141,-54.38448 -7.53017,-7.53015 -150.60315,-56.89453 h -6.69347 v 0"
   style="fill:none;stroke:#000000;stroke-width:5;stroke-linecap:butt;stroke-linejoin:miter;stroke-miterlimit:4;stroke-dasharray:none;stroke-opacity:1" /><path
   id="path860"
   d="M 503.4127,257.3934 341.09597,365.32566 c 0,0 -14.86872,14.29986 -20.9171,22.59048 -7.36016,10.08868 -13.69268,21.06659 -18.40705,32.63068 -4.9034,12.02774 -7.8369,24.85019 -10.04022,37.65078 -1.64859,9.57784 -3.01797,19.36716 -2.33894,29.0621 0.70594,10.0791 2.38581,20.40572 6.61952,29.57972 1.80201,3.90473 7.75202,10.31287 7.75202,10.31287"
   style="fill:none;stroke:#000000;stroke-width:5;stroke-linecap:butt;stroke-linejoin:miter;stroke-miterlimit:4;stroke-dasharray:none;stroke-opacity:1" /><path
   id="path862"
   d="m 707.56366,333.53167 -164.8268,112.11567 c 0,0 -16.8231,17.50748 -23.42716,27.61059 -9.26971,14.18111 -17.96445,29.29408 -22.30336,45.67101 -3.75136,14.15925 -3.57373,29.22704 -2.79717,43.85424 0.52506,9.88979 1.00366,19.29575 5.02011,29.28389 3.86257,9.60546 5.26714,13.73696 9.72645,19.4529 2.99576,3.83998 11.08607,9.5173 11.08607,9.5173"
   style="fill:none;stroke:#000000;stroke-width:5;stroke-linecap:butt;stroke-linejoin:miter;stroke-miterlimit:4;stroke-dasharray:none;stroke-opacity:1" /><path
   id="path864"
   d="m 585.40775,479.11471 69.44478,-51.03774 0.8367,44.34427 -69.44479,54.38442 z"
   style="fill:none;stroke:#000000;stroke-width:5;stroke-linecap:butt;stroke-linejoin:miter;stroke-miterlimit:4;stroke-dasharray:none;stroke-opacity:1" /><path
   id="path866"
   d="m 625.56859,450.66745 0.83669,17.57037 -40.57918,30.74814"
   style="fill:none;stroke:#000000;stroke-width:5;stroke-linecap:butt;stroke-linejoin:miter;stroke-miterlimit:4;stroke-dasharray:none;stroke-opacity:1" /><path
   id="path868"
   d="m 626.40528,468.23782 29.28395,4.18342"
   style="fill:none;stroke:#000000;stroke-width:5;stroke-linecap:butt;stroke-linejoin:miter;stroke-miterlimit:4;stroke-dasharray:none;stroke-opacity:1" /><path
   id="path870"
   d="m 623.35369,196.66308 c 0,0 3.2608,-2.33475 32.33554,-22.93809 3.48087,-2.46668 2.39351,-7.51076 1.32677,-11.07121 -0.8319,-2.77665 -2.76176,-5.6536 -5.61168,-6.64271 -3.32935,-1.1555 -5.02608,-2.08578 -6.98926,-0.73518 -32.13442,22.013 -17.98877,11.85107 -32.04063,21.88879"
   style="fill:none;stroke:#000000;stroke-width:5;stroke-linecap:butt;stroke-linejoin:miter;stroke-miterlimit:4;stroke-dasharray:none;stroke-opacity:1" /><path
   style="fill:none;stroke:#000000;stroke-width:5;stroke-linecap:butt;stroke-linejoin:miter;stroke-miterlimit:4;stroke-dasharray:none;stroke-opacity:1"
   d="m 595.96482,217.36647 c 0,0 1.25399,-1.01475 25.63244,-18.13001 8.08772,-8.35112 -5.41719,-25.30911 -11.93132,-21.52628 -25.492,17.79348 -12.62886,8.29699 -27.59205,19.44561"
   id="path874" /><path
   style="fill:none;stroke:#000000;stroke-width:5;stroke-linecap:butt;stroke-linejoin:miter;stroke-miterlimit:4;stroke-dasharray:none;stroke-opacity:1"
   d="m 508.2826,151.10795 c 0,0 3.26079,-2.33474 32.33554,-22.93809 3.48087,-2.46668 2.39352,-7.51076 1.32678,-11.0712 -0.83191,-2.77665 -2.76176,-5.65362 -5.61168,-6.64273 -3.32935,-1.15549 -5.02609,-2.08576 -6.98927,-0.73517 -32.13443,22.013 -17.98877,11.85107 -32.04064,21.88879"
   id="path878" /><path
   id="path880"
   d="m 500.66039,157.79688 c 0,0 1.98609,-1.64226 5.86578,-4.11555 8.08771,-8.35113 -5.41719,-25.30911 -11.93132,-21.52628 -25.49201,17.79349 -6.5629,4.11356 -21.52609,15.26219"
   style="fill:none;stroke:#000000;stroke-width:5;stroke-linecap:butt;stroke-linejoin:miter;stroke-miterlimit:4;stroke-dasharray:none;stroke-opacity:1" /><path
   d="m 563.20513,518.61362 a 1.6091638,2.4516034 0 0 1 -1.58868,-2.48048 1.6091638,2.4516034 0 0 1 1.62686,-2.42236 1.6091638,2.4516034 0 0 1 1.59125,2.47659 1.6091638,2.4516034 0 0 1 -1.6243,2.42631"
   id="path882"
   style="opacity:1;fill:#000000;fill-opacity:1;stroke:#000000;stroke-width:5;stroke-linecap:round;stroke-linejoin:round;stroke-miterlimit:4;stroke-dasharray:none;stroke-dashoffset:0;stroke-opacity:1;paint-order:markers stroke fill" /><path
   id="path888"
   d="m 697.24951,377.52647 c 0,0 6.50014,0.01 9.35892,1.14641 3.24548,1.29073 5.81614,3.69888 8.02196,6.1142 1.96641,2.15334 3.40118,4.67971 4.45655,7.26062 1.30135,3.18258 1.85529,6.57824 2.22833,9.93558 0.63401,5.7062 0.35159,11.47206 0,17.1962 -0.2262,3.68272 -0.6718,7.36135 -1.35552,11.0023 -0.58677,3.12444 -2.35211,9.27742 -2.35211,9.27742 -0.72646,2.52663 -2.14691,4.87309 -3.42302,7.23419 -1.48069,2.7398 -3.05734,5.45267 -4.90226,8.0249 -2.00837,2.80009 -6.68494,8.02486 -6.68494,8.02486"
   style="fill:none;stroke:#000000;stroke-width:5;stroke-linecap:butt;stroke-linejoin:miter;stroke-miterlimit:4;stroke-dasharray:none;stroke-opacity:1" /><path
   style="fill:none;stroke:#000000;stroke-width:5;stroke-linecap:butt;stroke-linejoin:miter;stroke-miterlimit:4;stroke-dasharray:none;stroke-opacity:1"
   d="m 694.82568,393.98777 c 0,0 4.70839,0.007 6.77901,0.84226 2.35098,0.9483 4.21296,2.71755 5.81073,4.49208 1.42435,1.58204 2.46356,3.43816 3.22798,5.33433 0.94286,2.33822 1.34387,4.83299 1.61415,7.29961 0.45925,4.19233 0.22843,8.4277 0,12.63394 -0.12677,2.33457 -0.33469,4.67282 -0.75957,6.97844 -0.52908,2.87177 -1.22846,5.73052 -2.22164,8.49999 -0.58347,1.62693 -1.36644,3.19346 -2.18386,4.73588 -1.06942,2.01807 -2.21456,4.00606 -3.55086,5.89586 -1.45478,2.05723 -4.84224,5.89585 -4.84224,5.89585"
   id="path890" /><path
   id="path892"
   d="m 690.64921,408.40189 c 0,0 3.49526,0.004 5.03256,0.4832 1.74512,0.54401 3.12739,1.55901 4.31338,2.57703 1.05744,0.90759 1.82905,1.97243 2.3963,3.06024 0.69994,1.3414 0.99781,2.77261 1.19838,4.18768 0.34088,2.40508 0.16756,4.83424 0,7.24793 -0.0929,1.33445 -0.27318,2.66802 -0.55584,3.9919 -0.33805,1.58315 -0.64093,3.18311 -1.3612,4.71512 -0.47046,1.00075 -1.23231,1.93896 -1.91732,2.88967 -0.8241,1.14355 -1.64396,2.29821 -2.63603,3.38236 -1.08,1.18022 -3.59466,3.38236 -3.59466,3.38236"
   style="fill:none;stroke:#000000;stroke-width:5;stroke-linecap:butt;stroke-linejoin:miter;stroke-miterlimit:4;stroke-dasharray:none;stroke-opacity:1" /></svg>