<?xml version="1.0" encoding="UTF-8" ?>
<!DOCTYPE svg PUBLIC "-//W3C//DTD SVG 1.1//EN" "http://www.w3.org/Graphics/SVG/1.1/DTD/svg11.dtd">
<svg width="960pt" height="943pt" viewBox="0 0 960 943" version="1.1" xmlns="http://www.w3.org/2000/svg">
<g id="#fefefeff">
</g>
<g id="#070707ff">
<path fill="#070707" opacity="1.00" d=" M 149.46 2.58 C 155.97 2.21 162.48 2.00 169.00 1.97 C 367.33 2.04 565.66 1.99 764.00 1.99 C 788.01 2.12 812.56 0.70 836.03 6.91 C 883.71 18.79 924.25 56.62 937.90 104.02 C 941.95 117.62 944.22 131.77 944.02 145.98 C 944.01 360.99 943.93 575.99 944.06 791.00 C 946.11 836.59 924.08 882.30 887.61 909.60 C 862.91 929.06 831.38 939.26 800.02 939.02 C 581.67 938.97 363.32 939.02 144.98 939.00 C 93.26 937.42 43.88 904.89 21.96 858.02 C 9.65 834.42 7.08 807.23 7.02 781.01 C 6.96 574.34 7.04 367.67 6.98 160.99 C 7.18 140.24 8.09 118.99 15.43 99.34 C 31.27 52.19 73.54 14.90 122.45 5.52 C 131.36 3.79 140.42 3.12 149.46 2.58 M 144.45 17.49 C 102.47 19.02 62.61 43.18 40.97 79.01 C 28.32 99.63 21.96 123.85 21.99 147.99 C 21.99 361.33 22.04 574.67 21.97 788.01 C 21.72 812.08 26.28 836.66 38.18 857.80 C 60.84 899.56 108.29 927.13 156.00 924.07 C 372.67 923.85 589.35 924.16 806.02 923.92 C 856.08 923.41 902.90 889.12 920.61 842.68 C 928.71 823.20 929.99 801.85 930.00 781.00 C 930.02 576.00 929.97 371.00 930.03 166.00 C 929.70 143.33 929.46 119.84 920.39 98.64 C 906.00 61.58 873.45 32.19 835.04 21.90 C 813.65 15.50 791.02 17.16 769.00 16.99 C 567.33 16.98 365.66 17.06 164.00 16.95 C 157.47 16.95 150.96 17.13 144.45 17.49 Z" />
<path fill="#070707" opacity="1.00" d=" M 143.45 41.58 C 147.09 41.43 154.35 41.14 157.99 40.99 C 362.99 41.00 567.99 41.02 773.00 40.98 C 791.66 41.24 810.87 39.46 828.98 45.05 C 865.24 54.68 894.92 85.29 903.02 121.98 C 906.91 138.34 905.88 155.32 906.03 172.00 C 905.92 380.34 906.09 588.68 905.95 797.02 C 905.68 835.71 882.26 873.61 847.01 890.01 C 831.08 898.33 812.81 901.06 795.02 901.02 C 580.00 900.97 364.99 901.02 149.98 900.99 C 133.06 901.10 116.40 896.16 101.41 888.51 C 78.08 876.19 59.89 854.60 51.48 829.63 C 44.34 809.53 46.12 787.92 45.99 767.00 C 45.99 560.33 46.05 353.66 45.95 146.99 C 45.03 108.19 68.20 70.14 102.98 52.98 C 115.40 46.17 129.40 42.74 143.45 41.58 M 143.45 48.55 C 117.03 50.30 91.70 63.55 75.19 84.20 C 60.11 102.07 52.62 125.75 52.95 148.99 C 53.05 353.99 52.99 558.99 52.99 764.00 C 53.25 782.03 51.73 800.39 55.81 818.13 C 62.18 846.69 82.48 871.69 108.98 884.03 C 124.09 891.59 141.24 893.99 157.99 894.00 C 357.99 894.01 558.00 893.99 758.00 894.00 C 777.11 893.93 796.32 894.66 815.33 892.31 C 846.96 888.23 875.34 866.65 888.94 837.98 C 896.59 822.91 899.01 805.75 899.00 789.01 C 899.00 579.00 899.02 368.99 898.98 158.99 C 898.94 137.87 896.88 115.79 885.62 97.36 C 872.46 74.48 849.75 56.99 823.95 50.99 C 809.02 46.76 793.30 48.23 778.00 47.97 C 571.33 48.04 364.66 47.99 157.99 47.99 C 154.35 48.13 147.08 48.41 143.45 48.55 Z" />
<path fill="#070707" opacity="1.00" d=" M 465.46 136.56 C 538.00 131.20 611.97 152.65 670.93 195.07 C 724.40 233.02 765.97 287.64 787.37 349.68 C 809.69 413.75 811.51 485.20 790.89 549.96 C 768.97 621.24 720.92 684.00 658.07 724.08 C 597.13 763.66 522.29 780.63 450.18 772.70 C 379.39 764.70 311.54 732.28 261.20 681.80 C 226.12 647.48 199.69 604.62 183.62 558.32 C 169.40 517.43 164.78 473.61 167.37 430.52 C 170.44 391.98 180.47 353.96 197.08 319.03 C 237.23 233.10 317.61 166.92 410.00 145.01 C 428.18 140.51 446.78 137.83 465.46 136.56 M 464.46 140.55 C 422.98 143.25 382.07 154.18 344.98 172.98 C 272.35 209.19 214.79 274.46 188.10 351.12 C 162.03 424.48 165.04 507.67 195.86 579.12 C 227.62 654.15 289.94 715.74 365.30 746.69 C 417.87 769.01 476.65 775.68 533.04 767.11 C 606.79 756.49 676.05 718.03 724.41 661.40 C 764.97 615.29 790.79 556.79 799.04 496.04 C 802.87 465.43 801.98 434.30 797.19 403.85 C 784.46 323.97 739.12 249.93 673.88 202.13 C 614.51 157.35 538.68 134.80 464.46 140.55 Z" />
<path fill="#070707" opacity="1.00" d=" M 466.46 160.55 C 532.87 155.63 600.55 174.76 655.01 212.95 C 716.60 255.31 761.15 321.97 775.57 395.41 C 782.00 428.47 783.60 462.61 779.01 496.03 C 775.16 523.61 767.32 550.58 756.09 576.06 C 725.25 644.83 667.41 701.30 597.29 729.27 C 539.10 752.50 473.39 757.26 412.71 741.26 C 340.69 723.18 277.60 675.81 237.17 613.86 C 207.61 564.74 190.25 507.59 191.90 450.00 C 191.23 430.51 193.44 411.00 198.03 392.06 C 202.32 374.42 207.10 356.82 213.99 339.99 C 220.68 324.55 228.41 309.55 237.17 295.19 C 255.96 267.31 278.53 241.78 305.31 221.33 C 351.26 185.41 408.29 164.15 466.46 160.55 M 320.17 221.15 C 289.06 242.65 263.28 271.21 242.82 302.87 C 239.65 306.86 240.24 312.19 239.98 316.96 C 239.90 355.30 240.14 393.63 239.95 431.97 C 226.67 431.91 213.39 432.07 200.10 432.04 C 197.78 448.59 199.17 465.36 200.18 481.97 C 213.34 481.89 226.50 481.99 239.66 482.33 C 240.86 522.42 239.02 562.58 240.49 602.65 C 249.38 619.84 261.89 634.89 274.62 649.37 C 324.57 704.59 397.08 738.00 471.31 741.76 C 509.86 742.90 548.90 737.77 585.14 724.22 C 610.30 714.71 634.40 702.12 655.92 685.90 C 682.49 667.14 704.30 642.46 723.04 616.05 C 726.43 610.05 732.23 604.41 731.89 597.03 C 732.28 558.70 731.78 520.35 732.03 482.01 C 745.03 482.07 758.02 481.91 771.03 481.97 C 772.44 465.35 772.59 448.63 771.02 432.03 C 758.02 432.06 745.02 431.89 732.03 432.00 C 731.75 392.34 732.35 352.67 731.84 313.02 C 732.68 308.23 729.21 304.67 727.18 300.85 C 686.19 236.44 618.48 189.57 543.59 174.44 C 466.98 158.69 383.72 175.13 320.17 221.15 M 200.97 422.98 C 210.97 423.05 220.97 423.05 230.97 422.99 C 230.92 389.86 231.31 356.73 230.71 323.61 C 215.17 354.68 204.79 388.42 200.97 422.98 M 740.18 323.70 C 739.78 356.79 740.05 389.88 740.04 422.96 C 750.35 423.06 760.67 423.07 771.01 422.96 C 766.47 388.45 756.78 354.40 740.18 323.70 M 201.36 491.35 C 205.72 524.03 214.99 556.27 230.82 585.30 C 231.22 553.87 230.95 522.44 230.97 491.02 C 221.10 490.90 211.22 490.89 201.36 491.35 M 741.03 491.01 C 741.06 522.46 740.72 553.92 741.25 585.37 C 756.22 555.94 766.97 523.97 770.25 491.04 C 760.51 490.95 750.76 490.91 741.03 491.01 Z" />
<path fill="#070707" opacity="1.00" d=" M 335.43 413.57 C 353.00 412.43 370.68 423.66 376.63 440.33 C 382.11 454.25 379.41 471.18 369.21 482.23 C 357.28 496.88 334.50 501.50 318.09 491.85 C 301.08 483.53 292.27 462.47 297.39 444.39 C 301.71 427.37 317.87 414.26 335.43 413.57 Z" />
<path fill="#070707" opacity="1.00" d=" M 632.36 413.45 C 652.83 412.26 672.41 428.37 675.46 448.59 C 678.56 465.27 669.58 482.78 655.10 491.14 C 639.45 501.05 617.18 498.04 604.65 484.36 C 592.08 472.43 588.55 452.11 596.66 436.71 C 603.62 423.64 617.23 413.77 632.36 413.45 Z" />
</g>
</svg>
