<?xml version="1.0" encoding="iso-8859-1"?>
<!-- Generator: Adobe Illustrator 19.0.0, SVG Export Plug-In . SVG Version: 6.00 Build 0)  -->
<svg version="1.1" id="Layer_1" xmlns="http://www.w3.org/2000/svg" xmlns:xlink="http://www.w3.org/1999/xlink" x="0px" y="0px"
	 viewBox="0 0 512 512" style="enable-background:new 0 0 512 512;" xml:space="preserve">
<g>
	<g>
		<path d="M255.999,0c-83.54,0-151.505,67.965-151.505,151.506c0,38.053,14.167,74.436,39.892,102.447
			c21.392,23.294,33.173,53.526,33.173,85.127v16.624c0,23.197,18.872,42.069,42.069,42.069h72.747
			c23.195,0,42.067-18.872,42.067-42.069v-16.624c0-31.601,11.782-61.833,33.175-85.127c25.724-28.01,39.891-64.393,39.891-102.447
			C407.504,67.965,339.539,0,255.999,0z M342.922,231.278c-27.089,29.497-42.007,67.782-42.007,107.803v16.624
			c0,4.711-3.833,8.544-8.543,8.544h-72.747c-4.711,0-8.544-3.833-8.544-8.544v-16.624c0-40.021-14.918-78.307-42.006-107.803
			c-20.029-21.809-31.058-50.139-31.058-79.771c0.001-65.056,52.927-117.982,117.982-117.982S373.98,86.45,373.98,151.506
			C373.98,181.14,362.95,209.469,342.922,231.278z"/>
	</g>
</g>
<g>
	<g>
		<path d="M287.988,412.963H224.01c-18.515,0-33.524,15.009-33.524,33.524c0,36.124,29.389,65.513,65.513,65.513
			c36.125,0,65.513-29.389,65.513-65.513C321.512,427.971,306.503,412.963,287.988,412.963z M255.999,478.476
			c-17.667,0-31.989-14.322-31.989-31.989h63.978C287.988,464.153,273.666,478.476,255.999,478.476z"/>
	</g>
</g>
<g>
</g>
<g>
</g>
<g>
</g>
<g>
</g>
<g>
</g>
<g>
</g>
<g>
</g>
<g>
</g>
<g>
</g>
<g>
</g>
<g>
</g>
<g>
</g>
<g>
</g>
<g>
</g>
<g>
</g>
</svg>
