<?xml version="1.0" encoding="UTF-8"?>
<svg width="442px" height="442px" viewBox="0 0 442 442" xmlns="http://www.w3.org/2000/svg" xmlns:xlink="http://www.w3.org/1999/xlink" version="1.1">
 <!-- Generated by Pixelmator Pro 1.3 -->
 <path id="path" d="M220.8 442 C161.8 442 106.4 419 64.7 377.3 23 335.6 0 280.2 0 221.2 0 162.2 23 106.8 64.7 65.1 106.4 23.4 161.8 0.4 220.8 0.4 279.8 0.4 335.2 23.4 376.9 65.1 418.6 106.8 441.6 162.2 441.6 221.2 441.6 280.2 418.6 335.6 376.9 377.3 335.2 419 279.8 442 220.8 442 Z M220.8 8.4 C103.5 8.4 8 103.9 8 221.2 8 338.5 103.5 434 220.8 434 338.1 434 433.6 338.5 433.6 221.2 433.6 103.9 338.1 8.4 220.8 8.4 Z" fill="#000000" fill-opacity="1" stroke="none"/>
</svg>
