<?xml version="1.0" encoding="utf-8"?>
<!-- Generator: Adobe Illustrator 21.0.0, SVG Export Plug-In . SVG Version: 6.00 Build 0)  -->
<svg version="1.1" id="Layer_1" xmlns="http://www.w3.org/2000/svg" xmlns:xlink="http://www.w3.org/1999/xlink" x="0px" y="0px"
	 viewBox="0 0 764.5 718.2" style="enable-background:new 0 0 764.5 718.2;" xml:space="preserve">
<style type="text/css">
	.st0{fill-rule:evenodd;clip-rule:evenodd;}
</style>
<path class="st0" d="M718.5,251.9c-1-16.4-11.5-42.9-26.9-67.5c-7.6-12.3-18.4-27.2-32.3-41.5c-4.3-4.5-8.7-8.9-13.4-13
	c-7.8-6.5-16.1-12.5-25-17.8c-15.6-9.3-32.8-17.8-51.3-25.2c-18.3-7.3-38-13.6-58.7-18.7c-20.3-5-41.6-8.9-63.8-11.5
	c-21.5-2.5-43.8-3.9-66.6-3.9c-22.8,0-45,1.3-66.5,3.9c-22,2.6-43.3,6.5-63.4,11.4c-20.6,5.1-40.1,11.3-58.2,18.6
	c-18.3,7.3-35.4,15.7-50.8,25c-13,7.8-24.9,17.2-35.4,27.3c-11.5,11.1-21.5,23.1-29.7,35.4c-9,13.3-15.9,26.7-20.5,39.2
	c-0.3,0.7-0.5,1.4-0.8,2.1c-0.7,2.9-1.2,5.7-1.5,8.4c-1,2.7-2,5.4-2.8,7.9c0-0.4,0-0.9,0-1.4c-0.2,1.1-0.4,2.1-0.6,3.2
	c-2.3,7.6-3.6,13.9-3.7,18.3c-0.1,3.3,0,6.6,0.1,9.8c0,1.6,0.1,3.2,0.1,4.7c-0.1,43.1-0.4,68.8-0.6,89.6
	c-0.4,38.7-0.6,54.7,0.7,121.8c1,50.8,36.3,98.1,99.5,133.4c62.4,34.8,145.1,54,232.8,54c87.5,0,170.2-19.2,232.8-54.1
	c63.6-35.4,99.4-82.8,100.7-133.4c1.6-61.3,3.2-122.4,4.8-183.7l1-39.1C718.6,253.4,718.6,252.5,718.5,251.9z M55.3,431.3
	c11.4,20.8,27.6,38.8,45.8,53.9c22.4,18.6,48.3,33.4,75,45c30.7,13.3,63.3,22.8,96.1,29.1c35.2,6.8,71.2,9.9,107.1,9.9
	c35.8,0,71.7-3.2,106.8-10c32.9-6.3,65.5-15.9,96.2-29.2c26.8-11.6,52.8-26.4,75.3-45c18.7-15.4,35.5-33.9,47.1-55.3
	c-0.4,16-0.8,31.9-1.3,47.9c-1.5,56.9-49.8,99.9-96,125.6c-67.5,37.6-151.8,52.9-228.4,52.9c-76.4,0-161-15.3-228.3-52.8
	c-46.2-25.8-93.7-68.6-94.8-125.5C55.8,462.3,55.5,446.8,55.3,431.3z M699.6,424.5c-10.4,19.9-26.2,38.4-46.3,55
	c-20.4,16.8-45.3,31.7-73.6,44c-28.4,12.3-60.4,22.1-94.8,28.8c-33.1,6.4-68.6,9.9-105.5,9.9c-36.9,0-72.5-3.4-105.8-9.8
	c-34.4-6.6-66.3-16.3-94.6-28.7c-28.2-12.3-53-27.1-73.3-44c-20-16.6-35.6-35.1-45.8-55.1c-4-7.1-7.1-14.1-9.7-21.5
	c0-7.9,0-15.2,0.1-22.8c2.3,14,7.1,27.6,14.2,40.6c21.4,38.7,63.5,71.9,118.3,95.3c54.7,23.3,122.5,37.1,195.7,37.1
	c73.2,0,140.8-13.8,195.6-37.2c55-23.4,97.2-56.7,119-95.3c7.3-12.9,14.4-26.3,18.1-40.2c-0.2,6.4-0.3,12.9-0.5,19.3
	C707.2,408.1,703.9,416.2,699.6,424.5z M53.2,239.1c1.1,26.8,4.7,32.9,11.1,44l0,0.1c1.4,2.4,2.9,5,4.3,7.5l0,0l0.1,0.1
	c2.7,5,5.8,10,9.3,14.9c3.5,4.9,7.3,9.7,11.4,14.4c4.2,4.8,8.7,9.4,13.5,13.9c4.9,4.6,10,9,15.5,13.3l0,0c7.5,5.9,15.6,11.6,24.1,17
	c8.6,5.4,17.7,10.5,27.2,15.3c9.5,4.8,19.5,9.2,29.9,13.4c10.3,4.1,21.1,7.9,32.2,11.3c11.4,3.5,23.2,6.6,35.4,9.3
	c12,2.7,24.3,4.9,37,6.8c12.5,1.8,25.3,3.2,38.2,4.2c12.8,0.9,25.8,1.5,38.9,1.5c13.1,0.1,26.1-0.3,38.8-1.2
	c13-0.8,25.7-2.1,38.2-3.9c12.7-1.7,25.1-3.9,37.1-6.5c12.2-2.6,24.1-5.6,35.6-9c11.1-3.3,21.9-7,32.3-11
	c10.5-4.1,20.5-8.5,30.2-13.2c9.6-4.8,18.8-9.8,27.5-15.2c8.7-5.4,16.8-11,24.4-16.9l0,0c5.5-4.3,10.7-8.7,15.6-13.3
	c4.8-4.5,9.4-9.2,13.6-13.9c4.1-4.7,8-9.5,11.5-14.4c3.5-4.9,6.6-9.8,9.4-14.9c1.6-3,3.1-5.5,4.5-7.8l0-0.1
	c6.8-11.5,10.4-17.7,11.3-47.4c0.8,2.7,1.4,5.2,1.8,7.5c-1.2,24-4.9,30.3-11.3,41l0,0.1c-1.4,2.3-2.9,4.8-4.5,7.8
	c-2.8,5.1-6,10.2-9.5,15.1c-3.5,5-7.4,9.9-11.6,14.6c-4.3,4.8-8.8,9.5-13.7,14.1c-4.9,4.6-10.2,9.1-15.7,13.4v0
	c-7.6,5.9-15.9,11.6-24.6,17.1c-8.7,5.4-17.9,10.5-27.6,15.3c-9.7,4.8-19.8,9.2-30.3,13.3c-10.4,4.1-21.3,7.8-32.5,11.1
	c-11.6,3.4-23.5,6.5-35.8,9.1c-12.1,2.6-24.6,4.8-37.3,6.5c-12.5,1.7-25.4,3-38.4,3.9c-12.8,0.8-25.8,1.2-39,1.2
	c-13.2-0.1-26.2-0.6-39-1.5c-13-1-25.8-2.4-38.4-4.2c-12.7-1.8-25.1-4.1-37.1-6.8c-12.2-2.7-24.1-5.8-35.6-9.4
	c-11.2-3.4-22-7.2-32.4-11.3c-10.5-4.2-20.5-8.6-30.1-13.5c-9.6-4.8-18.7-9.9-27.4-15.4c-8.6-5.4-16.8-11.1-24.3-17.1v0
	c-5.5-4.4-10.7-8.8-15.6-13.4c-4.9-4.6-9.4-9.3-13.6-14.1c-4.2-4.8-8-9.6-11.5-14.6c-3.4-4.9-6.6-9.9-9.3-15l0,0l-0.1-0.1
	c-1.5-2.7-3-5.2-4.4-7.6l0-0.1c-6-10.2-9.5-16.3-11-37.3C51.9,244.5,52.4,241.9,53.2,239.1z M707.6,299L707.6,299
	c-1.4,2.4-2.9,4.9-4.6,7.8c-2.9,5.2-6.1,10.3-9.7,15.2c-3.6,5-7.6,9.9-11.9,14.7c-4.4,4.9-9,9.6-14,14.1c-5,4.6-10.3,9.1-16,13.4
	l0,0c-7.8,6-16.2,11.7-25.1,17.1c-8.9,5.4-18.3,10.5-28.1,15.3c-9.9,4.8-20.2,9.2-30.9,13.3c-10.6,4-21.6,7.8-33,11.1
	c-11.8,3.4-23.9,6.5-36.4,9.1c-12.3,2.6-25,4.8-37.9,6.5c-12.8,1.7-25.8,3-39,3.9c-13,0.8-26.2,1.2-39.6,1.2
	c-13.5-0.1-26.7-0.6-39.7-1.5c-13.2-1-26.3-2.4-39-4.2c-12.9-1.9-25.5-4.1-37.8-6.8c-12.4-2.7-24.5-5.9-36.2-9.4
	c-11.4-3.4-22.4-7.2-32.9-11.4c-10.6-4.2-20.9-8.7-30.6-13.5c-9.7-4.8-19-10-27.8-15.4c-8.8-5.5-17.1-11.2-24.8-17.1
	c-5.6-4.4-10.9-8.9-15.9-13.5c-5-4.6-9.6-9.3-13.9-14.2c-4.2-4.8-8.2-9.7-11.8-14.7c-3.5-4.9-6.6-9.9-9.5-14.9l0,0l-0.2-0.3
	c-1.5-2.7-3-5.3-4.4-7.6l0,0l-0.1-0.1c-2.3-3.8-4.2-7.1-5.8-10.8c0-4.9,0-10.1,0.1-15.6c1.8,11.5,4.9,16.7,9.4,24.3l0,0l0,0v0
	c1.4,2.4,3,5,4.4,7.5l0,0L65,303c2.8,5,5.9,10,9.3,14.8c3.5,4.9,7.3,9.6,11.5,14.3c4.2,4.7,8.8,9.4,13.6,13.9
	c4.9,4.5,10.1,8.9,15.6,13.3c7.6,5.9,15.8,11.6,24.4,16.9c8.7,5.4,17.8,10.4,27.5,15.2c9.6,4.8,19.8,9.2,30.3,13.3
	c10.5,4.1,21.4,7.8,32.6,11.2c11.6,3.5,23.5,6.6,35.8,9.3c12.2,2.7,24.7,4.9,37.5,6.8c12.7,1.8,25.6,3.2,38.7,4.2
	c13,0.9,26.1,1.5,39.4,1.5c13.3,0.1,26.4-0.3,39.3-1.2c13.2-0.8,26.1-2.1,38.7-3.8c12.8-1.7,25.4-3.9,37.6-6.5
	c12.4-2.6,24.4-5.6,36.1-9c11.2-3.3,22.1-7,32.7-11c10.6-4.1,20.8-8.5,30.5-13.2c9.7-4.7,19-9.8,27.8-15.1c8.8-5.3,17-11,24.7-16.9
	c5.5-4.3,10.8-8.7,15.7-13.2c4.9-4.5,9.5-9.1,13.7-13.8c4.2-4.7,8.1-9.5,11.6-14.4c3.5-4.8,6.7-9.8,9.5-14.8c1.7-3,3.2-5.6,4.6-7.9
	l0,0c3.4-5.7,6.1-10.1,7.9-16.7c0.8-3,1.5-6.4,2.1-10.7l-0.5,18.8C711.8,292,709.9,295.2,707.6,299z"/>
</svg>