<?xml version="1.0" encoding="utf-8"?>
<!-- Generator: Adobe Illustrator 21.0.0, SVG Export Plug-In . SVG Version: 6.00 Build 0)  -->
<svg version="1.1" id="Layer_1" xmlns="http://www.w3.org/2000/svg" xmlns:xlink="http://www.w3.org/1999/xlink" x="0px" y="0px"
	 viewBox="0 0 742 1417.3" style="enable-background:new 0 0 742 1417.3;" xml:space="preserve">
<g>
	<path d="M379.6,10.1h-16c-193.5,0-351,157.4-351,351v697c0,193.5,157.4,351,351,351h16c193.5,0,351-157.4,351-351V361
		C730.5,167.5,573.1,10.1,379.6,10.1z M362.2,24.9c0.5,0,0.9,0,1.4,0h16c0.5,0,0.9,0,1.4,0v58h-18.8V24.9z M715.8,1058
		c0,185.4-150.8,336.2-336.2,336.2h-16c-185.4,0-336.2-150.8-336.2-336.2V361C27.4,178.6,173.5,29.7,354.8,25v65.3h33.6V25
		C569.7,29.7,715.8,178.6,715.8,361V1058z"/>
	<path d="M371.6,772.6c-150.2,0-272.4,122.2-272.4,272.4c0,150.2,122.2,272.4,272.4,272.4c150.2,0,272.4-122.2,272.4-272.4
		C644,894.8,521.8,772.6,371.6,772.6z M146.7,916.2v90.1h-31.4C120.1,974,130.9,943.5,146.7,916.2z M146.7,1173.9
		c-15.7-27.3-26.6-57.8-31.5-90.2h31.5V1173.9z M371.6,1304.3c-91.6,0-172.2-47.7-218.4-119.6V1077h-38.9c-1.3-10.5-2-21.2-2-32
		c0-10.9,0.7-21.6,2-32.1h38.9V905.4c46.1-71.9,126.8-119.6,218.4-119.6c94.7,0,177.7,51.1,223,127.1v100.1h34.3
		c1.3,10.5,2,21.2,2,32.1c0,10.8-0.7,21.5-2,32h-34.3v100.2C549.3,1253.2,466.3,1304.3,371.6,1304.3z M628,1006.3h-26.8v-81.7
		C614.4,949.7,623.6,977.2,628,1006.3z M601.1,1165.5v-81.9H628C623.6,1112.8,614.4,1140.3,601.1,1165.5z"/>
	<path d="M247.6,1014.1c-19.9,0-36.1,16.2-36.1,36.1c0,19.9,16.2,36.1,36.1,36.1s36.1-16.2,36.1-36.1
		C283.7,1030.3,267.5,1014.1,247.6,1014.1z"/>
	<path d="M493.9,1014.1c-19.9,0-36.1,16.2-36.1,36.1c0,19.9,16.2,36.1,36.1,36.1s36.1-16.2,36.1-36.1
		C530,1030.3,513.8,1014.1,493.9,1014.1z"/>
</g>
</svg>
