<?xml version="1.0" encoding="utf-8"?>
<!-- Generator: Adobe Illustrator 20.0.0, SVG Export Plug-In . SVG Version: 6.00 Build 0)  -->
<svg version="1.1" id="Layer_1" xmlns="http://www.w3.org/2000/svg" xmlns:xlink="http://www.w3.org/1999/xlink" x="0px" y="0px"
	 viewBox="0 0 1000 999.09" style="enable-background:new 0 0 1000 999.09;" xml:space="preserve">
<g>
	<path d="M338.33,407.83c-25.51-25.49-59.43-39.52-95.5-39.52s-69.99,14.04-95.5,39.52c-25.51,25.49-39.56,59.37-39.56,95.42
		c0,36.04,14.05,69.93,39.56,95.42c25.51,25.49,59.43,39.52,95.5,39.52s69.99-14.04,95.5-39.52c25.51-25.49,39.56-59.37,39.56-95.42
		C377.89,467.21,363.84,433.32,338.33,407.83z M333.38,593.72c-24.19,24.16-56.35,37.47-90.55,37.47
		c-34.21,0-66.37-13.31-90.55-37.47c-24.19-24.16-37.51-56.29-37.51-90.47s13.32-66.3,37.51-90.46
		c24.19-24.17,56.35-37.47,90.55-37.47c34.21,0,66.37,13.31,90.55,37.47c24.19,24.16,37.51,56.29,37.51,90.46
		S357.57,569.55,333.38,593.72z"/>
	<path d="M889.97,503.25c0-36.04-14.05-69.93-39.56-95.42c-25.51-25.49-59.43-39.52-95.5-39.52c-36.08,0-69.99,14.04-95.5,39.52
		c-25.51,25.49-39.56,59.37-39.56,95.42c0,36.04,14.05,69.93,39.56,95.42c25.51,25.49,59.43,39.52,95.5,39.52
		c36.08,0,69.99-14.04,95.5-39.52C875.92,573.18,889.97,539.3,889.97,503.25z M754.91,631.19c-34.21,0-66.36-13.31-90.55-37.47
		c-24.19-24.16-37.51-56.29-37.51-90.47s13.32-66.3,37.51-90.46c24.19-24.17,56.35-37.47,90.55-37.47s66.37,13.31,90.55,37.47
		c24.19,24.16,37.51,56.29,37.51,90.46s-13.32,66.3-37.51,90.47C821.28,617.88,789.12,631.19,754.91,631.19z"/>
	<path d="M500,620.2c-36.08,0-69.99,14.04-95.5,39.52c-25.51,25.49-39.56,59.37-39.56,95.42c0,36.04,14.05,69.93,39.56,95.42
		c25.51,25.49,59.43,39.52,95.5,39.52c36.08,0,69.99-14.04,95.5-39.52c25.51-25.49,39.56-59.37,39.56-95.42
		c0-36.04-14.05-69.93-39.56-95.42C569.99,634.24,536.08,620.2,500,620.2z M590.55,845.61c-24.19,24.17-56.35,37.47-90.55,37.47
		c-34.21,0-66.37-13.31-90.55-37.47c-24.19-24.16-37.51-56.29-37.51-90.47c0-34.17,13.32-66.3,37.51-90.47
		c24.19-24.16,56.35-37.47,90.55-37.47c34.21,0,66.37,13.31,90.55,37.47c24.19,24.16,37.51,56.29,37.51,90.47
		C628.06,789.32,614.74,821.44,590.55,845.61z"/>
	<polygon points="444.02,123.55 454.37,123.55 454.37,136.37 464.32,136.37 464.32,103.78 454.37,103.78 454.37,116.73 
		444.02,116.73 444.02,103.78 434.07,103.78 434.07,136.37 444.02,136.37 	"/>
	<path d="M411.45,128.59h3.54c9.27,0,15.12-4.77,15.12-13.09c0-9.14-6.27-12.41-16.49-12.41c-3.95,0-8.72,0.27-12.13,0.68v32.59
		h9.95V128.59z M411.45,109.26c0.58-0.03,1.12-0.03,1.64-0.03c4.9,0,7.22,2.32,7.22,6.41c0,4.23-2.04,7.09-7.22,7.09h-1.64V109.26z"
		/>
	<path d="M539.4,128.59h3.54c9.26,0,15.12-4.77,15.12-13.09c0-9.14-6.27-12.41-16.49-12.41c-3.95,0-8.72,0.27-12.13,0.68v32.59h9.95
		V128.59z M539.4,109.26c0.58-0.03,1.12-0.03,1.63-0.03c4.9,0,7.22,2.32,7.22,6.41c0,4.23-2.04,7.09-7.22,7.09h-1.63V109.26z"/>
	<path d="M571.42,130.5c-3.26,0-8.31-1.09-11.31-2.59l1.09,7.5c2.99,1.09,7.08,1.64,10.35,1.64c8.31,0,15.12-2.73,15.12-10.91
		c0-10.91-15.67-8.86-15.67-14.04c0-1.77,1.77-2.59,4.63-2.59c3.13,0,6.54,0.68,8.86,1.64l-0.82-7.09
		c-2.59-0.55-4.91-0.95-9.13-0.95c-8.04,0-13.49,3.17-13.49,9.82c0,11.45,15.54,9.14,15.54,14.45
		C576.6,129.41,575.1,130.5,571.42,130.5z"/>
	<rect x="512.01" y="103.78" width="9.95" height="32.59"/>
	<rect x="471.68" y="103.78" width="9.95" height="32.59"/>
	<polygon points="508.47,129.82 498.93,129.82 498.93,103.78 488.98,103.78 488.98,136.37 506.97,136.37 	"/>
	<circle cx="500" cy="298.45" r="8.29"/>
	<circle cx="242.83" cy="490.38" r="8.29"/>
	<circle cx="242.83" cy="515.95" r="8.29"/>
	<circle cx="741.57" cy="490.38" r="8.29"/>
	<circle cx="741.57" cy="515.95" r="8.29"/>
	<circle cx="766.77" cy="490.38" r="8.29"/>
	<circle cx="766.77" cy="515.95" r="8.29"/>
	<circle cx="491.85" cy="746.99" r="8.29"/>
	<circle cx="491.85" cy="772.56" r="8.29"/>
	<circle cx="511.56" cy="759.77" r="8.29"/>
	<path d="M960.71,305.1c-25.18-59.49-61.24-112.91-107.15-158.79c-45.92-45.88-99.39-81.89-158.93-107.05
		C632.98,13.21,567.5,0,500,0c-67.5,0-132.98,13.21-194.62,39.26c-59.54,25.16-113.01,61.18-158.93,107.05
		c-45.92,45.88-81.97,99.3-107.15,158.79C13.22,366.69,0,432.11,0,499.55S13.22,632.4,39.29,693.99
		c25.18,59.49,61.24,112.91,107.15,158.78c45.92,45.88,99.39,81.89,158.93,107.05c61.64,26.05,127.13,39.26,194.62,39.26
		c67.5,0,132.98-13.21,194.62-39.26c59.54-25.16,113.01-61.18,158.93-107.05c45.92-45.88,81.97-99.3,107.15-158.78
		C986.78,632.4,1000,566.98,1000,499.55S986.78,366.69,960.71,305.1z M500,992.09c-66.56,0-131.12-13.02-191.9-38.71
		c-58.71-24.81-111.43-60.32-156.71-105.56c-45.28-45.24-80.82-97.91-105.65-156.56C20.04,630.54,7,566.04,7,499.55
		c0-66.49,13.03-131,38.74-191.72c24.83-58.65,60.38-111.33,105.65-156.56c45.28-45.24,98-80.75,156.71-105.56
		C368.88,20.02,433.44,7,500,7c66.56,0,131.12,13.02,191.9,38.71c58.71,24.81,111.43,60.32,156.71,105.56
		c45.28,45.24,80.82,97.91,105.65,156.56C979.96,368.55,993,433.05,993,499.55c0,66.49-13.03,131-38.74,191.72
		c-24.83,58.65-60.38,111.33-105.65,156.56c-45.28,45.24-98,80.75-156.71,105.56C631.12,979.07,566.56,992.09,500,992.09z"/>
	<path d="M973.09,499.55c0-63.81-12.51-125.71-37.18-183.99c-23.83-56.29-57.94-106.83-101.39-150.24
		c-43.45-43.41-94.04-77.48-150.37-101.29C625.82,39.38,563.86,26.88,500,26.88s-125.82,12.5-184.15,37.15
		c-56.34,23.81-106.93,57.89-150.37,101.29c-43.45,43.41-77.56,93.95-101.39,150.24c-24.67,58.28-37.18,120.18-37.18,183.99
		s12.51,125.71,37.18,183.99c23.83,56.29,57.94,106.83,101.39,150.24c43.45,43.41,94.04,77.48,150.37,101.29
		c58.33,24.65,120.28,37.15,184.15,37.15s125.82-12.5,184.15-37.15c56.34-23.81,106.93-57.89,150.37-101.29
		c43.45-43.41,77.56-93.95,101.39-150.24C960.58,625.25,973.09,563.35,973.09,499.55z M500,958.2c-61.98,0-122.1-12.13-178.7-36.04
		c-54.67-23.1-103.76-56.17-145.93-98.3c-42.16-42.12-75.27-91.18-98.39-145.79c-23.94-56.54-36.07-116.61-36.07-178.53
		c0-61.92,12.14-121.99,36.07-178.53c23.12-54.62,56.22-103.67,98.39-145.79c42.16-42.13,91.26-75.2,145.93-98.3
		C377.9,53.01,438.02,40.89,500,40.89c61.98,0,122.1,12.13,178.7,36.04c54.67,23.1,103.76,56.17,145.93,98.3
		c42.16,42.12,75.27,91.18,98.39,145.79c23.94,56.54,36.07,116.61,36.07,178.53c0,61.92-12.14,121.99-36.07,178.53
		c-23.12,54.62-56.22,103.67-98.39,145.79c-42.16,42.13-91.26,75.2-145.93,98.3C622.1,946.08,561.98,958.2,500,958.2z"/>
</g>
</svg>
