<?xml version="1.0" encoding="UTF-8" ?>
<!DOCTYPE svg PUBLIC "-//W3C//DTD SVG 1.1//EN" "http://www.w3.org/Graphics/SVG/1.1/DTD/svg11.dtd">
<svg width="540pt" height="617pt" viewBox="0 0 540 617" version="1.1" xmlns="http://www.w3.org/2000/svg">
<g id="#ffffffff">
</g>
<g id="#2c2e35ff">
<path fill="#2c2e35" opacity="1.00" d=" M 247.93 20.94 C 262.54 19.65 277.30 20.06 291.87 21.72 C 298.21 22.84 304.62 23.51 311.04 24.03 C 313.49 23.87 315.45 26.13 317.93 25.34 C 329.24 23.48 340.74 24.29 352.10 25.27 C 373.78 26.91 395.44 28.79 417.10 30.70 C 429.05 32.66 440.43 38.31 448.91 47.02 C 461.95 60.34 468.60 78.49 472.23 96.46 C 475.76 114.73 476.53 133.46 475.68 152.02 C 474.17 177.67 472.61 203.30 471.12 228.95 C 469.50 247.94 470.96 267.00 470.98 286.02 C 471.12 314.04 473.28 342.21 469.60 370.10 C 465.41 395.01 458.37 419.56 447.44 442.38 C 437.09 464.44 421.48 484.60 400.57 497.52 C 362.89 519.85 325.20 542.16 287.53 564.51 C 275.76 571.68 263.68 578.85 250.14 582.08 C 240.68 584.51 230.69 584.75 221.11 582.92 C 211.26 581.13 202.14 576.84 192.91 573.14 C 176.21 566.23 159.24 559.94 142.94 552.11 C 130.52 546.68 118.50 539.82 108.81 530.23 C 108.38 530.55 107.54 531.19 107.11 531.51 C 100.39 529.81 93.14 529.63 86.99 526.14 C 74.04 519.96 61.94 511.18 54.02 499.02 C 42.51 482.16 37.42 461.84 34.52 441.87 C 33.32 433.94 32.84 425.93 32.55 417.92 C 29.19 346.27 25.55 274.63 22.36 202.97 C 21.78 163.58 30.13 123.04 51.58 89.55 C 68.46 62.65 96.32 42.21 127.96 37.06 C 167.95 31.73 207.93 26.26 247.93 20.94 M 128.12 40.69 C 116.41 42.75 104.95 46.70 94.73 52.81 C 76.26 62.98 61.70 79.12 51.04 97.14 C 32.77 129.09 25.32 166.39 25.91 202.97 C 29.33 278.33 33.09 353.67 36.67 429.02 C 38.94 452.11 43.34 475.92 56.09 495.72 C 63.80 507.97 75.81 516.85 88.75 522.95 C 93.97 526.05 100.19 526.10 105.91 527.68 C 98.05 520.03 91.45 510.94 87.13 500.84 C 78.64 482.70 72.30 463.25 71.62 443.09 C 68.48 369.04 65.67 294.97 62.64 220.91 C 62.58 189.56 67.07 157.72 79.67 128.82 C 82.15 123.52 84.96 118.38 87.46 113.09 C 96.06 97.51 106.93 83.05 120.32 71.25 C 138.59 54.86 161.76 43.90 186.12 40.64 C 225.06 35.91 264.09 31.81 303.00 26.87 C 284.46 24.15 265.56 22.66 246.87 24.69 C 207.28 30.03 167.70 35.35 128.12 40.69 M 320.12 28.66 C 276.39 33.75 232.67 38.80 188.94 43.88 C 174.74 45.57 160.85 49.80 148.14 56.37 C 124.07 68.82 105.01 89.41 91.70 112.79 C 85.99 123.89 80.17 135.03 76.66 147.07 C 69.12 170.59 66.23 195.43 66.26 220.07 C 68.94 288.38 71.73 356.68 74.46 424.99 C 75.03 437.30 75.00 449.74 77.51 461.87 C 79.84 474.72 84.76 486.90 90.20 498.72 C 99.96 521.63 120.49 538.41 142.93 548.17 C 160.46 556.58 178.72 563.30 196.64 570.81 C 197.10 570.34 197.56 569.87 198.03 569.41 C 200.24 571.43 202.71 573.19 205.49 574.33 C 214.80 578.21 224.83 580.81 234.98 580.53 C 248.42 580.18 261.37 575.43 273.00 568.92 C 308.54 547.83 344.09 526.77 379.64 505.69 C 391.96 498.21 405.08 491.67 415.51 481.51 C 429.51 468.05 440.02 451.28 447.56 433.46 C 456.42 413.23 462.24 391.78 466.00 370.06 C 467.90 354.44 468.44 338.70 467.99 322.98 C 467.56 296.31 467.02 269.64 466.66 242.98 C 467.67 225.05 468.83 207.13 469.86 189.20 C 471.47 160.88 474.56 132.29 469.90 104.08 C 467.00 85.75 461.47 67.01 449.24 52.62 C 438.53 39.93 421.71 32.60 405.12 33.77 C 363.77 39.09 322.46 44.71 281.12 50.10 C 272.60 51.32 263.94 52.05 255.71 54.68 C 239.17 59.42 225.33 70.39 213.04 82.06 C 198.77 96.01 187.28 112.57 178.37 130.40 C 162.74 162.25 152.59 197.25 152.00 232.89 C 151.40 232.18 150.80 231.47 150.19 230.76 C 150.75 215.68 152.75 200.66 156.12 185.95 C 160.28 170.22 165.24 154.65 172.01 139.83 C 184.71 110.36 204.43 83.40 230.93 64.91 C 241.82 57.01 254.66 52.00 267.97 50.09 C 311.94 44.12 355.97 38.57 399.91 32.43 C 386.91 32.04 373.97 30.37 360.98 29.57 C 347.39 28.73 333.70 26.65 320.12 28.66 Z" />
<path fill="#2c2e35" opacity="1.00" d=" M 125.68 58.33 C 128.56 56.80 131.09 54.42 134.40 53.86 C 133.04 57.29 128.83 57.99 126.18 60.17 C 97.60 80.38 78.35 111.45 67.21 144.19 C 57.71 171.25 55.73 200.32 56.82 228.79 C 56.21 229.48 55.60 230.18 55.00 230.89 C 54.11 209.83 55.09 188.62 58.92 167.86 C 61.92 152.51 67.15 137.66 73.53 123.41 C 85.29 97.97 102.42 74.38 125.68 58.33 Z" />
<path fill="#2c2e35" opacity="1.00" d=" M 335.20 141.36 C 336.87 139.42 338.80 142.36 338.35 144.05 C 338.05 158.37 337.51 172.70 337.21 187.02 C 337.02 189.12 337.07 191.88 334.99 193.07 C 332.76 193.23 332.64 190.55 332.71 188.97 C 333.08 175.27 333.55 161.58 333.87 147.88 C 333.94 145.66 333.99 143.31 335.20 141.36 Z" />
<path fill="#2c2e35" opacity="1.00" d=" M 55.19 232.21 C 55.79 231.51 56.40 230.81 57.00 230.11 C 58.05 262.01 59.62 293.89 60.81 325.78 C 60.20 326.48 59.60 327.18 59.00 327.90 C 57.94 295.99 56.38 264.11 55.19 232.21 Z" />
<path fill="#2c2e35" opacity="1.00" d=" M 150.00 232.11 C 150.59 232.82 151.19 233.52 151.80 234.22 C 151.40 275.83 151.28 317.44 151.11 359.05 C 153.10 396.02 155.45 432.97 157.56 469.94 C 158.29 484.72 160.12 499.53 163.99 513.84 C 168.35 531.73 176.67 549.03 189.73 562.21 C 191.84 564.31 193.96 566.47 196.52 568.04 C 196.00 568.58 195.49 569.13 194.98 569.69 C 179.04 556.18 168.18 537.31 163.03 517.17 C 158.64 501.83 156.55 485.91 155.73 470.00 C 153.64 433.00 151.28 396.02 149.28 359.02 C 149.50 316.71 149.57 274.41 150.00 232.11 Z" />
<path fill="#2c2e35" opacity="1.00" d=" M 433.90 257.74 C 442.00 255.20 449.86 251.80 458.11 249.80 C 457.87 251.06 457.14 251.82 455.92 252.07 C 358.25 285.66 260.62 319.37 162.97 352.99 C 161.98 353.52 160.94 353.22 159.98 352.83 C 162.27 350.81 165.40 350.38 168.17 349.32 C 256.75 318.80 345.33 288.28 433.90 257.74 Z" />
<path fill="#2c2e35" opacity="1.00" d=" M 59.18 329.21 C 59.79 328.51 60.40 327.81 61.00 327.12 C 61.72 351.02 62.96 374.90 63.82 398.79 C 63.21 399.48 62.60 400.18 62.00 400.88 C 61.28 376.98 60.04 353.10 59.18 329.21 Z" />
<path fill="#2c2e35" opacity="1.00" d=" M 337.35 393.48 C 340.73 391.78 345.08 392.50 347.73 395.21 C 351.64 399.08 352.89 404.77 353.32 410.06 C 353.75 419.16 351.47 428.56 346.18 436.06 C 343.76 439.46 340.27 442.41 336.05 443.11 C 331.54 443.63 327.51 440.28 325.79 436.33 C 321.96 427.91 322.61 418.13 325.37 409.50 C 327.51 403.13 331.11 396.60 337.35 393.48 M 339.20 399.07 C 334.23 400.75 331.38 405.78 329.66 410.43 C 327.21 417.58 326.25 426.00 329.95 432.90 C 331.36 435.90 335.17 437.83 338.29 436.21 C 343.18 433.83 345.79 428.56 347.38 423.60 C 349.23 417.02 349.98 409.55 346.85 403.24 C 345.54 400.45 342.40 398.02 339.20 399.07 Z" />
<path fill="#2c2e35" opacity="1.00" d=" M 62.19 402.23 C 62.79 401.52 63.40 400.81 64.00 400.10 C 64.84 420.40 64.68 440.85 68.37 460.89 C 70.66 473.61 74.43 486.13 80.37 497.64 C 81.02 498.71 81.23 499.87 81.00 501.12 C 80.13 500.32 79.23 499.51 78.73 498.42 C 68.91 479.47 65.21 458.07 63.59 436.99 C 63.16 425.40 62.60 413.81 62.19 402.23 Z" />
</g>
</svg>
