<?xml version="1.0" encoding="utf-8"?>
<!-- Generator: Adobe Illustrator 24.0.0, SVG Export Plug-In . SVG Version: 6.00 Build 0)  -->
<svg version="1.1" id="Layer_1" xmlns="http://www.w3.org/2000/svg" xmlns:xlink="http://www.w3.org/1999/xlink" x="0px" y="0px"
	 viewBox="0 0 407 340.1" style="enable-background:new 0 0 407 340.1;" xml:space="preserve">
<style type="text/css">
	.st0{fill:none;stroke:#231F20;stroke-width:2.751;stroke-linecap:round;stroke-linejoin:round;}
</style>
<title>Icons</title>
<path class="st0" d="M405.6,115.3l-2.3,77.5 M350.4,279.1c3.1-3,6.1-6.2,9-9.5c22.8-25.2,37.9-52.8,43.9-77 M1.4,138.4L4,214.3
	 M4,214c0,1.4,0.1,2.9,0.2,4.4c1.3,16.1,8.5,29.8,18.5,37.6 M22.6,256c14.1,12.4,33.3,25.6,55.4,37.6 M74.1,291.5
	c5.3,2.7,10.7,5.4,16.2,8 M90.3,299.5c2,0.9,4,1.9,6,2.8c26.8,12.4,54.5,22.5,83,30.2 M309.6,316c8.3-6.4,16.5-13.4,24.6-20.9
	c5.7-5.3,11.1-10.6,16.2-16.1 M179,332.4c16.4,5.1,36.7,7.4,58.5,5.9c29.6-2,55.4-10.6,72.1-22.3 M34.1,193.9
	c19.5,12.2,39.8,23.2,60.7,32.8c26.8,12.4,54.5,22.5,83,30.2 M370.6,60.6c-22.9-13.2-51.4-26.1-83-37.1c-21.8-7.6-44-13.8-66.5-18.5
	 M308.1,240.4c8.5-6.1,17-12.8,25.3-20.1c30.4-26.5,53.4-55.7,66.6-82.2 M117.2,15.8c-16.1,9-31.4,19.4-45.8,30.9
	c-24.5,19.6-44.6,41-59.2,61.7 M177.6,256.8c16.4,5.1,36.7,7.4,58.5,5.9c29.6-2,55.5-10.6,72.1-22.3 M12.3,108.2
	c-7,9.5-10.8,20.9-10.9,32.7c0,21.5,13.1,40.7,33.6,53.5 M400,138.3c3.7-7.3,5.6-15.4,5.6-23.6c0-21.8-13.6-41.3-35-54.1 M221.1,5
	c-11.9-2.4-24-3.6-36.1-3.6c-26.6,0-50.6,5.5-67.8,14.4 M158.9,150.7c-5.7,7.3-5.7,17.4-0.1,24.7 M250.9,175.7
	c7.2-7.3,7.2-19.1-0.1-26.4 M158.6,175.2c28,18.6,64.4,18.7,92.5,0.3 M251.2,175.3c1.3-4,2-8.2,2-12.4c0-23.9-21.5-43.2-48.1-43.2
	c-26.6,0-48.1,19.4-48.1,43.2v0.4 M157,162.7c-0.1,4.2,0.4,8.3,1.5,12.3 M90.4,125.7c0,40.6,51.6,73.5,115.2,73.5
	c63.6,0,115.2-32.9,115.2-73.5c0-40.6-51.6-73.5-115.2-73.5C141.9,52.1,90.4,85,90.4,125.7L90.4,125.7z"/>
</svg>
