<?xml version="1.0" encoding="utf-8"?>
<!-- Generator: Adobe Illustrator 24.0.1, SVG Export Plug-In . SVG Version: 6.00 Build 0)  -->
<svg version="1.1" id="Laag_1" xmlns="http://www.w3.org/2000/svg" xmlns:xlink="http://www.w3.org/1999/xlink" x="0px" y="0px"
	 viewBox="0 0 785.95 803.16" style="enable-background:new 0 0 785.95 803.16;" xml:space="preserve">
<g>
	<path d="M785.91,376.52c-0.44,27.62-5.26,61.88-13.99,95.68c-5.2,20.11-11.97,39.59-19.59,58.91
		c-8.44,21.38-18.61,41.78-30.39,61.44c-9.44,15.76-19.98,30.74-30.73,45.66c-12.61,17.49-27.34,32.9-42.3,48.14
		c-14.32,14.59-29.81,28.04-46.29,40.13c-18.72,13.73-38.5,25.83-59.15,36.6c-11.79,6.15-23.78,11.9-36.2,16.27
		c-14.97,5.27-30.1,10.18-45.63,13.99c-25.19,6.19-50.57,9.71-76.41,9.81c-18.94,0.07-37.94-0.53-56.56-4.32
		c-15.9-3.23-31.64-7.16-47.01-12.7c-14.25-5.14-28.07-11.24-41.4-18.2c-8.85-4.62-17.36-10.2-25.78-15.78
		c-9.7-6.43-18.99-13.38-28.48-20.06c-8.11-5.72-16.14-11.56-24.22-17.33c-9.03-6.45-17.98-13.02-27.14-19.28
		c-8.92-6.09-16.97-13.29-25.26-20.13c-9.21-7.59-17.58-16.23-25.63-25.09c-12.43-13.68-23.18-28.57-32.91-44.3
		c-12.21-19.73-22.37-40.5-29.94-62.27c-5.26-15.13-9.99-30.55-12.93-46.53c-3.29-17.89-6.02-35.79-7.47-53.88
		c-0.99-12.43-0.34-24.89,0.8-37.32c0.32-3.46-0.22-6.99-0.04-10.47c0.85-16.62,2.09-33.24,5.76-49.48
		c3.17-14.05,6.6-28.05,10.43-41.97c5.1-18.52,12.13-36.21,19.72-53.7c4.67-10.75,10.08-21.22,15.85-31.49
		c7.87-14,16.14-27.71,25.18-40.99c17.68-25.96,37.54-49.89,60.99-71.01c12.94-11.65,26.01-23.11,39.84-33.58
		c13.96-10.57,29.11-19.43,44.36-28.15c16.19-9.25,33.32-16.2,50.41-23.26c17-7.03,34.83-11.57,53.04-14.71
		c9.13-1.57,18.24-3.44,27.42-4.75c8.35-1.19,16.83-1.47,25.25-2.14c9.3-0.74,18.6,0.35,27.85,0.32c13.5-0.03,26.77,1.81,39.83,4.05
		c13.48,2.32,27.13,4.9,40.04,9.9c24.28,9.39,48.5,18.91,72.78,28.3c13.59,5.25,27.28,10.25,40.75,15.83
		c11.84,4.91,23.12,10.87,34.11,17.3c23.66,13.84,44.64,31.03,63.25,51.23c15.37,16.69,29.1,34.6,40.37,54.21
		c11.06,19.25,20.14,39.44,27.54,60.51c6.69,19.05,11.12,38.58,14.63,58.25C784.7,322.91,786.2,346.07,785.91,376.52z
		 M154.17,699.15c-0.52-1.46-0.58-2-0.86-2.36c-10.14-12.88-19.56-26.19-27.77-40.46c-7.37-12.81-13.96-25.88-19.74-39.48
		c-6.82-16.07-12.41-32.56-16.59-49.43c-2.91-11.73-5.24-23.66-6.75-35.74c-3.05-24.42-6-48.75-4.26-73.51
		c1.58-22.42,3.01-44.81,7.81-66.82c2.88-13.24,5.73-26.48,9.74-39.46c2.74-8.87,4.48-18.12,8.26-26.59
		c7.1-15.91,12.6-32.52,20.71-47.99c5.14-9.8,10.27-19.62,15.81-29.19c3.89-6.72,8.53-13,12.74-19.54
		c8.69-13.5,17.9-26.67,28.08-39.05c7.55-9.18,15.48-18.06,23.67-26.73c13.26-14.04,27.37-27.09,42.28-39.27
		c12.57-10.28,25.67-19.86,39.38-28.69c12.57-8.1,25.76-14.91,38.97-21.73c10.85-5.6,22.13-10.37,33.52-14.93
		c13.28-5.32,26.99-9.15,40.68-12.85c11.8-3.19,23.86-5.7,36.08-7.4c27.67-3.84,55.28-4.86,83.02-1.05
		c3.04,0.42,6.31,1.75,10.48-0.36c-7.74-3.09-14.6-5.81-21.44-8.57c-2.46-0.99-4.54-1.79-5.79,1.85c-0.58,1.7-2.72,2.01-4.77,1.84
		c-21.72-1.74-43.44-3.06-65.25-1.58c-13.13,0.89-26.14,2.87-38.97,5.42c-18.32,3.64-36.24,9.14-55,10.67
		c-6.34,0.52-12.17-0.01-17.85-2.81c-4.06-2-5.1-5.14-3.37-9.09c2.3-5.27,6.28-8.79,11.71-10.9c13.22-5.12,27.15-7.33,40.93-10.09
		c13.05-2.62,26.27-3.97,39.6-3.91c7.89,0.04,15.79,0.01,24.15,0.01c-1.29-2.57-2.99-2.06-4.36-2.27
		c-10.59-1.58-21.3-0.67-31.93-1.35c-20.06-1.27-39.85,1.11-59.44,4.71c-22.51,4.14-44.66,9.59-66.07,18.22
		c-19.47,7.85-38.49,16.56-56.35,27.37c-27.56,16.67-53.36,35.83-76.1,58.86c-8.28,8.38-17.07,16.26-24.76,25.22
		c-11.99,13.98-23.17,28.59-33.58,43.8c-8.62,12.61-16,25.95-23.49,39.22c-8.42,14.91-14.96,30.7-21.35,46.58
		c-5.46,13.58-10.02,27.41-13.94,41.49c-1.11,3.98-3.21,7.74-3.91,11.77c-4.29,25.02-9.71,49.8-10.72,75.39
		c-0.98,24.83-0.61,49.49,2.68,74.08c2.69,20.09,7.52,39.72,13.31,59.16c2.91,9.76,7.33,18.84,10.86,28.31
		c3.35,9,7.16,17.99,12.03,26.24c5.9,9.97,11.88,19.94,18.6,29.46c12.99,18.41,27.15,35.68,44.11,50.62
		c10.23,9.01,21.05,17.28,31.66,25.81C144.31,695.01,148.7,697.19,154.17,699.15z M395.09,796.29c19.07,0.15,35.93-3.08,52.73-6.36
		c17.28-3.36,34.01-8.73,50.64-14.61c19.04-6.73,37.23-15.09,54.85-24.8c11.79-6.49,23.16-13.6,34.29-21.23
		c17.47-11.98,33.9-25.16,49.3-39.61c16.52-15.51,31.43-32.53,45.8-50.07c16.41-20.03,29.74-42.09,42.59-64.4
		c10.68-18.55,18.95-38.41,26.83-58.25c7.22-18.16,12.39-37.14,16.75-56.29c5.44-23.87,8.99-47.98,10.55-72.4
		c1.51-23.62,0.82-47.19-2.01-70.68c-2.35-19.48-6.42-38.57-11.65-57.51c-3.72-13.48-8.78-26.47-13.77-39.38
		c-5.16-13.35-11.94-26.24-19.73-38.45c-6.79-10.64-13.48-21.28-21.24-31.31c-7.26-9.38-15.63-17.64-23.44-26.45
		c-11.1-12.52-24.12-22.77-37.59-32.34c-13.32-9.47-27.74-17.19-42.6-24.25c-16.23-7.71-33.01-13.61-50.12-18.6
		c-11.47-3.34-23.43-4.86-35.3-6.43c-15.67-2.07-31.45-3.6-47.21-2.95c-22.25,0.92-44.34,3.76-66.03,9.08
		c-15.66,3.84-31.19,8.16-46.21,14.05c-14.21,5.58-28.09,11.96-41.75,18.78c-10.72,5.34-21.16,11.24-31.11,17.85
		c-11.18,7.43-22.06,15.31-32.68,23.6c-12.87,10.04-25.08,20.73-36.6,32.22c-7.86,7.85-15.17,16.26-22.69,24.44
		c-17.95,19.54-33.1,41.08-46.77,63.59c-11.14,18.35-21.71,37.09-29.72,57.22c-5.32,13.37-10.82,26.69-15.35,40.33
		c-5.23,15.75-9.72,31.75-12.79,48.09c-3.41,18.14-6.61,36.36-7.67,54.8c-0.85,14.77-0.74,29.58-0.48,44.4
		c0.34,19.9,3.64,39.28,6.88,58.78c1.78,10.73,5.14,20.93,7.93,31.34c3.85,14.33,8.92,28.23,15.02,41.72
		c4.45,9.83,9.78,19.25,14.59,28.9c7.42,14.89,17.23,28,27.33,40.96c11.35,14.56,24.37,27.42,38.72,39.26
		c21.51,17.75,44.96,31.95,70.25,43.31c13.8,6.19,28.12,11.04,42.85,14.56c9.54,2.28,19.04,5.12,28.72,6.38
		C356.98,796.11,376.9,797.7,395.09,796.29z M490.81,26.4c1.35-0.09,3.06,0.3,3.24-1.54c0.17-1.73-1.57-2.01-2.77-2.34
		c-7.66-2.14-15.35-4-23.19-5.49c-15.49-2.95-31.12-3.09-46.69-3.35c-9.34-0.16-18.84,1.08-28.26,2
		c-20.05,1.96-39.61,5.99-58.97,11.28c-3.77,1.03-6.92,3.17-9.6,6c-2.45,2.58-2.08,5.3,1.08,6.71c1.79,0.8,3.63,1.44,5.72,1.52
		c6.03,0.23,12.08-0.31,17.88-1.42c17.24-3.29,34.28-7.61,51.52-10.9c11.22-2.14,22.68-4.64,33.98-4.41
		C453.45,24.84,472.3,22.43,490.81,26.4z"/>
	<path d="M387.02,790.08c-24.39-0.57-44.73-1.88-64.44-6.71c-15.91-3.9-31.86-8.35-46.86-15.14c-20.38-9.24-39.99-19.94-58.17-33.14
		c-13.1-9.51-25.04-20.35-36.18-31.99c-12.75-13.31-24.78-27.5-34.41-43.14c-7.49-12.17-15.58-24.1-20.78-37.84
		c-5.28-13.94-11.15-27.69-16.13-41.77c-1.82-5.13-2.82-10.56-4.03-15.9c-4.82-21.26-9.12-42.65-10.14-64.47
		c-0.93-19.88-1.58-39.79,0.54-59.66c0.99-9.26,0.92-18.71,2.82-27.77c2.24-10.72,3.95-21.54,6.4-32.24
		c4.91-21.47,11.8-42.26,19.51-62.81c4.6-12.25,10.82-23.78,16.58-35.51c9.79-19.93,21.37-38.76,33.94-57.08
		c7.26-10.58,14.98-20.77,23.24-30.5c12.46-14.67,25.66-28.73,39.94-41.66c15.02-13.6,30.49-26.75,47.61-37.64
		c9.9-6.3,19.9-12.52,30.15-18.33c9.06-5.13,18.47-9.55,27.65-14.34c9.52-4.97,19.97-8.22,30.12-11.92
		c23.04-8.39,46.82-13.53,71.11-16.97c27.45-3.89,54.62-2.9,81.91,1.16c35.58,5.29,68.89,16.76,100.07,34.67
		c27.52,15.81,51.01,36.25,71.68,60.26c15.4,17.88,28.25,37.46,38.93,58.29c9.07,17.67,16.39,36.2,22.09,55.39
		c4.41,14.86,7.76,29.91,10.34,45.09c2.22,13.07,3.14,26.37,4.14,39.64c0.95,12.65,0.83,25.28,0.2,37.78
		c-0.75,14.88-1.35,29.89-4.17,44.62c-2.57,13.39-4.56,26.96-8.23,40.06c-4.07,14.54-7.77,29.26-13.68,43.26
		c-4.45,10.57-8.32,21.39-13,31.85c-3.86,8.62-8.56,16.87-12.84,25.31c-6.82,13.44-14.59,26.34-23.1,38.74
		c-7.13,10.4-14.67,20.57-22.61,30.37c-10.6,13.08-21.97,25.51-33.9,37.42c-12.01,11.98-24.73,23.17-38.11,33.57
		c-16.15,12.56-33.21,23.75-51.23,33.48c-18.86,10.18-38.31,18.84-58.67,25.73c-11.02,3.73-22.07,7.53-33.3,10.2
		c-17.75,4.22-35.77,7.52-54.11,8.47C399.58,789.35,391.31,790.6,387.02,790.08z M392.33,783.56c9.99-0.44,22.03-1.36,34.11-3.07
		c17.31-2.45,34.28-6.25,50.97-11.19c13.8-4.08,27.36-8.89,40.73-14.42c22.82-9.44,44.01-21.64,64.52-35.11
		c11.2-7.36,21.88-15.47,31.96-24.45c16.87-15.04,33.71-30,48.14-47.51c14.01-17.01,27.68-34.25,39.66-52.77
		c9.62-14.89,17.71-30.68,25.48-46.54c6.91-14.09,12.83-28.74,17.93-43.67c6.29-18.41,11.7-37.05,15.45-56.15
		c3.43-17.44,5.71-35.05,7.2-52.77c1.72-20.45,1.56-40.86-0.53-61.27c-1.99-19.53-5.16-38.81-9.95-57.9
		c-4.82-19.21-11.69-37.66-19.76-55.6c-5.97-13.26-13.35-25.91-21.24-38.21c-10-15.59-21.62-29.96-34.31-43.33
		c-17.57-18.51-37.64-34.01-60-46.56c-17.02-9.56-34.85-17.05-53.33-23.13c-14.39-4.74-29.18-7.69-44.15-9.87
		c-14.46-2.11-29-3.76-43.58-3.67c-9.27,0.06-18.58,0.82-27.87,1.6c-19.83,1.67-39.08,5.98-58.11,11.38
		c-31.16,8.83-60.11,22.86-87.97,39.11c-10.87,6.34-21.52,13.15-31.4,21.07c-9.95,7.98-20.13,15.65-29.54,24.31
		c-10.76,9.9-21.65,19.65-31.32,30.63c-10.4,11.82-20.11,24.17-29.47,36.86c-8.98,12.17-17.35,24.64-25,37.65
		c-8.59,14.6-15.94,29.82-23.27,45.09c-8.87,18.49-15.05,37.84-20.71,57.41c-5.53,19.12-9.73,38.6-12.21,58.34
		c-2.43,19.41-3.9,38.85-3.07,58.55c0.85,20.09,1.94,39.99,5.84,59.79c3.24,16.49,7.26,32.68,12.13,48.75
		c8.65,28.56,22.17,54.7,39.19,78.95c18.17,25.89,40.49,47.91,66.33,66.24c20.83,14.77,43.19,26.66,67.35,35.03
		c15.36,5.32,30.88,10.31,46.94,12.86C356.23,782.66,373.22,783.18,392.33,783.56z"/>
</g>
</svg>
