<?xml version="1.0" encoding="iso-8859-1"?>
<!-- Generator: Adobe Illustrator 19.0.0, SVG Export Plug-In . SVG Version: 6.00 Build 0)  -->
<svg version="1.1" id="Layer_1" xmlns="http://www.w3.org/2000/svg" xmlns:xlink="http://www.w3.org/1999/xlink" x="0px" y="0px"
	 viewBox="0 0 512 512" style="enable-background:new 0 0 512 512;" xml:space="preserve">
<g>
	<g>
		<path d="M494.246,119.123H17.754C7.964,119.123,0,127.087,0,136.877v109.96c0,9.79,7.964,17.754,17.754,17.754h4.566l32.66,48.991
			v15.725c0,14.842,12.075,26.917,26.917,26.917h6.047c28.161,22.345,93.371,36.653,168.056,36.653s139.895-14.309,168.056-36.653
			h6.047c14.842,0,26.917-12.075,26.917-26.917v-15.725l32.66-48.991h4.566c9.79,0,17.754-7.964,17.754-17.754v-109.96
			C512,127.087,504.036,119.123,494.246,119.123z M42.969,264.591H82.47v37.799H68.168L42.969,264.591z M439.839,329.307
			c0,5.369-4.367,9.736-9.736,9.736h-91.63c-4.744,0-8.591,3.846-8.591,8.591s3.846,8.591,8.591,8.591h49.426
			C356.37,368.162,307.622,375.696,256,375.696s-100.37-7.533-131.899-19.472h177.714c4.744,0,8.591-3.846,8.591-8.591
			s-3.846-8.591-8.591-8.591H81.897c-5.369,0-9.736-4.367-9.736-9.736v-9.736h367.678V329.307z M99.651,302.389v-37.799h19.472
			v37.799H99.651z M136.304,302.389v-37.799h19.472v37.799H136.304z M172.958,302.389v-37.799h19.472v37.799H172.958z
			 M209.611,302.389v-37.799h19.472v37.799H209.611z M246.264,302.389v-37.799h19.472v37.799H246.264z M282.917,302.389v-37.799
			h19.472v37.799H282.917z M319.57,302.389v-37.799h19.472v37.799H319.57z M356.224,302.389v-37.799h19.472v37.799H356.224z
			 M392.877,302.389v-37.799h19.472v37.799H392.877z M443.832,302.389H429.53v-37.799h39.501L443.832,302.389z M494.819,246.837
			c0,0.316-0.257,0.573-0.573,0.573H17.754c-0.316,0-0.573-0.257-0.573-0.573v-109.96c0-0.316,0.257-0.573,0.573-0.573h476.492
			c0.316,0,0.573,0.257,0.573,0.573V246.837z"/>
	</g>
</g>
<g>
	<g>
		<path d="M291.555,185.696c-0.805-4.674-5.247-7.812-9.925-7.006c-4.676,0.806-7.812,5.249-7.006,9.926
			c0.183,1.061,0.276,2.151,0.276,3.242c0,10.421-8.478,18.899-18.899,18.899s-18.899-8.478-18.899-18.899
			c0-10.421,8.478-18.899,18.899-18.899c0.937,0,1.877,0.069,2.795,0.204c4.694,0.693,9.06-2.55,9.753-7.244
			c0.693-4.694-2.55-9.06-7.244-9.753c-1.746-0.258-3.531-0.388-5.306-0.388c-19.895,0-36.081,16.186-36.081,36.081
			s16.186,36.081,36.081,36.081s36.081-16.186,36.081-36.081C292.079,189.79,291.903,187.718,291.555,185.696z"/>
	</g>
</g>
<g>
</g>
<g>
</g>
<g>
</g>
<g>
</g>
<g>
</g>
<g>
</g>
<g>
</g>
<g>
</g>
<g>
</g>
<g>
</g>
<g>
</g>
<g>
</g>
<g>
</g>
<g>
</g>
<g>
</g>
</svg>
