<?xml version="1.0" encoding="utf-8"?>
<!-- Generator: Adobe Illustrator 24.0.1, SVG Export Plug-In . SVG Version: 6.00 Build 0)  -->
<svg version="1.1" id="Laag_1" xmlns="http://www.w3.org/2000/svg" xmlns:xlink="http://www.w3.org/1999/xlink" x="0px" y="0px"
	 viewBox="0 0 657.73 646.13" style="enable-background:new 0 0 657.73 646.13;" xml:space="preserve">
<style type="text/css">
	.st0{stroke:#000000;stroke-width:3;stroke-miterlimit:10;}
	.st1{fill:none;}
	.st2{fill:#FFFFFF;}
	.st3{stroke:#000000;stroke-width:0.5;stroke-miterlimit:10;}
	.st4{fill:none;stroke:#000000;stroke-linecap:round;stroke-linejoin:round;stroke-miterlimit:10;}
</style>
<path class="st0" d="M244.48,3.68c6.83,0.53,11.64,1.65,17.32,3.06c5.79,1.44,11.55,3.06,17.25,4.82
	c7.76,2.39,15.47,4.95,23.18,7.51c8.44,2.79,16.87,5.6,25.26,8.51c6.66,2.31,13.28,4.75,19.89,7.19c6.38,2.35,12.71,4.84,19.1,7.17
	C377.62,46,388.81,49.95,399.95,54c5.22,1.9,10.36,4.05,15.62,5.82c1.65,0.55,3.77,0.79,5.35,0.25c9.54-3.28,19.34-4.01,29.26-3.24
	c5.26,0.41,10.49,1.42,15.69,2.43c1.08,0.21,2.58,1.48,2.77,2.47c0.49,2.58,0.97,5.46,0.27,7.87c-0.53,1.84-2.86,3.17-4.44,4.68
	c-0.47,0.45-1.16,0.67-1.63,1.13c-1.16,1.14-0.79,2.05,0.54,2.73c0.14,0.07,0.33,0.07,0.48,0.12c8.68,3.14,5.68,3.7,13.61-1.67
	c3.65-2.47,7.32-4.91,10.93-7.44c1.35-0.94,2.47-1.2,4.11-0.42c12.77,6.09,24.52,13.8,35.18,23.03c8.03,6.95,15.83,14.24,23.18,21.9
	c11.96,12.47,21.96,26.46,29.96,41.82c1.81,3.48,1.98,3.56,5.3,1.26c12.18-8.42,24.52-16.6,36.45-25.35
	c8.32-6.1,17.43-5.38,24.01,1.98c5.24,5.87,8.74,12.47,8.61,20.61c-0.07,4.55-1.85,8.16-5.6,10.81
	c-11.21,7.9-22.39,15.84-33.6,23.73c-8.22,5.79-16.48,11.54-24.72,17.32c-0.47,0.33-0.92,0.72-1.33,1.13
	c-1.68,1.7-1.39,2.69,0.95,3.48c2.35,0.79,4.67,1.71,7.05,2.38c3.92,1.1,4.93,4.3,5.32,7.64c0.81,6.91,1.3,13.85,1.95,20.78
	c0.2,2.1-0.55,3.75-2.21,5c-2.46,1.85-4.83,3.84-7.43,5.48c-2.44,1.55-3.05,3.45-2.78,6.26c0.83,8.6,1.49,17.23,1.93,25.86
	c0.08,1.55-0.97,3.31-1.86,4.74c-2.15,3.45-4.84,6.6-6.66,10.2c-0.96,1.89-0.84,4.5-0.69,6.75c0.54,8.28,1.27,16.56,2,24.83
	c0.47,5.39,1.12,10.76,1.6,16.14c0.69,7.71,1.28,15.42,1.93,23.13c0.63,7.46,1.3,14.92,1.95,22.38c0.07,0.75,0.2,1.49,0.24,2.24
	c0.38,7.22,0.33,14.49,1.22,21.64c1.65,13.21,0.92,26.44,0.84,39.66c-0.05,8.54-1.53,17.01-4.68,25.01
	c-2.06,5.22-6.17,9.03-10.3,12.67c-10.76,9.49-22.74,17.3-34.67,25.18c-12.7,8.39-25.31,16.89-38.03,25.25
	c-7.29,4.79-14.74,9.33-22.05,14.09c-9.27,6.03-18.47,12.17-27.7,18.25c-7.38,4.86-14.78,9.67-22.15,14.54
	c-11.03,7.29-22,14.66-33.06,21.91c-9.93,6.51-19.91,12.96-29.93,19.33c-4.95,3.15-9.93,6.32-15.12,9.05
	c-7.17,3.77-14.8,3.18-22.38,1.35c-6.69-1.61-13.38-3.27-19.99-5.2c-7.72-2.26-15.4-4.7-23.01-7.3
	c-10.22-3.49-20.39-7.16-30.53-10.86c-13.01-4.75-25.96-9.68-38.98-14.41c-9.03-3.28-18.16-6.28-27.2-9.53
	c-9.53-3.42-18.99-7.02-28.49-10.5c-10.03-3.66-20.14-7.13-30.11-10.94c-9.92-3.8-19.78-7.78-29.55-11.96
	c-8.54-3.66-17.16-7.26-25.3-11.71c-6.14-3.36-12-7.53-17.23-12.19c-12.4-11.04-22.43-24.09-30.21-38.78
	c-4.09-7.73-7.02-15.93-8.85-24.51c-1-4.7-2.28-9.34-3.15-14.07c-0.92-4.97-1.59-9.99-2.2-15.01c-0.86-7.02-1.74-14.04-2.31-21.08
	c-0.63-7.71-0.81-15.46-1.38-23.17c-0.51-6.88-1.31-13.74-1.95-20.61c-0.44-4.72-0.9-9.43-1.22-14.15
	c-0.49-7.22-0.74-14.46-1.32-21.67c-0.93-11.52-2.06-23.02-3.08-34.54c-0.43-4.89-0.83-9.78-1.19-14.67
	c-0.87-12.03-1.67-24.07-2.55-36.1C4.66,248.37,3.77,237.51,3,226.65c-0.69-9.71-0.69-19.39,0.12-29.15
	c0.78-9.36,3.69-17.7,9.14-25.12c2.32-3.17,5.32-5.98,8.43-8.41c13.24-10.35,26.65-20.47,39.97-30.71
	C73,123.78,85.3,114.27,97.6,104.77c19.68-15.2,39.35-30.41,59.03-45.61c17.31-13.37,34.64-26.73,51.95-40.11
	c6.2-4.79,12.42-9.52,19.85-12.31C233.61,4.8,238.88,3.42,244.48,3.68L244.48,3.68z M36.57,156.91c1.7,0.12,2.72,0.23,3.73,0.26
	c4.74,0.12,9.61-0.42,14.2,0.48c7.06,1.37,13.97,3.56,20.85,5.69c7.52,2.33,14.94,4.99,22.41,7.49
	c12.43,4.16,24.86,8.29,37.28,12.47c10.22,3.43,20.45,6.82,30.61,10.39c10.17,3.58,20.27,7.36,30.4,11.05
	c10.69,3.9,21.42,7.71,32.07,11.73c11.33,4.29,22.63,8.67,33.86,13.21c10.24,4.14,20.47,8.34,30.54,12.88
	c11.32,5.11,21.84,11.57,31.51,19.47c9.96,8.13,18.36,17.56,25.36,28.28c5.76,8.82,10.13,18.34,13.2,28.38
	c1.69,5.53,2.95,11.23,3.94,16.94c0.82,4.74,0.99,9.59,1.4,14.4c0.92,10.69,1.88,21.38,2.7,32.08c0.58,7.54,0.92,15.09,1.45,22.63
	c0.35,4.89,0.79,9.77,1.3,14.65c1,9.66,2.14,19.31,3.09,28.98c0.53,5.38,0.74,10.79,1.16,16.18c1.05,13.67,2.14,27.33,3.21,41
	c0.78,10.02,1.53,20.05,2.35,30.07c0.64,7.88,1.43,15.74,2.04,23.62c0.65,8.46,0.98,16.95,1.78,25.39
	c1.11,11.73-0.13,23.04-5.08,33.84c-0.52,1.14-0.96,2.31-1.44,3.47c1.15-0.06,1.88-0.42,2.55-0.87c5.45-3.64,10.85-7.37,16.34-10.95
	c16.96-11.06,34-22.02,50.93-33.12c13.83-9.07,27.52-18.37,41.35-27.45c16.82-11.03,33.84-21.76,50.55-32.96
	c11.39-7.64,22.55-15.65,33.52-23.88c5.27-3.96,10.22-8.43,12.56-15.11c2.93-8.34,3.21-17.05,4.17-25.66
	c0.38-3.37,0.08-6.82-0.04-10.24c-0.35-10.05-0.76-20.1-1.15-30.15c-0.01-0.17-0.04-0.33-0.05-0.5c-0.73-7.26-1.54-14.51-2.18-21.78
	c-0.87-9.95-1.63-19.91-2.38-29.86c-0.48-6.39-0.81-12.79-1.33-19.18c-0.5-6.2-1.24-12.38-1.73-18.58
	c-0.54-6.88-0.91-13.76-1.36-20.65c-0.03-0.5-0.13-0.99-0.18-1.49c-0.68-6.27-1.44-12.53-2-18.81c-0.58-6.46-0.96-12.94-1.47-19.41
	c-0.36-4.64-0.79-9.28-1.2-13.92c-0.95-10.93-1.88-21.86-2.86-32.79c-0.41-4.53-0.86-9.06-1.38-13.58
	c-0.28-2.47-0.52-4.98-1.16-7.37c-2.12-7.93-4.18-15.89-6.69-23.7c-3.96-12.29-10.33-23.41-17.83-33.84
	c-5.89-8.2-12.9-15.44-20.66-21.93c-8.84-7.39-18.31-13.9-28.82-18.62c-9.15-4.11-18.59-7.56-27.91-11.26
	c-7.85-3.12-15.7-6.22-23.58-9.24c-6.89-2.64-13.83-5.16-20.73-7.76c-10.88-4.1-21.73-8.28-32.62-12.34
	c-10.32-3.85-20.68-7.61-31.03-11.36c-12.47-4.52-24.94-9.06-37.45-13.47c-8.05-2.83-16.16-5.48-24.28-8.12
	c-7.81-2.54-15.62-5.08-23.49-7.41c-7.23-2.14-14.56-3.94-21.81-6.01c-6.4-1.82-12.88-1.88-19.26-0.5
	c-7.41,1.6-13.99,5.24-19.98,9.86c-17.53,13.51-35.02,27.07-52.54,40.6c-13.96,10.78-27.95,21.51-41.91,32.29
	C111,98.86,100.66,106.97,90.25,115C73,128.31,55.72,141.58,38.46,154.88C37.94,155.29,37.53,155.88,36.57,156.91z M45.23,160.2
	c-7.64,0.12-15.29,1.75-22.02,6.32c-8.82,5.98-13.53,14.8-15.67,24.9c-1.11,5.23-1.33,10.75-1.23,16.12
	c0.27,13.72,0.85,27.44,1.52,41.15c0.33,6.81,1.19,13.58,1.74,20.38c0.62,7.63,1.13,15.26,1.74,22.89
	c0.53,6.54,1.18,13.07,1.7,19.61c0.58,7.3,1.05,14.61,1.63,21.9c0.56,7.13,1.23,14.24,1.8,21.37c0.59,7.29,1.07,14.59,1.68,21.88
	c0.48,5.72,1.17,11.42,1.63,17.13c0.78,9.77,1.29,19.57,2.21,29.32c0.95,10,1.95,20.02,3.51,29.94c1.4,8.9,3.47,17.71,5.46,26.51
	c2.18,9.6,6.76,18.21,11.86,26.5c6.88,11.18,15.14,21.29,25.2,29.79c4.56,3.85,9.17,7.98,14.45,10.55
	c12.9,6.29,26.09,12.01,39.37,17.47c12.59,5.17,25.41,9.77,38.17,14.51c11.58,4.3,23.22,8.44,34.84,12.63
	c11.24,4.05,22.48,8.09,33.73,12.12c9.91,3.55,19.82,7.1,29.75,10.61c6.72,2.38,13.47,4.66,20.2,7.02c6.9,2.41,13.72,5.09,20.7,7.24
	c11.27,3.46,22.59,6.78,33.98,9.78c6.49,1.71,13.18,3.14,19.88,0.67c10.31-3.8,19.34-9.29,24.76-19.32
	c3.8-7.03,6.32-14.44,5.84-22.6c-0.33-5.63-0.71-11.25-1.07-16.88c-0.84-12.79-1.64-25.58-2.53-38.36
	c-0.56-7.96-1.3-15.91-1.88-23.87c-0.51-7.04-0.92-14.08-1.38-21.12c-0.01-0.17-0.04-0.33-0.06-0.5
	c-0.75-7.61-1.55-15.22-2.22-22.83c-0.78-8.86-1.46-17.73-2.14-26.61c-0.5-6.63-0.85-13.28-1.4-19.91
	c-0.52-6.29-1.3-12.56-1.8-18.85c-0.55-6.88-0.91-13.77-1.36-20.65c-0.03-0.5-0.14-0.99-0.18-1.49
	c-1.06-10.92-2.09-21.85-3.18-32.77c-0.66-6.61-1.12-13.26-2.14-19.82c-1.55-9.95-4.48-19.49-8.91-28.62
	c-7.62-15.69-18.22-28.9-31.62-39.97c-12.78-10.56-27.42-17.79-42.62-24.02c-13.43-5.5-26.91-10.91-40.4-16.27
	c-7.41-2.94-14.85-5.78-22.34-8.5c-8.78-3.19-17.64-6.18-26.45-9.3c-9.14-3.24-18.23-6.62-27.39-9.81
	c-10.34-3.6-20.73-7.08-31.11-10.59c-10.76-3.65-21.5-7.31-32.28-10.91c-8.89-2.97-17.83-5.79-26.71-8.79
	C63.75,163.17,54.97,160.41,45.23,160.2z M632.63,130.66c-2.33-0.02-3.36,0.29-7.13,2.9c-6.21,4.31-12.38,8.67-18.57,13
	c-6.6,4.62-13.21,9.24-19.83,13.83c-1.47,1.02-2.35,2.07-1.94,4.12c0.6,3,0.89,6.07,1.15,9.13c0.79,9.01,1.48,18.02,2.26,27.03
	c0.2,2.31,0.87,2.61,2.75,1.3c7.64-5.32,15.25-10.66,22.86-16.02c10.93-7.7,21.83-15.45,32.78-23.12c3.85-2.69,5.68-6.45,5.17-10.92
	c-0.59-5.17-2.62-9.99-5.91-14.08C643.1,133.94,639.58,130.52,632.63,130.66z M475.49,82.06c1.32,0.83,2.12,1.51,3.05,1.87
	c4.25,1.67,8.58,3.15,12.8,4.9c14.94,6.19,28.45,14.67,40.51,25.49c7.7,6.91,14.69,14.48,20.79,22.81
	c7.41,10.12,12.83,21.32,16.87,33.18c0.61,1.78,1.39,2.13,2.87,1.04c2.55-1.87,5.11-3.72,7.64-5.61c1.09-0.81,1.23-1.7,0.57-3.02
	c-7.07-14.02-15.81-27.01-25.58-39.21c-6.05-7.56-12.99-14.47-20-21.19c-11.94-11.43-25.35-20.93-39.92-28.79
	c-2.9-1.56-5.32-1.96-7.91,0.42c-1.15,1.06-2.6,1.79-3.9,2.69C480.84,78.32,478.41,80.02,475.49,82.06z M582.17,256.49
	c0.72-0.14,1.02-0.12,1.19-0.25c5.61-4.17,11.23-8.31,16.77-12.57c0.68-0.53,1.21-1.66,1.26-2.54c0.4-6.56,0.54-13.12-0.99-19.6
	c-0.57-2.4-1.42-2.85-3.41-1.38c-5.14,3.81-10.24,7.68-15.35,11.53c-1.27,0.96-1.92,2.13-1.74,3.84c0.46,4.3,0.73,8.61,1.17,12.91
	C581.35,251.11,581.79,253.78,582.17,256.49z M582.18,168.07c-2.27,1.68-3.9,3.13-5.74,4.21c-3.58,2.1-4.97,4.32-3.71,8.98
	c1.96,7.23,2.6,14.83,3.72,22.29c0.47,3.11,0.73,6.25,1.06,9.38c0.14,1.34,0.55,2.36,2.16,1.9c4.05-1.15,6.46-5.15,6.04-9.4
	c-0.82-8.33-1.43-16.69-2.19-25.03C583.17,176.47,582.68,172.55,582.18,168.07z M462.36,62.92c-4.18-4.52-31.85-4.32-37.7,0.27
	c7.4,2.83,14.54,5.64,21.76,8.25c1.23,0.45,3.12,0.58,4.12-0.06C454.55,68.79,458.34,65.85,462.36,62.92z M589.71,257.45
	c-4.54,0.63-7.46,4.53-7.09,8.59c0.62,6.77,0.97,13.56,1.44,20.34c0.17,2.44,0.32,4.88,0.51,7.84c1.05-0.64,1.79-0.83,2.06-1.3
	c2.48-4.17,5.9-7.76,4.93-13.51c-1.07-6.35-1.03-12.89-1.49-19.34C590.01,259.19,589.83,258.32,589.71,257.45z M597.07,216.28
	c-2.31-0.95-4.14-1.71-5.96-2.46c-2.5-1.03-4.8-0.98-6.94,0.95c-1.29,1.16-2.85,2.02-4.17,3.15c-0.64,0.55-1.36,1.41-1.4,2.16
	c-0.12,1.89-0.09,3.85,0.27,5.71c0.56,2.91,1.43,3.21,3.87,1.54c4.18-2.86,8.32-5.78,12.43-8.74
	C595.86,218.09,596.3,217.24,597.07,216.28z M465.55,64.58c-1.21,0.6-2.28,0.99-3.19,1.61c-2.47,1.67-4.92,3.37-7.27,5.19
	c-0.73,0.56-1.14,1.55-1.7,2.34c1,0.45,2,1.27,3,1.26c1.14-0.01,2.37-0.6,3.38-1.22c1.47-0.91,2.72-2.19,4.19-3.1
	C466.2,69.27,466.58,67.44,465.55,64.58z"/>
<path class="st1" d="M45.23,160.2c9.74,0.22,18.52,2.97,27.28,5.94c8.88,3.01,17.82,5.82,26.71,8.79
	c10.77,3.6,21.52,7.27,32.28,10.91c10.37,3.52,20.76,6.99,31.11,10.59c9.16,3.19,18.25,6.56,27.39,9.81
	c8.81,3.13,17.67,6.11,26.45,9.3c7.49,2.72,14.94,5.56,22.34,8.5c13.49,5.36,26.96,10.77,40.4,16.27
	c15.2,6.22,29.84,13.46,42.62,24.02c13.41,11.07,24,24.29,31.62,39.97c4.43,9.13,7.36,18.67,8.91,28.62
	c1.02,6.56,1.49,13.2,2.14,19.82c1.08,10.92,2.12,21.85,3.18,32.77c0.05,0.5,0.15,0.99,0.18,1.49c0.45,6.88,0.81,13.77,1.36,20.65
	c0.5,6.29,1.28,12.56,1.8,18.85c0.55,6.63,0.9,13.27,1.4,19.91c0.67,8.87,1.36,17.74,2.14,26.61c0.67,7.62,1.47,15.22,2.22,22.83
	c0.02,0.17,0.05,0.33,0.06,0.5c0.46,7.04,0.86,14.08,1.38,21.12c0.58,7.96,1.32,15.91,1.88,23.87c0.89,12.78,1.7,25.57,2.53,38.36
	c0.37,5.63,0.74,11.25,1.07,16.88c0.48,8.16-2.04,15.56-5.84,22.6c-5.42,10.03-14.45,15.53-24.76,19.32
	c-6.7,2.47-13.39,1.04-19.88-0.67c-11.4-3-22.72-6.32-33.98-9.78c-6.98-2.15-13.8-4.83-20.7-7.24c-6.73-2.35-13.48-4.64-20.2-7.02
	c-9.93-3.51-19.84-7.06-29.75-10.61c-11.25-4.03-22.49-8.07-33.73-12.12c-11.62-4.19-23.26-8.34-34.84-12.63
	c-12.76-4.73-25.59-9.34-38.17-14.51c-13.28-5.45-26.47-11.18-39.37-17.47c-5.28-2.58-9.89-6.7-14.45-10.55
	c-10.05-8.49-18.32-18.61-25.2-29.79c-5.1-8.28-9.68-16.9-11.86-26.5c-2-8.8-4.06-17.61-5.46-26.51
	c-1.56-9.92-2.56-19.93-3.51-29.94c-0.93-9.76-1.43-19.55-2.21-29.32c-0.46-5.72-1.15-11.42-1.63-17.13
	c-0.61-7.29-1.09-14.59-1.68-21.88c-0.57-7.13-1.24-14.24-1.8-21.37c-0.58-7.3-1.05-14.61-1.63-21.9
	c-0.52-6.54-1.17-13.07-1.7-19.61c-0.62-7.63-1.13-15.26-1.74-22.89c-0.55-6.8-1.4-13.58-1.74-20.38
	c-0.67-13.71-1.25-27.43-1.52-41.15c-0.11-5.37,0.12-10.89,1.23-16.12c2.14-10.1,6.85-18.92,15.67-24.9
	C29.94,161.95,37.58,160.32,45.23,160.2z M242.25,544.13c11.9,0.07,20.77-1.49,29.38-4.46c15.11-5.21,26.67-15,35.45-28.13
	c5.55-8.3,8.72-17.6,11.12-27.3c1.96-7.91,2.33-15.94,2.89-23.92c0.78-11.06-0.75-22.06-2.99-32.92c-0.5-2.43-0.91-4.89-1.3-7.35
	c-0.64-4.08-0.82-8.26-3.14-11.9c-0.57-0.9-0.93-1.95-1.33-2.95c-4.17-10.37-7.9-20.95-12.63-31.05
	c-3.83-8.16-8.7-15.87-13.43-23.58c-8.99-14.66-19.85-27.93-31.88-40.16c-10.52-10.7-22-20.37-34.62-28.59
	c-10.26-6.67-20.96-12.6-32.4-16.92c-9.12-3.44-18.5-6.17-28.27-7.43c-13.97-1.81-27.65-1.29-41.02,3.56
	c-15.55,5.64-27.42,15.7-35.94,29.77c-9.27,15.3-12.5,32.29-13.13,49.8c-0.38,10.54,0.61,21.11,3,31.43
	c2.05,8.87,4.3,17.7,6.84,26.44c4.05,13.95,10.51,26.91,17.61,39.5c10.58,18.76,23.45,35.84,38.52,51.3
	c11.79,12.1,24.67,22.82,38.94,31.77c14.5,9.09,29.89,16.24,46.73,20.07C228.7,542.94,236.8,543.9,242.25,544.13z M187.85,231.56
	c-0.43-2.8-3.69-8.23-6.97-9.1c-3.46-0.92-6.23,0.75-6.41,4.32c-0.21,4.13,3.11,8.52,7.13,9.41
	C184.84,236.92,187.94,234.62,187.85,231.56z"/>
<path class="st2" d="M465.55,64.58c1.03,2.87,0.66,4.7-1.59,6.08c-1.47,0.91-2.72,2.19-4.19,3.1c-1.01,0.62-2.24,1.21-3.38,1.22
	c-1,0.01-2-0.8-3-1.26c0.56-0.79,0.97-1.77,1.7-2.34c2.36-1.82,4.81-3.52,7.27-5.19C463.27,65.57,464.34,65.17,465.55,64.58z"/>
<path class="st3" d="M286.34,97.67c11.36,0.58,22.5,2.19,32.34,8.48c4.71,3,8.51,6.81,9.97,12.52c0.85,3.32-0.25,6.33-1.49,9.12
	c-4.12,9.31-12.11,14.56-20.91,18.69c-8.19,3.85-16.88,5.66-25.94,6.19c-7.34,0.43-14.49-0.38-21.71-1.46
	c-7.47-1.12-14.35-3.55-20.37-8.06c-5.7-4.26-8.86-10.04-7.91-17.25c0.84-6.41,4.59-11.34,9.83-15c6.1-4.26,12.79-7.38,20.08-8.97
	c7.02-1.53,14.07-2.9,21.13-4.21C284.44,97.61,284.67,97.67,286.34,97.67z M276.51,150.64c12.25-0.39,24.75-3.25,35.96-10.52
	c4.92-3.19,9.25-7.09,12.03-12.42c2.38-4.55,2.51-8.94-0.62-13.35c-2.3-3.24-5.32-5.47-8.71-7.29c-5.91-3.17-12.12-5.49-18.88-5.82
	c-6.36-0.31-12.79-0.94-19.08-0.35c-6.04,0.57-11.99,2.35-17.9,3.93c-8.39,2.24-15.99,6.02-22.01,12.52
	c-5.11,5.51-6.09,15.12-0.59,20.88c4.13,4.32,9.12,6.96,14.57,8.71C259.13,149.46,267.3,150.43,276.51,150.64z"/>
<path d="M242.25,544.13c-5.45-0.22-13.55-1.19-21.61-3.02c-16.84-3.82-32.23-10.98-46.73-20.07c-14.28-8.95-27.15-19.67-38.94-31.77
	c-15.07-15.46-27.93-32.54-38.52-51.3c-7.1-12.58-13.56-25.54-17.61-39.5c-2.54-8.74-4.78-17.57-6.84-26.44
	c-2.39-10.32-3.38-20.89-3-31.43c0.64-17.52,3.87-34.51,13.13-49.8c8.52-14.07,20.38-24.13,35.94-29.77
	c13.38-4.85,27.06-5.37,41.02-3.56c9.77,1.26,19.15,3.99,28.27,7.43c11.44,4.32,22.14,10.25,32.4,16.92
	c12.62,8.21,24.1,17.89,34.62,28.59c12.02,12.23,22.88,25.5,31.88,40.16c4.73,7.71,9.6,15.42,13.43,23.58
	c4.74,10.1,8.46,20.68,12.63,31.05c0.4,1,0.76,2.05,1.33,2.95c2.32,3.64,2.5,7.83,3.14,11.9c0.39,2.46,0.79,4.91,1.3,7.35
	c2.23,10.87,3.76,21.86,2.99,32.92c-0.56,7.98-0.93,16.01-2.89,23.92c-2.4,9.7-5.57,19-11.12,27.3
	c-8.78,13.13-20.35,22.92-35.45,28.13C263.02,542.64,254.15,544.2,242.25,544.13z M118.25,265.04c-0.08-0.19-0.17-0.37-0.25-0.56
	c-0.59,0.06-1.24-0.04-1.75,0.19c-10.98,4.88-20.43,11.76-27.57,21.54c-6.8,9.31-11.68,19.55-13.76,30.95
	c-1.23,6.76-2.56,13.58-2.92,20.42c-0.88,17,1.42,33.7,6.43,49.95c2.91,9.41,5.96,18.82,9.69,27.92
	c5.59,13.63,12.96,26.4,21.27,38.55c10.12,14.79,21.54,28.53,34.78,40.71c15.78,14.5,32.94,26.85,52.63,35.62
	c11.98,5.34,24.34,9.29,37.33,10.73c14.93,1.66,29.54,0.12,43.29-6.59c9.67-4.72,18.06-11.11,24.07-20.05
	c3.78-5.62,7.09-11.68,9.67-17.94c2.32-5.63,3.4-11.77,4.88-17.73c0.16-0.64-0.51-2.04-1.07-2.22c-2.69-0.83-5.44-1.5-8.22-1.93
	c-0.91-0.14-2.11,0.42-2.92,1.01c-2.76,2-5.34,4.25-8.11,6.23c-6.89,4.92-13.93,9.63-20.76,14.64
	c-15.36,11.26-30.65,22.62-45.91,34.02c-2.31,1.72-4.54,1.71-7.02,0.79c-0.7-0.26-1.43-0.43-2.12-0.69
	c-4.42-1.67-8.89-3.22-13.21-5.1c-2.37-1.03-2.36-2.23-0.3-3.81c5.4-4.15,10.84-8.25,16.26-12.37
	c18.18-13.86,36.36-27.71,54.53-41.59c2.68-2.04,2.56-2.66-0.46-4.23c-9.75-5.07-19.12-10.71-27.81-17.51
	c-16.92-13.24-32.39-27.93-44.89-45.46c-6.35-8.92-11.99-18.35-17.9-27.58c-1.16-1.81-2.3-1.71-3.9-0.57
	c-16.34,11.59-32.71,23.13-49.07,34.7c-6.51,4.6-12.99,9.25-19.49,13.86c-2.48,1.76-3.89,1.74-4.91-0.5
	c-4.34-9.48-8.86-18.91-12.65-28.61c-2.67-6.85-4.56-14.06-6.27-21.23c-1.9-7.94-3.41-6.82,3.67-11.89
	c9.88-7.06,19.73-14.14,29.62-21.18c12.53-8.91,25.09-17.76,37.58-26.72c0.79-0.56,1.54-1.94,1.44-2.84
	c-0.42-3.85-1.21-7.66-1.79-11.5c-0.3-2.01-1.05-2.48-2.81-1.36c-2.59,1.64-5.12,3.39-7.66,5.12
	c-14.85,10.09-29.69,20.19-44.54,30.28c-1.63,1.11-3.31,1.81-5.38,1.02c-3.86-1.47-7.79-2.78-11.66-4.24
	c-2.05-0.77-3.01-2.1-2.91-4.59c0.46-11.48,2.45-22.61,7.11-33.15c2.02-4.55,4.09-9.21,8.3-12.24c4.85-3.5,9.9-6.74,14.84-10.13
	C116.58,266.54,117.39,265.75,118.25,265.04z M280.8,462.37c0.09-1.65,0.24-2.46,0.17-3.25c-0.3-3.12-0.84-6.24-0.99-9.37
	c-0.26-5.65-0.31-11.32-0.45-16.98c-0.05-1.99,1.06-2.59,2.74-1.97c6.39,2.34,12.74,4.79,19.11,7.18c1.95,0.73,2.81,2.15,2.93,4.18
	c0.42,7.13,0.89,14.26,1.32,21.4c0.44,7.25,0.43,7.25,7.39,9.09c0.56,0.15,1.11,0.36,1.67,0.51c1.37,0.37,2.26,0.03,2.48-1.54
	c0.36-2.63,1.19-5.26,1.1-7.86c-0.3-8.97-0.68-17.96-1.5-26.89c-0.45-4.92-1.73-9.79-2.87-14.63c-1.16-4.92-2.63-9.76-3.92-14.65
	c-1.16-4.44-1.81-8.94-3.96-13.18c-3.93-7.76-6.74-16.11-11.01-23.66c-6.13-10.83-12.69-21.49-19.92-31.6
	c-6.16-8.63-13.28-16.63-20.46-24.46c-4.73-5.16-10.56-9.29-15.45-14.32c-4.61-4.75-9.85-8.59-15.18-12.4
	c-13.18-9.43-27.32-17.05-42.6-22.51c-2.62-0.94-3.61-0.27-3.42,2.55c0.23,3.3,0.6,6.58,0.91,9.87c0.18,1.97-0.75,3.29-2.36,4.34
	c-4.11,2.67-8.24,5.33-12.23,8.18c-0.87,0.62-1.76,2.07-1.67,3.05c0.4,4.45,0.97,8.91,1.86,13.28c0.24,1.18,1.65,2.49,2.84,3.02
	c3.17,1.41,6.59,2.28,9.78,3.67c2.48,1.07,4.75,2.77,5.08,5.71c0.85,7.42,1.59,14.86,2.2,22.3c0.62,7.54,0.92,15.11,1.61,22.65
	c0.21,2.34,0.81,4.84,1.93,6.88c3.06,5.61,6.32,11.12,9.81,16.47c7.73,11.87,16.59,22.9,26.41,33.07
	c11.52,11.93,24.06,22.73,38.34,31.33C268.33,455.32,274.27,458.61,280.8,462.37z M179.29,318.08c-3.64,2.65-6.6,4.78-9.53,6.93
	c-9.99,7.32-20,14.62-29.96,21.97c-9.43,6.95-18.78,14.01-28.25,20.91c-1.91,1.39-2.76,2.86-2.49,5.21
	c0.43,3.79,0.64,7.61,0.97,11.42c0.77,9.11,1.53,18.22,2.36,27.32c0.15,1.68,0.63,3.33,0.95,5c1.57-0.76,3.29-1.31,4.7-2.3
	c10.47-7.35,20.85-14.83,31.31-22.2c10.94-7.7,21.97-15.29,32.86-23.06c0.95-0.68,1.63-2.34,1.66-3.56c0.05-2.04-0.65-4.08-0.8-6.14
	c-0.87-11.43-1.63-22.87-2.52-34.31C180.36,323.08,179.8,320.94,179.29,318.08z M176.16,273.3c0.07-0.01,0.13-0.02,0.2-0.03
	c-0.41-2.79-0.76-5.59-1.29-8.35c-0.13-0.68-0.81-1.64-1.4-1.78c-3.87-0.93-7.75-1.87-11.68-2.43c-4.52-0.64-9.08-1.13-13.64-1.23
	c-5.04-0.11-10.1,0.19-15.14,0.56c-1.49,0.11-3.06,0.87-4.34,1.72c-8.09,5.38-16.08,10.92-24.17,16.29
	c-2.08,1.38-2.74,3.02-2.53,5.44c1.18,13.16,2.27,26.33,3.35,39.5c0.27,3.26,0.51,3.42,3.26,1.66c0.28-0.18,0.57-0.35,0.84-0.54
	c12.34-8.31,24.68-16.62,37.02-24.94c9.16-6.17,18.31-12.36,27.5-18.48c1.55-1.04,2.36-2.21,2.05-4.14
	C176.02,275.49,176.16,274.39,176.16,273.3z M284.18,435.03c-0.38,0.04-0.76,0.08-1.13,0.13c-0.06,0.68-0.21,1.37-0.16,2.05
	c0.33,4.38,0.83,8.75,1.02,13.13c0.19,4.49,0,9,0.14,13.49c0.06,2.07-0.75,3.34-2.38,4.53c-8.11,5.94-16.15,11.98-24.18,18.03
	c-7.97,6-15.91,12.06-23.87,18.08c-7.69,5.81-15.4,11.6-23.08,17.42c-1.27,0.96-1.64,1.99,0.28,2.68c3.99,1.43,7.92,3.06,12,4.17
	c1.45,0.4,3.55-0.02,4.83-0.85c4.04-2.62,7.85-5.58,11.71-8.46c15.74-11.7,31.47-23.43,47.22-35.13c4.85-3.6,9.8-7.08,14.63-10.72
	c0.92-0.7,2.16-1.9,2.11-2.81c-0.24-4.71-0.85-9.41-1.35-14.11c-0.01-0.1-0.25-0.18-0.57-0.39c-0.48,0.27-1.07,0.53-1.59,0.9
	c-2.84,2.02-5.67,4.06-8.49,6.12c-2.06,1.5-4.01,1.13-4.94-1.13c-0.49-1.19-0.81-2.52-0.84-3.8c-0.15-5.39-0.05-10.79-0.27-16.18
	C285.18,439.79,284.56,437.41,284.18,435.03z M94.42,362.07c4.4,1.88,8.23,3.57,12.12,5.1c0.6,0.23,1.66-0.14,2.26-0.57
	c5.87-4.22,11.69-8.51,17.52-12.79c8.84-6.5,17.67-13.01,26.5-19.53c7.29-5.38,14.57-10.76,21.84-16.17
	c1.6-1.19,1.58-2.24-0.07-2.92c-2.22-0.92-4.45-1.86-6.76-2.48c-1.7-0.46-3.33-1.51-5.34-0.05c-10.08,7.34-20.3,14.48-30.44,21.74
	c-11.63,8.32-23.22,16.67-34.81,25.04C96.29,360.12,95.52,361.03,94.42,362.07z M109.27,415.13c0.21-0.1,0.42-0.2,0.64-0.3
	c0-0.97,0.07-1.96-0.01-2.92c-0.47-5.46-1.03-10.9-1.46-16.36c-0.53-6.79-0.98-13.59-1.41-20.39c-0.24-3.75-1.97-6.23-5.64-7.32
	c-1.67-0.49-3.27-1.23-4.94-1.68c-1.36-0.37-2.79-0.49-4.2-0.73c0.04,1.54,0.07,3.08,0.12,4.63c0.01,0.16,0.11,0.31,0.16,0.47
	c1.35,4.53,2.76,9.04,4.04,13.58c2.8,9.93,6.49,19.51,11.03,28.77C108,413.71,108.71,414.39,109.27,415.13z M99.09,284.8
	c-0.25-0.01-0.49-0.02-0.74-0.03c-0.28,0.38-0.59,0.74-0.82,1.15c-6.35,11.23-8.48,23.59-9.43,36.22c-0.06,0.8,0.95,2.12,1.77,2.48
	c3.1,1.37,6.34,2.42,9.52,3.64c3.03,1.16,3.56,0.85,3.34-2.39c-0.8-11.51-1.62-23.02-2.52-34.53
	C100.03,289.14,99.47,286.98,99.09,284.8z M289.76,460.36c4.08-2.91,7.53-5.3,10.88-7.83c0.55-0.42,0.9-1.44,0.9-2.18
	c0-2.49-0.11-4.98-0.37-7.46c-0.07-0.71-0.6-1.73-1.19-1.98c-3.34-1.42-6.73-2.75-10.17-3.9c-1.55-0.52-2.27,0.27-2.04,2.02
	c0.37,2.79,0.54,5.61,0.8,8.41C288.94,451.49,289.31,455.51,289.76,460.36z"/>
<path d="M187.85,231.56c0.09,3.06-3.01,5.36-6.26,4.63c-4.02-0.9-7.34-5.29-7.13-9.41c0.18-3.57,2.95-5.24,6.41-4.32
	C184.15,223.33,187.41,228.76,187.85,231.56z M185.04,230.97c-0.48-2.34-2.05-4.29-4.42-5.54c-0.68-0.36-2.07-0.49-2.42-0.09
	c-0.61,0.68-1.2,2.18-0.85,2.78c1.14,1.95,2.5,3.88,4.17,5.38C182.98,234.81,185.01,233.43,185.04,230.97z"/>
<path class="st4" d="M276.51,150.64c-9.21-0.21-17.38-1.18-25.24-3.71c-5.45-1.75-10.44-4.39-14.57-8.71
	c-5.5-5.75-4.52-15.37,0.59-20.88c6.02-6.5,13.62-10.28,22.01-12.52c5.9-1.58,11.86-3.36,17.9-3.93c6.3-0.59,12.72,0.04,19.08,0.35
	c6.76,0.33,12.97,2.65,18.88,5.82c3.39,1.82,6.41,4.05,8.71,7.29c3.13,4.41,3,8.8,0.62,13.35c-2.78,5.32-7.11,9.23-12.03,12.42
	C301.27,147.39,288.76,150.25,276.51,150.64z M282.05,116.07c1.29,0,2.88-0.1,4.45,0.02c3.49,0.28,6.67,1.5,9.23,3.89
	c1.59,1.48,3.12,3.38,1.9,5.7c-0.86,1.64-2.1,3.27-3.58,4.35c-4.64,3.39-10.14,4.23-15.72,4.79c-0.76,0.08-1.44,0.94-2.16,1.44
	c0.78,0.42,1.58,1.23,2.32,1.18c2.22-0.15,4.44-0.54,6.62-1.01c4.83-1.06,9.53-2.52,12.93-6.42c1.84-2.12,3.17-4.67,2.25-7.53
	c-1.01-3.12-3.18-5.65-6.31-6.67c-3.58-1.16-7.34-2.21-11.06-2.42c-7.75-0.42-14.96,1.56-21.13,6.54c-3.07,2.47-4.22,7.04-2.44,9.77
	c0.35,0.53,1.1,0.81,1.66,1.2c0.21-0.64,0.73-1.36,0.57-1.9c-1.15-4.01,0.75-6.57,3.91-8.52
	C270.48,117.39,275.83,115.62,282.05,116.07z M282.93,123.19c-0.25-0.37-0.47-0.87-0.59-0.85c-0.85,0.15-1.85,0.19-2.5,0.67
	c-4.07,2.99-8.1,6.04-12.06,9.18c-0.55,0.44-0.66,1.43-0.97,2.17c0.79-0.07,1.79,0.13,2.35-0.27c4.24-3.03,8.41-6.17,12.57-9.32
	C282.22,124.41,282.51,123.76,282.93,123.19z"/>
<path class="st2" d="M185.04,230.97c-0.03,2.46-2.06,3.84-3.52,2.53c-1.67-1.5-3.03-3.43-4.17-5.38c-0.35-0.6,0.24-2.1,0.85-2.78
	c0.35-0.4,1.75-0.27,2.42,0.09C182.99,226.68,184.56,228.63,185.04,230.97z"/>
<path class="st3" d="M282.05,116.07c-6.22-0.45-11.57,1.33-16.54,4.4c-3.16,1.95-5.06,4.51-3.91,8.52c0.15,0.53-0.37,1.26-0.57,1.9
	c-0.57-0.39-1.32-0.66-1.66-1.2c-1.78-2.73-0.62-7.29,2.44-9.77c6.17-4.98,13.39-6.96,21.13-6.54c3.73,0.2,7.48,1.26,11.06,2.42
	c3.13,1.02,5.3,3.55,6.31,6.67c0.92,2.85-0.41,5.41-2.25,7.53c-3.39,3.9-8.09,5.36-12.93,6.42c-2.18,0.48-4.4,0.86-6.62,1.01
	c-0.74,0.05-1.55-0.76-2.32-1.18c0.72-0.5,1.4-1.36,2.16-1.44c5.57-0.56,11.07-1.4,15.72-4.79c1.48-1.08,2.72-2.71,3.58-4.35
	c1.21-2.32-0.32-4.22-1.9-5.7c-2.56-2.39-5.74-3.61-9.23-3.89C284.94,115.96,283.35,116.07,282.05,116.07z"/>
<path d="M282.93,123.19c-0.42,0.57-0.71,1.22-1.2,1.59c-4.16,3.15-8.33,6.28-12.57,9.32c-0.56,0.4-1.56,0.19-2.35,0.27
	c0.31-0.74,0.42-1.74,0.97-2.17c3.96-3.14,7.99-6.19,12.06-9.18c0.65-0.48,1.65-0.52,2.5-0.67
	C282.46,122.32,282.68,122.82,282.93,123.19z"/>
<path d="M242.44,323.48c0.07,5.63-1.68,10.48-7.55,12.28c-2.64,0.81-5.91,0.94-8.54,0.18c-7.67-2.22-13.15-7.51-17.35-14.14
	c-3.17-5.01-4.72-10.5-4.61-16.48c0.16-8.58,7.71-14.08,15.95-11.67c8.38,2.44,14.1,7.78,18.23,15.35
	C241.07,313.57,242.68,318.2,242.44,323.48z M217.64,295.61c-6.32,0.02-10.05,3.92-10.59,9.11c-1.1,10.71,7.64,23.94,17.96,28.11
	c3.89,1.57,8.19,2,11.58-0.91c3.26-2.8,4.25-6.83,3.56-11.13c-1.02-6.32-3.82-11.84-8.02-16.6
	C227.9,299.37,222.73,296.11,217.64,295.61z"/>
<path d="M217.64,295.61c5.09,0.51,10.26,3.76,14.5,8.58c4.19,4.76,6.99,10.27,8.02,16.6c0.69,4.3-0.3,8.34-3.56,11.13
	c-3.4,2.91-7.69,2.48-11.58,0.91c-10.32-4.17-19.06-17.4-17.96-28.11C207.59,299.52,211.32,295.63,217.64,295.61z"/>
</svg>
