<?xml version="1.0" encoding="utf-8"?>
<!-- Generator: Adobe Illustrator 20.0.0, SVG Export Plug-In . SVG Version: 6.00 Build 0)  -->
<svg version="1.1" id="Layer_1" xmlns="http://www.w3.org/2000/svg" xmlns:xlink="http://www.w3.org/1999/xlink" x="0px" y="0px"
	 viewBox="0 0 1276.2 2098.2" style="enable-background:new 0 0 1276.2 2098.2;" xml:space="preserve">
<g>
	<path d="M1262.4,13.7c-8.4-8.4-20.1-13.7-33-13.7H46.8C33.9,0,22.1,5.4,13.7,13.8C5.3,22.2,0,33.9,0,46.8v2004.6
		c0,12.9,5.4,24.5,13.8,32.9c8.4,8.4,20.1,13.7,33,13.7h1182.6c12.8,0,24.6-5.3,33-13.7s13.7-20.1,13.7-33V46.7
		C1276.1,33.9,1270.8,22.1,1262.4,13.7z M1262,2051.4c0,8.9-3.7,17.1-9.6,23c-5.9,5.9-14,9.6-23,9.6H46.8c-8.9,0-17.1-3.7-23-9.6
		c-5.9-5.9-9.6-14-9.6-23V46.8c0-8.9,3.7-17.1,9.6-23c5.9-5.9,14-9.6,23-9.6h1182.6c8.9,0,17.1,3.6,23,9.6c5.9,5.9,9.6,14,9.6,23
		V2051.4z"/>
	<path d="M911.1,125.9H373.9c-20.7,0-39.5,8.5-53.2,22.2c-13.6,13.6-22.1,32.5-22.1,53.2V1867c0,20.7,8.4,39.5,22.1,53.2
		c13.6,13.6,32.5,22.1,53.2,22.1h537.2c20.7,0,39.5-8.4,53.2-22.1c13.6-13.6,22.1-32.5,22.1-53.2V201.2c0-20.7-8.4-39.5-22.1-53.2
		C950.7,134.4,931.8,125.9,911.1,125.9z M979.4,1867c0,18.8-7.7,35.8-20.1,48.2s-29.4,20.1-48.2,20.1H373.9
		c-18.8,0-35.8-7.7-48.2-20.1c-12.4-12.4-20.1-29.4-20.1-48.2V201.3c0-18.8,7.7-35.8,20.1-48.2s29.4-20.1,48.2-20.1h537.2
		c18.8,0,35.8,7.7,48.2,20.1s20.1,29.4,20.1,48.2V1867z"/>
	<path d="M911.1,150.7H373.9c-13.9,0-26.5,5.7-35.7,14.9c-9.1,9.2-14.8,21.8-14.8,35.7V1867c0,13.9,5.6,26.5,14.8,35.7
		c9.2,9.1,21.8,14.8,35.7,14.8h537.2c13.9,0,26.5-5.6,35.7-14.8c9.1-9.2,14.8-21.8,14.8-35.7V201.2c0-13.9-5.6-26.5-14.8-35.7
		C937.6,156.4,925,150.7,911.1,150.7z M337.5,1483.8v-435.4H639v435.4H337.5z M646.1,1048.4h301.4v435.4H646.1V1048.4z
		 M646.1,1041.3V596.5h301.4v444.8H646.1z M639,1041.3H337.5V596.5H639V1041.3z M936.8,1892.7c-6.6,6.6-15.7,10.7-25.7,10.7H373.9
		c-10,0-19.1-4.1-25.7-10.7c-6.6-6.6-10.7-15.7-10.7-25.7v-376.1h610V1867C947.5,1877,943.4,1886.1,936.8,1892.7z M947.5,589.4
		H646.1v-0.6H639v0.6H337.5V201.3c0-10,4.1-19.1,10.7-25.7c6.6-6.6,15.7-10.7,25.7-10.7h537.2c10,0,19.1,4.1,25.7,10.7
		c6.6,6.6,10.7,15.7,10.7,25.7V589.4z"/>
	<path d="M641.7,287.1c-4.7,0-8.5,3.8-8.5,8.5V434c0,4.7,3.8,8.5,8.5,8.5s8.5-3.8,8.5-8.5V295.6
		C650.2,290.9,646.4,287.1,641.7,287.1z"/>
	<path d="M642.5,1617.1c-26.1,0-49.8,10.6-66.9,27.7s-27.7,40.8-27.7,66.9s10.6,49.8,27.7,66.9c17.1,17.1,40.8,27.7,66.9,27.7
		c26.1,0,49.8-10.6,66.9-27.7c17.1-17.1,27.7-40.8,27.7-66.9s-10.6-49.8-27.7-66.9S668.6,1617.1,642.5,1617.1z M697.4,1766.6
		c-14.1,14-33.5,22.7-54.9,22.7s-40.9-8.7-54.9-22.7c-14-14.1-22.7-33.5-22.7-54.9s8.7-40.9,22.7-54.9c14.1-14,33.5-22.7,54.9-22.7
		s40.9,8.7,54.9,22.7c14,14.1,22.7,33.5,22.7,54.9C720.1,1733.1,711.4,1752.6,697.4,1766.6z"/>
	<path d="M468.4,823.9c4.7,4.6,11.2,7.4,18.3,7.4s13.6-2.8,18.3-7.4c4.8-4.7,7.7-11,7.7-18.1c0-7.1-3-13.5-7.7-18.1
		c-4.7-4.6-11.2-7.4-18.3-7.4c-7.2,0-13.6,2.9-18.3,7.4c-4.8,4.7-7.7,11-7.7,18.1C460.7,812.9,463.7,819.3,468.4,823.9z
		 M474.3,793.9c3.1-3.1,7.6-5,12.4-5s9.2,1.9,12.4,5c3.1,3,5.1,7.3,5.1,12s-2,8.9-5.1,12c-3.1,3.1-7.6,5-12.4,5s-9.2-1.9-12.4-5
		s-5.1-7.3-5.1-12S471.2,797,474.3,793.9z"/>
	<path d="M406.2,809.4h38c2.4,0,4.3-1.9,4.3-4.3c0-2.4-2-4.3-4.3-4.3h-38c-2.4,0-4.3,1.9-4.3,4.3
		C401.9,807.5,403.9,809.4,406.2,809.4z"/>
	<path d="M453.3,831.7l-26.9,26.2c-1.7,1.6-1.7,4.3-0.1,6c1.6,1.7,4.3,1.7,6,0.1l26.9-26.2c1.7-1.6,1.7-4.3,0.1-6
		C457.7,830.1,455,830.1,453.3,831.7z"/>
	<path d="M486,843c-2.4,0-4.3,2-4.3,4.3v37.1c0,2.4,1.9,4.3,4.3,4.3c2.4,0,4.3-2,4.3-4.3v-37.1C490.3,844.9,488.4,843,486,843z"/>
	<path d="M519.2,832.6c-1.7-1.6-4.4-1.6-6,0.1c-1.6,1.7-1.6,4.4,0.1,6l26.9,26.2c1.7,1.6,4.4,1.6,6-0.1c1.6-1.7,1.6-4.4-0.1-6
		L519.2,832.6z"/>
	<path d="M524.9,806.5c0,2.4,2,4.3,4.3,4.3h38c2.4,0,4.3-2,4.3-4.3c0-2.4-2-4.3-4.3-4.3h-38C526.8,802.2,524.9,804.2,524.9,806.5z"
		/>
	<path d="M520.2,780l26.8-26.2c1.7-1.6,1.7-4.3,0.1-6s-4.3-1.7-6-0.1l-26.8,26.2c-1.7,1.6-1.7,4.3-0.1,6S518.5,781.6,520.2,780z"/>
	<path d="M487.4,768.6c2.4,0,4.3-2,4.3-4.3v-37.1c0-2.4-2-4.3-4.3-4.3c-2.4,0-4.3,2-4.3,4.3v37.1
		C483.1,766.7,485.1,768.6,487.4,768.6z"/>
	<path d="M454.2,779c1.7,1.6,4.4,1.6,6-0.1c1.6-1.7,1.6-4.4-0.1-6l-26.9-26.2c-1.7-1.6-4.4-1.6-6,0.1c-1.6,1.7-1.6,4.4,0.1,6
		L454.2,779z"/>
	<path d="M497.9,1242.1c-2.9-2.8-6.8-4.6-11.2-4.6s-8.3,1.7-11.2,4.6c-2.8,2.9-4.6,6.8-4.6,11.2s1.7,8.3,4.6,11.2
		c2.9,2.8,6.8,4.6,11.2,4.6s8.3-1.7,11.2-4.6c2.8-2.9,4.6-6.8,4.6-11.2S500.8,1245,497.9,1242.1z M493.9,1260.5
		c-1.9,1.9-4.4,3-7.2,3c-2.8,0-5.4-1.2-7.2-3c-1.9-1.9-3-4.4-3-7.2c0-2.8,1.2-5.4,3-7.2c1.9-1.9,4.4-3,7.2-3s5.4,1.2,7.2,3
		c1.8,1.9,3,4.4,3,7.2S495.7,1258.7,493.9,1260.5z"/>
	<path d="M464.1,1252.9c0-1.5-1.2-2.8-2.8-2.8h-22.7c-1.5,0-2.8,1.3-2.8,2.8s1.2,2.8,2.8,2.8h22.7
		C462.8,1255.7,464.1,1254.4,464.1,1252.9z"/>
	<path d="M466.5,1268.9l-16.1,16.1c-1.1,1.1-1.1,2.9,0,4c1.1,1.1,2.9,1.1,4,0l16.1-16.1c1.1-1.1,1.1-2.9,0-4
		C469.4,1267.8,467.6,1267.8,466.5,1268.9z"/>
	<path d="M486.3,1275.9c-1.5,0-2.8,1.2-2.8,2.8v22.7c0,1.5,1.3,2.8,2.8,2.8s2.8-1.2,2.8-2.8v-22.7
		C489.1,1277.2,487.8,1275.9,486.3,1275.9z"/>
	<path d="M506.3,1269.5c-1.1-1.1-2.9-1.1-4,0c-1.1,1.1-1.1,2.9,0,4l16.1,16.1c1.1,1.1,2.9,1.1,4,0s1.1-2.9,0-4L506.3,1269.5z"/>
	<path d="M534.8,1250.9h-22.7c-1.5,0-2.8,1.2-2.8,2.8c0,1.5,1.2,2.8,2.8,2.8h22.7c1.5,0,2.8-1.2,2.8-2.8
		C537.6,1252.2,536.4,1250.9,534.8,1250.9z"/>
	<path d="M506.9,1237.7l16.1-16.1c1.1-1.1,1.1-2.9,0-4s-2.9-1.1-4,0l-16.1,16.1c-1.1,1.1-1.1,2.9,0,4
		C504,1238.8,505.8,1238.8,506.9,1237.7z"/>
	<path d="M487.1,1230.7c1.5,0,2.8-1.2,2.8-2.8v-22.7c0-1.5-1.2-2.8-2.8-2.8c-1.5,0-2.8,1.2-2.8,2.8v22.7
		C484.3,1229.4,485.5,1230.7,487.1,1230.7z"/>
	<path d="M467.1,1237.1c1.1,1.1,2.9,1.1,4,0c1.1-1.1,1.1-2.9,0-4L455,1217c-1.1-1.1-2.9-1.1-4,0c-1.1,1.1-1.1,2.9,0,4L467.1,1237.1z
		"/>
	<path d="M894.9,1000.3h3.9v4.1c-0.3,0.3-0.8,0.6-1.4,0.8s-1.5,0.3-2.5,0.3c-1.5,0-2.6-0.5-3.5-1.6c-0.9-1-1.3-2.4-1.3-4.1v-4.7
		c0-1.7,0.5-3.1,1.3-4.1c0.8-1.1,1.9-1.6,3.3-1.6c1.2,0,2.2,0.3,2.9,1c0.6,0.7,1,1.6,1.1,2.8h4.2v-0.1c0-2.1-0.8-3.9-2.2-5.2
		s-3.5-2-6.2-2c-2.6,0-4.7,0.8-6.4,2.5c-1.7,1.7-2.5,3.9-2.5,6.6v4.6c0,2.7,0.9,4.9,2.6,6.6c1.8,1.7,4,2.5,6.7,2.5
		c2.1,0,3.9-0.3,5.3-1c1.4-0.6,2.4-1.4,3.1-2.3l0-8.2h-8.4V1000.3z"/>
	<path d="M849.2,986.3h-4.5l-9.2,14.7l0.2,2.7h9.1v4.8h4.4v-4.8h2.5v-3.4h-2.5V986.3z M844.8,1000.3h-5.1l4.6-7.4l0.4-0.6h0.1
		V1000.3z"/>
	<path d="M799.6,996.8c1.1-0.5,1.9-1.1,2.5-2c0.6-0.9,0.9-1.8,0.9-2.8c0-2-0.7-3.6-2.1-4.7c-1.4-1.1-3.2-1.6-5.5-1.6
		c-2.1,0-3.8,0.6-5.2,1.7s-2.1,2.6-2,4.3v0.1h4.3c0-0.8,0.3-1.4,0.9-1.9s1.3-0.7,2.1-0.7c1,0,1.7,0.3,2.2,0.8s0.8,1.2,0.8,2.1
		c0,1-0.3,1.7-0.8,2.3c-0.6,0.5-1.3,0.8-2.4,0.8h-2.5v0h0.1v3.4h2.5c1.2,0,2,0.3,2.6,0.8c0.6,0.6,0.9,1.4,0.9,2.6
		c0,1-0.3,1.7-0.9,2.3c-0.6,0.5-1.4,0.8-2.4,0.8c-0.9,0-1.7-0.2-2.3-0.8c-0.6-0.5-0.9-1.3-0.9-2.1h-4.3v0.1c-0.1,2,0.6,3.5,2.1,4.6
		s3.2,1.6,5.3,1.6c2.3,0,4.2-0.5,5.7-1.7c1.5-1.2,2.2-2.8,2.2-4.8c0-1.2-0.4-2.3-1-3.2C801.8,997.9,800.8,997.2,799.6,996.8z"/>
	<path d="M744.3,1005.2l4-4.3c1.7-1.9,3-3.4,3.7-4.5c0.7-1.1,1.1-2.4,1.1-3.7c0-2-0.7-3.6-2-4.8c-1.3-1.2-3.1-1.8-5.4-1.8
		s-4.1,0.7-5.5,2.1c-1.4,1.4-2.1,3.1-2,5.1v0.1h4.3c0-1.2,0.3-2.1,0.8-2.8s1.3-1,2.3-1c0.9,0,1.6,0.3,2.1,0.9s0.8,1.4,0.8,2.3
		c0,0.7-0.3,1.5-0.7,2.3s-1.2,1.8-2.2,3l-7.2,7.7v2.9h15.2l0-3.4h-9.3V1005.2z"/>
	<polygon points="688.9,990.6 693.4,990.6 693.4,1008.8 697.9,1008.8 697.9,986.6 688.9,987.4 	"/>
	<path d="M696.4,953.6c-5.9,0-10.7,4.8-10.7,10.7c0,5.9,4.8,10.7,10.7,10.7c6,0,10.7-4.8,10.7-10.7
		C707.1,958.4,702.3,953.6,696.4,953.6z M696.4,973.6c-5.1,0-9.3-4.2-9.3-9.3c0-5.1,4.2-9.3,9.3-9.3c5.2,0,9.4,4.1,9.3,9.3
		C705.7,969.4,701.5,973.6,696.4,973.6z"/>
	<path d="M746.1,953.6c-5.9,0-10.7,4.8-10.7,10.7c0,5.9,4.8,10.7,10.7,10.7s10.7-4.8,10.7-10.7C756.8,958.4,752,953.6,746.1,953.6z
		 M746.1,973.6c-5.1,0-9.3-4.2-9.3-9.3c0-5.1,4.2-9.3,9.3-9.3c5.1,0,9.3,4.1,9.3,9.3C755.4,969.4,751.2,973.6,746.1,973.6z"/>
	<path d="M795.7,955.3c-5.9,0-10.7,4.8-10.7,10.7s4.8,10.7,10.7,10.7c5.9,0,10.7-4.8,10.7-10.7S801.6,955.3,795.7,955.3z
		 M795.7,975.3c-5.1,0-9.3-4.2-9.3-9.3s4.2-9.3,9.3-9.3s9.3,4.2,9.3,9.3S800.8,975.3,795.7,975.3z"/>
	<path d="M845.3,955.3c-5.9,0-10.7,4.8-10.7,10.7s4.8,10.7,10.7,10.7c6,0,10.7-4.8,10.7-10.7S851.2,955.3,845.3,955.3z M845.3,975.3
		c-5.1,0-9.3-4.2-9.3-9.3s4.2-9.3,9.3-9.3c5.2,0,9.3,4.2,9.3,9.3S850.4,975.3,845.3,975.3z"/>
	<path d="M895,976.7c5.9,0,10.7-4.8,10.7-10.7s-4.8-10.7-10.7-10.7s-10.7,4.8-10.7,10.7S889.1,976.7,895,976.7z M895,956.7
		c5.1,0,9.3,4.2,9.3,9.3s-4.2,9.3-9.3,9.3s-9.3-4.2-9.3-9.3S889.9,956.7,895,956.7z"/>
	<path d="M823.1,854.4h-41.5c-3.1,0-5.7,2.5-5.7,5.7c0,9.6,7.8,17.4,17.4,17.4h18.2c9.6,0,17.4-7.7,17.3-17.4
		C828.8,857,826.3,854.4,823.1,854.4z M811.5,871.9h-18.2c-6.4,0-11.7-5.3-11.6-11.8h41.4c0.1,0,0.1,0.1,0.1,0.1
		C823.2,866.7,818,871.9,811.5,871.9z"/>
	<path d="M853.6,779.5c0-28.2-23-51.2-51.2-51.2s-51.2,23-51.2,51.2c0,13.3,5.6,23,11.6,33.2c6.1,10.4,12.4,21.2,13.1,37l0.1,2.7
		h52.8l0.1-2.7c0.7-15.8,7-26.6,13.1-37C848,802.5,853.6,792.8,853.6,779.5z M781.4,846.8c-1.3-15.8-7.9-27-13.7-36.9
		c-5.5-9.5-10.8-18.5-10.8-30.3c0-25.1,20.4-45.5,45.5-45.5s45.5,20.4,45.5,45.5c0,11.8-5.2,20.8-10.8,30.3
		c-5.8,9.9-12.4,21.1-13.7,36.9H781.4z"/>
	<path d="M779,1281.8h-22.3c-0.9,0-1.6,0.3-2.2,0.9c-0.5,0.6-0.9,1.3-0.9,2.2c0,2.6,1.1,4.9,2.8,6.6c1.7,1.7,4,2.8,6.6,2.8h9.8
		c2.6,0,4.9-1.1,6.5-2.8c1.7-1.7,2.8-4,2.8-6.6c0-0.9-0.3-1.6-0.9-2.2C780.6,1282.2,779.9,1281.8,779,1281.8z M777.2,1289.4
		c-1.1,1.1-2.7,1.8-4.4,1.8H763c-1.7,0-3.3-0.7-4.5-1.8c-1.1-1.1-1.8-2.7-1.8-4.4H779C779,1286.7,778.3,1288.3,777.2,1289.4z"/>
	<path d="M767.9,1213.9c-7.6,0-14.5,3.1-19.5,8.1s-8.1,11.9-8.1,19.5c0,7.2,3.1,12.4,6.3,17.9s6.6,11.4,7,19.9l0.1,1.5h28.4l0.1-1.5
		c0.3-8.5,3.8-14.4,7-19.9c3.3-5.5,6.3-10.6,6.3-17.8c0-7.6-3.1-14.5-8.1-19.5S775.5,1214,767.9,1213.9z M786.4,1257.9
		c-3.3,5.5-6.7,11.3-7.4,19.8h-22.5c-0.8-8.4-4.2-14.3-7.4-19.8c-3-5.1-5.8-10-5.8-16.3c0-6.8,2.8-12.9,7.2-17.3
		c4.4-4.5,10.5-7.2,17.3-7.2s12.9,2.8,17.3,7.2c4.5,4.4,7.2,10.5,7.2,17.3C792.3,1247.9,789.5,1252.7,786.4,1257.9z"/>
	<path d="M846.5,1281.8h-22.3c-0.9,0-1.6,0.3-2.2,0.9c-0.5,0.6-0.9,1.3-0.9,2.2c0,2.6,1.1,4.9,2.8,6.6c1.7,1.7,4,2.8,6.6,2.8h9.8
		c2.6,0,4.9-1.1,6.5-2.8c1.7-1.7,2.8-4,2.8-6.6c0-0.9-0.3-1.6-0.9-2.2C848.1,1282.2,847.4,1281.8,846.5,1281.8z M844.7,1289.4
		c-1.1,1.1-2.7,1.8-4.4,1.8h-9.8c-1.7,0-3.3-0.7-4.5-1.8c-1.1-1.1-1.8-2.7-1.8-4.4h22.3C846.5,1286.7,845.8,1288.3,844.7,1289.4z"/>
	<path d="M854.9,1222.1c-5-5-11.9-8.1-19.5-8.2c-7.6,0-14.5,3.1-19.5,8.1s-8.1,11.9-8.1,19.5c0,7.2,3.1,12.4,6.3,17.9
		s6.6,11.4,7,19.9l0.1,1.5h28.4l0.1-1.5c0.3-8.5,3.8-14.4,7-19.9c3.3-5.5,6.3-10.6,6.3-17.8C863,1234,859.9,1227.1,854.9,1222.1z
		 M853.9,1257.9c-3.3,5.5-6.7,11.3-7.4,19.8H824c-0.8-8.4-4.2-14.3-7.4-19.8c-3-5.1-5.8-10-5.8-16.3c0-6.8,2.8-12.9,7.2-17.3
		c4.4-4.5,10.5-7.2,17.3-7.2s12.9,2.8,17.3,7.2c4.5,4.4,7.2,10.5,7.2,17.3C859.8,1247.9,857,1252.7,853.9,1257.9z"/>
</g>
<g>
	<path fill="none" d="M571.6,1640.8c9.2-9.2,20.3-16.7,32.6-21.8c11.8-4.9,24.8-7.6,38.3-7.6s26.5,2.7,38.3,7.6
		c12.3,5.1,23.4,12.5,32.6,21.8c9.2,9.2,16.7,20.3,21.8,32.6c4.9,11.8,7.6,24.8,7.6,38.3s-2.7,26.5-7.6,38.3
		c-5.1,12.3-12.5,23.4-21.8,32.6c-9.2,9.2-20.3,16.7-32.6,21.8c-11.8,4.9-24.8,7.6-38.3,7.6s-26.5-2.7-38.3-7.6
		c-12.3-5.1-23.4-12.5-32.6-21.8c-9.2-9.2-16.7-20.3-21.8-32.6c-4.9-11.8-7.6-24.8-7.6-38.3s2.7-26.5,7.6-38.3
		C554.9,1661.1,562.4,1650,571.6,1640.8 M693.4,1660.9c-6.7-6.7-14.6-12-23.3-15.6c-8.5-3.5-17.8-5.4-27.5-5.4
		c-9.8,0-19.1,1.9-27.5,5.4c-8.8,3.6-16.7,9-23.3,15.6c-6.7,6.7-12,14.6-15.6,23.3c-3.5,8.5-5.4,17.8-5.4,27.5
		c0,9.8,1.9,19.1,5.4,27.5c3.6,8.8,9,16.7,15.6,23.3c6.7,6.7,14.6,12,23.3,15.6c8.5,3.5,17.8,5.4,27.5,5.4c9.8,0,19.1-1.9,27.5-5.4
		c8.8-3.6,16.7-9,23.3-15.6c6.7-6.7,12-14.6,15.6-23.3c3.5-8.5,5.4-17.8,5.4-27.5c0-9.8-1.9-19.1-5.4-27.5
		C705.4,1675.4,700,1667.5,693.4,1660.9z M941.8,1496.5H343.2V1867c0,4.1,0.8,8.1,2.3,11.7c1.6,3.7,3.9,7.1,6.7,10
		c2.9,2.9,6.2,5.1,10,6.7c3.6,1.5,7.5,2.3,11.7,2.3h537.2c4.1,0,8.1-0.8,11.7-2.3c3.7-1.6,7.1-3.9,10-6.7c5.6-5.6,9-13.2,9-21.7
		L941.8,1496.5L941.8,1496.5z"/>
</g>
<g>
	<path fill="none" d="M446.9,1213c1.7-1.7,3.8-2.5,6-2.5s4.4,0.8,6,2.5l16.1,16.1c1.4,1.4,2.2,3.1,2.4,4.9c0.3-0.2,0.7-0.3,1-0.5
		c0.6-0.2,1.1-0.4,1.7-0.6c-1-1.4-1.6-3.1-1.6-4.9v-22.7c0-2.3,1-4.5,2.5-6l0,0c1.5-1.5,3.7-2.5,6-2.5s4.5,1,6,2.5l0,0
		c1.5,1.5,2.5,3.7,2.5,6v22.7c0,1.9-0.6,3.7-1.7,5.1c0.3,0.1,0.7,0.3,1,0.4c0.6,0.2,1.1,0.5,1.7,0.8c0.3-1.7,1.1-3.3,2.4-4.6
		l16.1-16.1c1.7-1.7,3.8-2.5,6-2.5s4.4,0.8,6,2.5c1.7,1.7,2.5,3.8,2.5,6s-0.8,4.4-2.5,6l-16.1,16.1c-1.4,1.4-3.1,2.2-4.9,2.4
		c0.2,0.3,0.3,0.7,0.5,1c0.2,0.6,0.4,1.1,0.6,1.7c1.4-1,3.1-1.6,4.9-1.6h22.7c2.3,0,4.5,1,6,2.5l0,0c1.5,1.5,2.5,3.7,2.5,6
		s-1,4.5-2.5,6s-3.7,2.5-6,2.5H512c-1.9,0-3.7-0.6-5.1-1.7c-0.1,0.3-0.3,0.7-0.4,1c-0.2,0.6-0.5,1.1-0.8,1.7
		c1.7,0.3,3.3,1.1,4.6,2.4l16.1,16.1c1.7,1.7,2.5,3.8,2.5,6s-0.8,4.4-2.5,6c-1.7,1.7-3.8,2.5-6,2.5s-4.4-0.8-6-2.5l-16.1-16.1
		c-1.4-1.4-2.2-3.1-2.4-4.9c-0.3,0.2-0.7,0.3-1,0.5c-0.5,0.2-1.1,0.4-1.7,0.6c1,1.4,1.6,3.1,1.6,4.9v22.7c0,2.3-1,4.5-2.5,6
		s-3.7,2.5-6,2.5s-4.5-1-6-2.5l0,0c-1.5-1.5-2.5-3.7-2.5-6v-22.7c0-1.9,0.7-3.7,1.7-5.1c-0.4-0.1-0.7-0.3-1-0.4
		c-0.6-0.2-1.1-0.5-1.7-0.8c-0.3,1.7-1.1,3.3-2.4,4.6l-16.1,16.1c-1.7,1.7-3.8,2.5-6,2.5s-4.4-0.8-6-2.5c-1.7-1.7-2.5-3.8-2.5-6
		s0.8-4.4,2.5-6l16.1-16.1c1.4-1.4,3.1-2.2,4.9-2.4c-0.2-0.3-0.3-0.7-0.5-1c-0.2-0.5-0.4-1.1-0.6-1.7c-1.4,1-3.1,1.6-4.9,1.6h-22.7
		c-2.3,0-4.5-1-6-2.5l0,0c-1.5-1.5-2.5-3.7-2.5-6s1-4.5,2.5-6l0,0c1.5-1.5,3.7-2.5,6-2.5h22.7c1.9,0,3.7,0.7,5.1,1.7
		c0.1-0.4,0.3-0.7,0.4-1c0.2-0.6,0.5-1.1,0.8-1.7c-1.7-0.3-3.3-1.1-4.6-2.4l-16.1-16.1c-1.7-1.7-2.5-3.8-2.5-6
		C444.5,1216.8,445.3,1214.7,446.9,1213 M489.9,1256.5c0.8-0.8,1.3-1.9,1.3-3.2c0-0.6-0.1-1.2-0.3-1.7c-0.2-0.5-0.6-1-1-1.4
		c-0.8-0.8-1.9-1.3-3.2-1.3c-0.6,0-1.2,0.1-1.7,0.3c-0.5,0.2-1,0.6-1.4,1c-0.8,0.8-1.3,1.9-1.3,3.2c0,0.6,0.1,1.2,0.3,1.7
		c0.2,0.5,0.6,1,1,1.4c0.8,0.8,1.9,1.3,3.2,1.3c0.6,0,1.2-0.1,1.7-0.3C488.9,1257.3,489.4,1256.9,489.9,1256.5z M633.3,1478.1V1054
		H343.2v424.1H633.3z"/>
</g>
<g>
	<path fill="none" d="M422.4,853.8l26.9-26.2c2-1.9,4.5-2.8,7-2.8s5.1,1,7,3s2.8,4.5,2.8,7s-1,5.1-3,7L436.2,868
		c-2,1.9-4.5,2.8-7,2.8s-5.1-1-7-3s-2.8-4.5-2.8-7C419.5,858.3,420.5,855.7,422.4,853.8 M444.2,795.3c2.7,0,5.2,1.1,7,2.9
		c1.8,1.8,2.9,4.3,2.9,7s-1.1,5.2-2.9,7l0,0c-1.8,1.8-4.3,2.9-7,2.9h-38c-2.7,0-5.2-1.1-7-2.9c-1.8-1.8-2.9-4.3-2.9-7s1.1-5.2,2.9-7
		l0,0c1.8-1.8,4.3-2.9,7-2.9H444.2z M423.2,742.9c1.9-2,4.4-3,7-3c2.5,0,5.1,0.9,7,2.8l26.9,26.2c2,1.9,3,4.4,3,7
		c0,2.5-0.9,5.1-2.8,7c-1.9,2-4.4,3-7,3c-2.5,0-5.1-0.9-7-2.8l-26.9-26.2c-2-1.9-3-4.4-3-7C420.3,747.4,421.3,744.9,423.2,742.9z
		 M486,837.4c2.7,0,5.2,1.1,7,2.9c1.8,1.8,2.9,4.3,2.9,7v37.1c0,2.7-1.1,5.2-2.9,7l0,0c-1.8,1.8-4.3,2.9-7,2.9s-5.2-1.1-7-2.9
		c-1.8-1.8-2.9-4.3-2.9-7v-37.1c0-2.7,1.1-5.2,2.9-7l0,0C480.8,838.5,483.3,837.4,486,837.4z M567.2,796.6c2.7,0,5.2,1.1,7,2.9
		c1.8,1.8,2.9,4.3,2.9,7s-1.1,5.2-2.9,7l0,0c-1.8,1.8-4.3,2.9-7,2.9h-38c-2.7,0-5.2-1.1-7-2.9c-1.8-1.8-2.9-4.3-2.9-7s1.1-5.2,2.9-7
		l0,0c1.8-1.8,4.3-2.9,7-2.9H567.2z M537.2,743.6c2-1.9,4.5-2.8,7-2.8s5.1,1,7,3s2.8,4.5,2.8,7s-1,5.1-3,7L524.1,784
		c-2,1.9-4.5,2.8-7,2.8s-5.1-1-7-3s-2.8-4.5-2.8-7s1-5.1,3-7L537.2,743.6z M477.4,727.2c0-2.7,1.1-5.2,2.9-7s4.3-2.9,7-2.9
		s5.2,1.1,7,2.9l0,0c1.8,1.8,2.9,4.3,2.9,7v37.1c0,2.7-1.1,5.2-2.9,7s-4.3,2.9-7,2.9s-5.2-1.1-7-2.9l0,0c-1.8-1.8-2.9-4.3-2.9-7
		V727.2z M343.2,1035.6h290.1V602.2H343.2V1035.6z M523.2,828.5l26.9,26.2c2,1.9,3,4.4,3,7c0,2.5-0.9,5.1-2.8,7c-1.9,2-4.4,3-7,3
		c-2.5,0-5.1-0.9-7-2.8l-26.9-26.2c-2-1.9-3-4.4-3-7c0-2.5,0.9-5.1,2.8-7c1.9-2,4.4-3,7-3C518.7,825.7,521.2,826.6,523.2,828.5z
		 M498.5,805.8c0-1.6-0.3-3-0.8-4.3c-0.6-1.4-1.4-2.6-2.5-3.6c-1.1-1.1-2.4-1.9-3.9-2.5c-1.4-0.6-3-0.9-4.6-0.9s-3.2,0.3-4.6,0.9
		c-1.5,0.6-2.8,1.4-3.9,2.5c-1.1,1-1.9,2.3-2.5,3.6c-0.5,1.3-0.8,2.7-0.8,4.3s0.3,3,0.8,4.3c0.6,1.4,1.4,2.6,2.5,3.6
		c1.1,1.1,2.4,1.9,3.9,2.5c1.4,0.6,3,0.9,4.6,0.9c1.7,0,3.2-0.3,4.6-0.9c1.5-0.6,2.8-1.4,3.9-2.5c1.1-1,1.9-2.3,2.5-3.6
		C498.2,808.8,498.5,807.4,498.5,805.8z M509,783.7c3,2.9,5.3,6.3,6.9,10.1c1.6,3.7,2.4,7.8,2.4,12s-0.9,8.3-2.4,12
		c-1.6,3.8-4,7.3-6.9,10.1c-2.9,2.9-6.4,5.1-10.2,6.7c-3.7,1.5-7.8,2.3-12,2.3s-8.3-0.8-12-2.3c-3.8-1.6-7.3-3.9-10.2-6.7
		c-3-2.9-5.3-6.3-6.9-10.1c-1.6-3.7-2.4-7.8-2.4-12s0.9-8.3,2.4-12c1.6-3.8,4-7.3,6.9-10.1c2.9-2.9,6.4-5.1,10.2-6.7
		c3.7-1.5,7.8-2.3,12-2.3s8.3,0.8,12,2.3C502.6,778.6,506,780.9,509,783.7z"/>
</g>
<g>
	<path fill="none" d="M627.6,295.6c0-3.9,1.6-7.5,4.2-10c2.6-2.6,6.1-4.2,10-4.2s7.5,1.6,10,4.2s4.2,6.1,4.2,10V434
		c0,3.9-1.6,7.5-4.2,10s-6.1,4.2-10,4.2s-7.5-1.6-10-4.2c-2.6-2.6-4.2-6.1-4.2-10V295.6z M343.2,583.7h290.1v-0.6h18.4v0.6h290.1
		V201.3c0-4.1-0.8-8.1-2.3-11.7c-1.6-3.7-3.9-7.1-6.7-10c-5.6-5.6-13.2-9-21.7-9H373.9c-4.1,0-8.1,0.8-11.7,2.3
		c-3.7,1.6-7.1,3.9-10,6.7c-5.6,5.6-9,13.2-9,21.7L343.2,583.7L343.2,583.7z"/>
</g>
<g>
	<circle fill="none" cx="696.4" cy="964.3" r="8.3"/>
</g>
<g>
	<circle fill="none" cx="746.1" cy="964.3" r="8.3"/>
</g>
<g>
	<circle fill="none" cx="795.7" cy="966" r="8.3"/>
</g>
<g>
	<circle fill="none" cx="845.3" cy="966" r="8.3"/>
</g>
<g>
	<circle fill="none" cx="895" cy="966" r="8.3"/>
</g>
</svg>
