<?xml version="1.0" encoding="utf-8"?>
<!-- Generator: Adobe Illustrator 21.1.0, SVG Export Plug-In . SVG Version: 6.00 Build 0)  -->
<svg version="1.1" id="Layer_1" xmlns="http://www.w3.org/2000/svg" xmlns:xlink="http://www.w3.org/1999/xlink" x="0px" y="0px"
	 viewBox="0 0 441.6 441.6" style="enable-background:new 0 0 441.6 441.6;" xml:space="preserve">
<style type="text/css">
	.st0{fill:#010101;}
	.st1{stroke:#000000;stroke-miterlimit:10;}
	.st2{fill:none;}
</style>
<g>
	<path class="st0" d="M346.9,441.6H94.7C42.5,441.6,0,399.1,0,346.9V94.7C0,42.5,42.5,0,94.7,0h252.1c52.2,0,94.7,42.5,94.7,94.7
		v252.1C441.6,399.1,399.1,441.6,346.9,441.6z M94.7,8C46.9,8,8,46.9,8,94.7v252.1c0,47.8,38.9,86.7,86.7,86.7h252.1
		c47.8,0,86.7-38.9,86.7-86.7V94.7c0-47.8-38.9-86.7-86.7-86.7H94.7z"/>
</g>
<g>
	<circle class="st0" cx="220.8" cy="348.6" r="3.5"/>
</g>
<g>
	<path class="st1" d="M257.1,141.8c7.2,2.6,11.9,11.5,6.3,17.3c-6,7.8,3.8,15.5,2.7,23.7c-1.2,6.7-5.3,13-5,19.9
		c1.3,5.1,3.3,10,4.9,15c1.4,9.3-6.2,17.5-4.6,26.7c3.2,8.6,7.7,18,1.3,26.6c-6.7,7.9,7.8,14.4,1.6,22c-2.9,2.5-4,8.4-9.7,6.4
		c-5.2-5,7.6-8,3.1-13.4c-5.5-6.5-2.9-15,0.3-21.9c2.4-7.2-3.5-13.7-3.6-20.8c-1.6-9.9,7.5-18.7,3.6-28.7
		c-5.1-8.8-4.3-19.1-0.3-28.2c5.2-9-7.6-16.9-2.6-25.7c0.4-3.4,5.3-7.1,2.2-10.2C253.6,148.6,251.7,143,257.1,141.8z"/>
	<path class="st1" d="M182.2,142.5c3.2-2,6.8,2,4.8,4.2c-1.1,2.9-6.2,3.9-4.2,7.7c5,6.4,5.1,14.6,0.8,21.4
		c-4.3,9.6,5.2,18.1,3.3,27.7c-1.1,8-7.4,16.5-2.9,24.4c2.8,7.2,4.2,15.2,1.3,22.5c-1.5,5.2-4.5,11.2-1,16.3c3.3,6,4,13.3-0.1,19.2
		c-3.8,4,3.3,6.7,4,10.6c-0.9,1.4-2.2,3.7-4.5,2.8c-2.9-2.9-7.2-5.3-7.4-9.5c-1.1-3.7,2-7.2,3.5-10.5c2.4-6.9-5.1-12.7-3.8-19.6
		c-0.8-7.8,6.5-14.5,3.8-22.3c-3.3-9.7-5.1-20.3-0.9-30.1c4.3-8.2-2.2-16.3-3.4-24.3c-0.1-5.4,2.3-10.4,4.3-15.5
		c2.2-5.9-5.4-10.4-4.2-16.3C177.1,147.9,179,144.7,182.2,142.5z"/>
	<path class="st1" d="M201.3,142.5c5.5-1.7,6.3,5.9,1.8,7.3c-4.1,1.5-0.9,5.9,0.4,8.3c3.7,5.9,1.5,12.8-1.5,18.5
		c-3.8,8.4,4.7,15.7,3.3,24.1c1.2,8.7-7,16.8-3.3,25.5c2.4,5.3,2.9,10.9,4,16.4c-0.8,6.7-5.4,12.9-4.8,19.8
		c2.1,5.2,5.4,10.5,4.6,16.2c-0.7,3.7-3.2,6.8-4.7,10.2c1,3.4,8.2,5.3,5,9.3c-2.8,4-7.4-1.2-9.1-3.7c-7.7-7.2,5.8-14.8,0.8-22.7
		c-5.8-8.6-3.2-18.5,1.1-27.1c-0.2-6.2-1.4-12.4-3.9-18.2c-2.5-7.2,0.9-14.3,3-21.2c3.3-9.8-6.5-18.1-3.6-28c0.9-4.8,5.2-9,4-14.1
		c-1.6-3.4-3.2-6.7-4.7-10.1C194.3,148.8,197.5,145.1,201.3,142.5z"/>
	<path class="st1" d="M236.2,142.4c6.4-0.4,11.3,6.4,10.7,11.3c-1.1,4.1-3.9,7.8-4.6,11.9c0.8,5,4.9,9.2,4.6,14.4
		c0.7,6.6-2.3,12.8-4.5,19c-0.1,7.1,4.2,13.7,4.5,20.9c1.6,10.2-8.4,19.7-2.4,29.8c4,7.7,3,16.6-1.2,24c-3.9,6.6,7.4,12,3.3,18.5
		c-2.5,2.8-4.4,8.1-9.5,7.2c-5.1-3.1,1.4-7.4,3.1-10.6c-1.9-5.1-5.7-9.9-4.2-15.6c1-4.4,4.5-8.2,4.2-12.8
		c-0.2-7.1-5.4-13.4-4.2-20.6c-0.6-8,6.3-15.5,3.6-23.5c-4.2-9.5-6-19.8-0.5-29.3c4.3-8.3-4.5-15.5-3.7-23.9
		c1.3-3.7,3.5-7.1,4.8-10.7C238.1,149.6,231.9,145.8,236.2,142.4z"/>
</g>
<line class="st2" x1="-5.7" y1="220.8" x2="441.6" y2="220.8"/>
</svg>
