<?xml version="1.0" encoding="utf-8"?>
<!-- Generator: Adobe Illustrator 21.0.0, SVG Export Plug-In . SVG Version: 6.00 Build 0)  -->
<svg version="1.1" id="Layer_1" xmlns="http://www.w3.org/2000/svg" xmlns:xlink="http://www.w3.org/1999/xlink" x="0px" y="0px"
	 viewBox="0 0 1417.3 593.5" style="enable-background:new 0 0 1417.3 593.5;" xml:space="preserve">
<style type="text/css">
	.st0{fill:#231F20;}
</style>
<path d="M681.8,233.4l18-1.7l4.1,43.8l27.9,53.2l-9.3-99.1l66.2-6.2c10.7,60.4,63.5,106.3,127,106.3c59.6,0,109.7-40.4,124.5-95.4
	l17.6,187.8l-264,24.7l9.3,17.7c2.3,4.3,4.3,8.8,6.2,13.2l608-56.9l-26.8-286.2l-724.9,67.8L681.8,233.4z M1341.2,171.7l20.8,222
	L1080.6,420l-20.8-222L1341.2,171.7z"/>
<g>
	<path class="st0" d="M712.9,511.9L460,29.8c-20.8-39.7-77.7-39.7-98.6,0L108.5,511.9c-19.4,37.1,7.4,81.5,49.3,81.5h252.9h0h252.9
		C705.4,593.5,732.3,549,712.9,511.9z M383.3,199.1c0-15.6,12.7-28.3,28.3-28.3l0,0c15.6,0,28.3,12.7,28.3,28.3v162.5
		c0,15.6-12.7,28.3-28.3,28.3l0,0c-15.6,0-28.3-12.7-28.3-28.3V199.1z M410.7,511c-22.6,0-40.8-18.3-40.8-40.8
		c0-22.6,18.3-40.8,40.8-40.8s40.8,18.3,40.8,40.8C451.5,492.7,433.2,511,410.7,511z"/>
</g>
</svg>
