<?xml version="1.0" encoding="utf-8"?>
<!-- Generator: Adobe Illustrator 21.0.0, SVG Export Plug-In . SVG Version: 6.00 Build 0)  -->
<svg version="1.1" id="Layer_1" xmlns="http://www.w3.org/2000/svg" xmlns:xlink="http://www.w3.org/1999/xlink" x="0px" y="0px"
	 viewBox="0 0 1417.3 775" style="enable-background:new 0 0 1417.3 775;" xml:space="preserve">
<g>
	<path d="M142.4,775c-9.8,0-19.5-4.6-25.6-13.2L26,634.4c-33.6-47.1-34.7-111.2-2.7-159.5l29.4-44.3c17.3-26.2,17.3-60,0-86.1
		l-29.4-44.3C-8.7,251.8-7.6,187.8,26,140.6l90.8-127.4c10.1-14.1,29.7-17.4,43.8-7.4c14.1,10.1,17.4,29.7,7.4,43.8L77.1,177.1
		c-18.6,26.1-19.2,61.6-1.5,88.3l29.4,44.3c31.3,47.2,31.3,108.3,0,155.5l-29.4,44.3c-17.7,26.7-17.1,62.2,1.5,88.3l90.8,127.4
		c10.1,14.1,6.8,33.7-7.4,43.8C155,773.1,148.7,775,142.4,775z"/>
</g>
<g>
	<path d="M313.4,676.2c-8.4,0-16.7-3.9-22-11.3l-55.2-77.5c-32.5-45.6-33.6-107.7-2.6-154.4c18.3-27.7,18.3-63.4,0-91.1
		c-30.9-46.7-29.9-108.8,2.7-154.4l55.2-77.5c8.6-12.1,25.4-14.9,37.6-6.3c12.1,8.6,14.9,25.4,6.3,37.6l-55.2,77.5
		c-19.7,27.6-20.3,65.1-1.6,93.4c30.3,45.7,30.3,104.8,0,150.5c-18.7,28.3-18.1,65.8,1.6,93.4l55.2,77.5c8.6,12.1,5.8,28.9-6.3,37.6
		C324.3,674.6,318.8,676.2,313.4,676.2z"/>
</g>
<g>
	<path d="M1275,775c-6.3,0-12.7-1.9-18.2-5.8c-14.1-10.1-17.4-29.7-7.4-43.8l90.8-127.4c18.6-26.1,19.2-61.6,1.5-88.3l-29.4-44.3
		c-31.3-47.2-31.3-108.3,0-155.5l29.4-44.4c17.7-26.7,17.1-62.2-1.5-88.3l-90.8-127.4c-10.1-14.1-6.8-33.7,7.4-43.8
		c14.1-10.1,33.7-6.8,43.8,7.4l90.8,127.4c33.6,47.1,34.7,111.2,2.8,159.5l-29.4,44.4c-17.3,26.2-17.3,60,0,86.1l29.4,44.3
		c31.9,48.3,30.8,112.4-2.7,159.5l-90.8,127.4C1294.4,770.4,1284.8,775,1275,775z"/>
</g>
<g>
	<path d="M1103.9,676.2c-5.4,0-10.9-1.6-15.6-5c-12.1-8.6-14.9-25.4-6.3-37.6l55.2-77.5c19.7-27.6,20.3-65.1,1.6-93.4
		c-30.3-45.7-30.3-104.8,0-150.5c18.7-28.3,18.1-65.8-1.6-93.4l-55.2-77.5c-8.6-12.1-5.8-28.9,6.3-37.6c12.1-8.6,28.9-5.8,37.6,6.3
		l55.2,77.5c32.5,45.6,33.6,107.6,2.7,154.4c-18.3,27.7-18.3,63.4,0,91.1c30.9,46.7,29.9,108.8-2.7,154.4l-55.2,77.5
		C1120.6,672.2,1112.3,676.2,1103.9,676.2z"/>
</g>
<g>
	<g>
		<path d="M627,692.6c2.2-17.5,7.5-32.3,15.9-44.3c8.4-12,18.6-21,30.6-26.8c12-5.8,24.6-8.9,37.8-9.3c13.1-0.4,25.5,2.4,37.2,8.2
			c11.7,5.8,21.3,14.6,29,26.3c7.7,11.7,11.9,26.3,12.6,43.8c1.5,26.3-5.8,46.5-21.9,60.7c-16.1,14.2-33.9,21.7-53.6,22.4
			c-19.7,0.7-38.5-5.5-56.4-18.6C640.3,741.8,629.9,721,627,692.6z M638,88.4c6.6-17.5,15.7-31.2,27.4-41
			c11.7-9.8,23.9-15.1,36.7-15.9c12.8-0.7,25.2,3.1,37.2,11.5c12,8.4,21.7,21.7,29,39.9c1.5,37.9,2.7,73.7,3.8,107.3
			c1.1,33.6,1.8,66,2.2,97.4c0.4,31.4,0.2,62.4-0.5,93c-0.7,30.6-1.8,62-3.3,94.1c-0.7,22.6-8.2,39.6-22.4,50.9
			c-14.2,11.3-29.6,16.6-46,15.9c-16.4-0.7-31.4-6.9-44.9-18.6c-13.5-11.7-20.2-28.5-20.2-50.3V95L638,88.4z"/>
	</g>
</g>
</svg>
