<?xml version="1.0" encoding="utf-8"?>
<!-- Generator: Adobe Illustrator 21.0.0, SVG Export Plug-In . SVG Version: 6.00 Build 0)  -->
<svg version="1.1" id="Layer_1" xmlns="http://www.w3.org/2000/svg" xmlns:xlink="http://www.w3.org/1999/xlink" x="0px" y="0px"
	 viewBox="0 0 1417.3 774.8" style="enable-background:new 0 0 1417.3 774.8;" xml:space="preserve">
<path d="M167.5,49.2c10-14,6.7-33.5-7.3-43.4c-14-10-33.5-6.7-43.5,7.3L25.9,140.6c-33.5,47-34.6,111-2.7,159.2l29.4,44.4
	c17.4,26.3,17.4,60.2,0,86.4L23.2,475c-31.9,48.2-30.8,112.2,2.7,159.2l90.8,127.5c6.1,8.5,15.7,13.1,25.4,13.1
	c6.3,0,12.6-1.9,18.1-5.8c14-10,17.3-29.4,7.3-43.4L76.7,598c-18.7-26.2-19.3-61.8-1.5-88.7l29.4-44.4c31.2-47.1,31.2-108.1,0-155.2
	l-29.4-44.4c-17.8-26.8-17.1-62.5,1.5-88.7L167.5,49.2z"/>
<path d="M338.6,143.6c10-14,6.7-33.5-7.3-43.4c-14-10-33.5-6.7-43.5,7.3l-55.2,77.5c-33.5,47-34.6,111-2.7,159.2
	c17.4,26.3,17.4,60.2,0,86.4c-31.9,48.2-30.8,112.2,2.7,159.2l55.2,77.5c6.1,8.5,15.7,13.1,25.4,13.1c6.3,0,12.6-1.9,18.1-5.8
	c14-10,17.3-29.4,7.3-43.4l-55.2-77.5c-18.7-26.2-19.3-61.8-1.5-88.7c31.2-47.1,31.2-108.1,0-155.2c-17.8-26.8-17.1-62.5,1.5-88.7
	L338.6,143.6z"/>
<path d="M1394.1,299.8c31.9-48.2,30.8-112.2-2.7-159.2l-90.8-127.5c-10-14-29.4-17.3-43.5-7.3c-14,10-17.3,29.4-7.3,43.4l90.8,127.5
	c18.7,26.2,19.3,61.8,1.5,88.7l-29.4,44.4c-31.2,47.1-31.2,108.1,0,155.3l29.4,44.3c17.8,26.8,17.1,62.5-1.5,88.7l-90.8,127.5
	c-10,14-6.7,33.5,7.3,43.4c5.5,3.9,11.8,5.8,18.1,5.8c9.7,0,19.3-4.6,25.4-13.1l90.8-127.5c33.5-47,34.6-111,2.7-159.2l-29.4-44.3
	c-17.4-26.3-17.4-60.2,0-86.5L1394.1,299.8z"/>
<path d="M1184.7,184.9l-55.2-77.5c-10-14-29.4-17.3-43.5-7.3c-14,10-17.3,29.4-7.3,43.4l55.2,77.5c18.7,26.2,19.3,61.8,1.5,88.7
	c-31.2,47.1-31.2,108.1,0,155.2c17.8,26.8,17.1,62.5-1.5,88.7l-55.2,77.5c-10,14-6.7,33.5,7.3,43.4c5.5,3.9,11.8,5.8,18.1,5.8
	c9.7,0,19.3-4.6,25.4-13.1l55.2-77.5c33.5-47.1,34.6-111,2.7-159.2c-17.4-26.3-17.4-60.2,0-86.5C1219.3,296,1218.2,232,1184.7,184.9
	z"/>
<g>
	<circle cx="708.7" cy="390.9" r="235.1"/>
</g>
</svg>
