<?xml version="1.0" encoding="UTF-8" ?>
<!DOCTYPE svg PUBLIC "-//W3C//DTD SVG 1.1//EN" "http://www.w3.org/Graphics/SVG/1.1/DTD/svg11.dtd">
<svg width="519pt" height="523pt" viewBox="0 0 519 523" version="1.1" xmlns="http://www.w3.org/2000/svg">
<g id="#ffffffff">
<path fill="#ffffff" opacity="1.00" d=" M 168.95 493.55 C 170.27 493.40 171.99 493.28 172.96 494.35 C 172.74 496.45 166.51 495.12 168.95 493.55 Z" />
<path fill="#ffffff" opacity="1.00" d=" M 174.39 496.10 C 176.77 496.22 179.89 495.32 181.44 497.74 C 178.95 497.96 176.38 497.78 174.39 496.10 Z" />
<path fill="#ffffff" opacity="1.00" d=" M 180.70 498.06 C 186.12 497.09 191.33 499.70 196.13 501.89 C 190.73 502.84 185.23 500.86 180.70 498.06 Z" />
<path fill="#ffffff" opacity="1.00" d=" M 195.98 503.43 C 199.04 502.14 202.39 502.59 205.48 503.51 C 202.47 505.05 199.04 504.60 195.98 503.43 Z" />
<path fill="#ffffff" opacity="1.00" d=" M 205.69 505.55 C 209.54 503.81 213.77 504.76 217.71 505.60 C 214.08 507.78 209.48 506.79 205.69 505.55 Z" />
</g>
<g id="#565d60ff">
<path fill="#565d60" opacity="1.00" d=" M 249.14 4.22 C 262.83 3.27 276.50 4.91 290.12 6.14 C 299.12 7.56 308.24 8.40 317.02 10.97 C 340.10 15.75 361.92 25.19 382.62 36.28 C 445.25 70.04 491.75 131.72 507.89 200.92 C 511.56 214.66 513.48 228.84 514.28 243.03 C 515.74 256.29 515.24 269.70 514.05 282.97 C 507.76 362.31 461.46 437.09 393.78 478.79 C 375.52 490.01 355.90 499.08 335.41 505.37 C 317.36 510.89 298.85 515.28 279.94 516.15 C 272.69 516.91 265.41 517.24 258.15 517.81 C 251.80 517.17 245.41 517.07 239.07 516.29 C 214.55 514.96 190.51 508.86 167.53 500.43 C 147.73 492.82 128.71 483.04 111.40 470.75 C 49.41 426.99 7.81 354.86 2.97 278.95 C 2.69 269.34 1.12 259.71 2.64 250.12 C 4.49 197.39 23.63 145.57 55.75 103.78 C 63.43 94.50 70.97 85.03 79.83 76.82 C 120.92 37.32 175.15 10.99 232.08 5.65 C 237.74 4.89 243.47 4.92 249.14 4.22 M 229.03 11.82 C 219.94 12.65 210.85 13.91 202.04 16.37 C 194.44 17.68 187.09 20.04 179.91 22.78 C 159.38 29.50 140.10 39.49 121.73 50.74 C 114.76 55.33 108.24 60.54 101.40 65.31 C 86.02 78.61 71.12 92.65 58.80 108.89 C 52.48 117.68 46.13 126.48 41.07 136.10 C 35.63 144.74 31.80 154.21 27.37 163.37 C 24.14 169.95 22.39 177.11 19.83 183.95 C 16.66 192.03 15.41 200.66 13.14 209.00 C 10.94 219.20 9.71 229.57 8.42 239.92 C 7.85 252.94 8.15 266.00 8.22 279.04 C 10.42 305.54 16.60 331.71 26.59 356.36 C 30.96 365.64 34.71 375.25 40.12 384.01 C 53.73 408.84 72.35 430.70 93.64 449.28 C 101.27 456.51 110.07 462.31 118.45 468.60 C 126.39 474.24 135.24 478.43 143.49 483.58 C 148.19 486.05 153.14 488.03 158.00 490.16 C 161.42 491.62 164.81 493.78 168.71 493.08 C 167.26 491.86 165.62 490.88 163.88 490.14 C 156.53 486.89 149.16 483.69 142.01 480.02 C 134.37 475.37 126.95 470.36 119.28 465.78 C 114.16 462.66 109.73 458.59 104.99 454.96 C 99.64 450.67 94.03 446.67 89.24 441.75 C 80.93 433.36 72.35 425.15 65.41 415.56 C 61.95 410.68 57.33 406.60 54.80 401.10 C 61.08 395.81 68.07 391.45 74.78 386.74 C 90.12 376.40 105.65 366.32 120.87 355.81 C 123.46 354.14 125.90 352.11 128.89 351.18 C 133.49 353.72 135.92 358.74 139.30 362.60 C 148.42 373.81 159.78 382.86 171.40 391.33 C 178.80 395.73 185.70 401.05 193.80 404.15 C 201.53 408.03 209.96 410.06 218.09 412.86 C 235.47 418.34 254.06 419.10 272.06 416.99 C 283.99 416.47 295.95 414.49 307.17 410.33 C 325.39 404.99 342.07 395.11 356.44 382.81 C 352.06 382.84 349.42 386.79 346.08 388.99 C 338.27 393.30 330.49 397.73 322.28 401.25 C 313.05 406.09 302.82 408.42 292.96 411.61 C 270.98 416.24 248.02 416.25 225.99 411.91 C 210.09 407.82 194.41 402.30 180.43 393.57 C 175.10 389.86 169.26 386.89 164.47 382.44 C 151.09 372.94 140.43 360.28 130.75 347.17 C 126.62 341.72 123.95 335.38 120.52 329.50 C 115.91 321.75 113.70 312.93 110.40 304.61 C 107.67 294.26 105.23 283.74 104.90 272.99 C 104.83 268.70 103.88 264.49 103.61 260.22 C 104.08 256.17 104.86 252.16 104.92 248.07 C 105.15 238.50 107.30 229.13 109.49 219.86 C 110.45 215.08 112.64 210.69 114.23 206.11 C 115.63 202.34 116.66 198.39 118.79 194.94 C 123.62 186.76 127.38 177.90 133.37 170.46 C 137.78 165.16 141.68 159.41 146.58 154.54 C 152.51 148.84 158.21 142.85 164.98 138.12 C 186.97 120.65 214.10 110.04 241.98 107.12 C 247.21 106.95 252.41 106.38 257.59 105.59 C 262.07 105.60 266.48 106.82 270.98 106.86 C 284.60 107.37 297.88 110.89 310.76 115.14 C 340.19 125.64 366.01 145.57 384.15 170.96 C 390.89 178.99 395.00 188.76 400.15 197.81 C 404.40 209.05 409.11 220.32 410.62 232.35 C 412.43 239.75 411.89 247.43 412.96 254.93 C 413.98 261.81 412.59 268.68 412.27 275.55 C 412.33 285.25 409.47 294.62 407.09 303.94 C 403.97 312.82 401.10 321.88 396.44 330.09 C 391.23 340.00 385.92 350.02 378.56 358.53 C 371.59 367.26 363.09 374.57 355.28 382.52 C 356.62 382.31 358.02 382.05 359.08 381.13 C 363.23 377.98 367.00 374.35 370.79 370.79 C 377.25 364.71 381.57 356.70 388.18 350.77 C 403.96 360.03 418.69 370.94 434.07 380.84 C 442.76 386.44 450.85 392.92 459.74 398.20 C 461.22 398.97 461.83 400.59 462.69 401.93 C 457.65 408.19 453.36 415.03 447.86 420.91 C 440.41 429.09 433.47 437.82 424.83 444.81 C 419.15 449.45 414.01 454.76 407.87 458.81 C 400.26 464.32 392.73 470.07 384.27 474.24 C 373.61 481.25 361.60 485.78 350.06 491.08 C 340.32 495.94 329.45 497.57 319.34 501.43 C 312.65 503.12 305.82 504.13 299.03 505.33 C 291.85 507.27 284.33 506.69 277.04 507.93 C 265.46 509.03 253.75 509.42 242.16 508.36 C 234.64 507.27 227.00 506.64 219.41 507.38 C 222.25 509.30 225.77 508.80 229.01 509.06 C 233.68 509.37 238.23 510.71 242.92 510.87 C 256.99 511.43 271.23 512.09 285.16 509.62 C 303.99 507.63 322.80 504.17 340.56 497.40 C 356.65 492.33 371.94 484.96 386.43 476.36 C 396.85 470.84 405.89 463.22 415.42 456.37 C 417.92 454.60 420.13 452.46 422.40 450.41 C 430.81 442.81 439.46 435.42 446.68 426.65 C 464.83 407.01 478.82 383.84 489.39 359.35 C 493.80 350.22 496.32 340.35 499.70 330.82 C 504.59 311.24 509.39 291.31 509.07 270.98 C 509.39 260.99 509.00 250.99 508.91 240.99 C 507.66 224.40 504.36 208.04 500.10 191.97 C 491.11 161.09 476.30 131.89 456.58 106.47 C 452.90 101.81 448.80 97.51 445.15 92.82 C 438.86 85.81 431.89 79.45 424.88 73.17 C 421.08 69.69 417.29 66.16 413.04 63.23 C 405.61 58.25 398.89 52.21 391.03 47.90 C 382.33 43.37 374.20 37.76 365.17 33.88 C 358.21 30.97 351.55 27.14 344.08 25.70 C 338.44 22.58 332.18 20.82 326.09 18.83 C 313.77 16.06 301.51 12.60 288.84 11.84 C 278.07 9.43 266.97 10.14 256.02 10.03 C 247.01 10.18 237.85 9.54 229.03 11.82 M 244.64 109.81 C 225.28 111.41 206.39 117.30 188.98 125.84 C 170.05 135.55 153.70 149.79 140.16 166.10 C 131.86 176.32 125.52 188.01 119.91 199.86 C 101.37 242.08 102.75 293.10 125.73 333.35 C 137.22 355.35 155.05 373.54 175.23 387.74 C 187.33 394.86 199.81 401.64 213.35 405.62 C 220.01 407.96 227.04 408.78 233.90 410.25 C 244.79 412.57 255.97 411.88 267.02 411.96 C 277.18 412.30 286.99 409.32 296.92 407.62 C 319.93 401.69 341.65 390.32 359.22 374.25 C 371.81 362.94 383.08 349.84 390.76 334.67 C 401.12 317.11 407.22 297.17 409.57 276.97 C 410.26 258.97 410.13 240.64 405.79 223.05 C 400.91 205.84 393.50 189.27 383.36 174.51 C 373.59 161.18 362.42 148.69 349.06 138.86 C 330.80 125.21 309.32 116.06 286.95 111.82 C 273.09 108.72 258.74 108.80 244.64 109.81 M 121.54 358.60 C 100.70 372.74 79.61 386.54 59.01 401.03 C 62.01 407.89 67.30 413.35 71.78 419.25 C 85.14 434.85 100.85 448.28 117.07 460.80 C 123.51 465.13 130.24 469.02 136.81 473.16 C 145.41 478.65 154.92 482.45 164.12 486.79 C 175.77 492.41 188.44 495.34 200.72 499.23 C 229.41 505.79 259.18 507.55 288.44 504.29 C 297.64 503.01 306.80 501.39 315.90 499.53 C 328.80 495.36 342.22 492.52 354.36 486.28 C 368.00 480.58 381.08 473.61 393.48 465.57 C 403.67 458.14 414.03 450.88 423.23 442.21 C 435.05 431.04 446.40 419.23 455.93 406.01 C 456.69 404.57 458.34 403.14 457.97 401.41 C 454.11 397.35 448.99 394.80 444.62 391.35 C 428.10 380.26 411.53 369.23 395.04 358.08 C 393.00 356.88 390.94 355.08 388.44 355.26 C 385.54 357.41 383.74 360.65 381.26 363.22 C 370.60 374.26 359.69 385.20 347.01 393.94 C 337.52 400.35 327.18 405.41 316.57 409.67 C 304.26 414.19 291.62 418.32 278.47 419.35 C 271.02 420.44 263.47 419.90 255.97 420.02 C 237.72 420.44 219.41 417.11 202.40 410.51 C 188.60 404.83 175.12 398.01 163.37 388.72 C 154.48 381.97 146.48 374.14 138.76 366.11 C 135.18 362.32 132.21 357.92 127.94 354.83 C 125.74 355.97 123.56 357.17 121.54 358.60 M 168.95 493.55 C 166.51 495.12 172.74 496.45 172.96 494.35 C 171.99 493.28 170.27 493.40 168.95 493.55 M 174.39 496.10 C 176.38 497.78 178.95 497.96 181.44 497.74 C 179.89 495.32 176.77 496.22 174.39 496.10 M 180.70 498.06 C 185.23 500.86 190.73 502.84 196.13 501.89 C 191.33 499.70 186.12 497.09 180.70 498.06 M 195.98 503.43 C 199.04 504.60 202.47 505.05 205.48 503.51 C 202.39 502.59 199.04 502.14 195.98 503.43 M 205.69 505.55 C 209.48 506.79 214.08 507.78 217.71 505.60 C 213.77 504.76 209.54 503.81 205.69 505.55 Z" />
<path fill="#565d60" opacity="1.00" d=" M 220.97 15.16 C 227.57 13.87 234.31 13.63 240.99 13.02 C 259.00 12.47 277.11 12.32 294.98 14.85 C 304.78 17.15 314.92 18.06 324.45 21.50 C 333.63 24.65 343.42 26.24 352.03 30.91 C 362.05 35.78 372.56 39.72 382.00 45.71 C 386.74 48.72 391.87 51.08 396.49 54.28 C 402.40 58.79 408.78 62.69 414.32 67.68 C 418.91 71.76 423.84 75.45 428.27 79.70 C 440.70 91.74 453.03 104.23 462.11 119.04 C 463.13 122.06 459.54 123.19 457.66 124.61 C 436.84 138.45 416.36 152.78 395.38 166.39 C 392.82 168.10 390.07 169.52 387.12 170.39 C 378.01 158.78 368.64 147.12 356.72 138.24 C 349.50 131.75 340.80 127.35 332.62 122.25 C 324.11 117.79 315.46 113.40 306.10 110.96 C 298.28 108.12 290.02 107.01 281.99 105.01 C 275.40 103.90 268.69 104.08 262.03 104.03 C 252.49 104.09 242.84 103.68 233.42 105.53 C 228.00 107.07 222.30 107.37 216.95 109.22 C 209.58 111.59 201.92 113.35 195.09 117.11 C 188.32 120.55 181.43 123.82 175.18 128.19 C 163.49 134.20 154.02 143.61 144.87 152.88 C 139.65 157.99 135.85 164.38 130.51 169.36 C 128.96 171.09 126.85 169.59 125.35 168.66 C 102.23 153.44 79.36 137.82 56.18 122.69 C 54.84 121.82 54.64 119.82 55.68 118.63 C 62.23 108.47 70.33 99.46 78.39 90.49 C 94.51 73.96 112.27 58.74 132.48 47.45 C 144.43 39.77 157.82 34.88 170.47 28.56 C 178.22 25.75 186.26 23.83 194.08 21.23 C 202.81 18.26 212.03 17.30 220.97 15.16 M 242.96 16.01 C 219.22 16.98 196.10 23.16 173.70 30.74 C 155.66 38.34 137.53 46.18 121.53 57.62 C 108.87 65.55 97.54 75.38 86.90 85.80 C 76.57 96.29 66.78 107.35 58.52 119.55 C 60.25 121.09 62.05 122.56 63.96 123.88 C 81.21 135.69 98.56 147.35 115.98 158.91 C 120.19 161.58 124.22 164.63 128.88 166.51 C 130.97 164.42 132.94 162.22 134.77 159.91 C 147.93 143.14 164.91 129.58 183.61 119.47 C 203.06 108.81 224.97 103.08 246.97 101.05 C 257.66 100.93 268.39 100.65 279.03 102.07 C 303.39 105.09 327.00 114.01 347.36 127.73 C 359.04 135.80 370.21 144.85 379.27 155.85 C 382.18 159.29 384.82 163.04 388.37 165.86 C 390.72 166.70 392.72 164.76 394.58 163.65 C 416.11 149.06 437.95 134.89 459.12 119.78 C 454.21 112.23 448.54 105.22 442.63 98.44 C 430.03 84.69 416.68 71.37 401.01 61.10 C 392.50 55.47 384.15 49.54 375.04 44.88 C 344.06 28.84 309.99 17.92 275.02 16.09 C 269.00 16.13 263.05 14.96 257.03 15.09 C 252.32 15.05 247.66 15.95 242.96 16.01 Z" />
<path fill="#565d60" opacity="1.00" d=" M 256.94 40.09 C 257.46 39.60 258.50 38.61 259.02 38.12 C 260.09 41.91 260.53 46.11 258.49 49.66 C 256.46 46.86 256.91 43.33 256.94 40.09 Z" />
<path fill="#565d60" opacity="1.00" d=" M 247.85 40.37 C 250.91 43.05 252.94 46.65 254.36 50.41 C 249.50 50.17 247.29 44.60 247.85 40.37 Z" />
<path fill="#565d60" opacity="1.00" d=" M 268.54 41.14 C 270.32 41.18 269.81 43.23 269.38 44.33 C 268.58 47.24 266.49 49.67 263.63 50.71 C 263.93 46.99 266.06 43.79 268.54 41.14 Z" />
<path fill="#565d60" opacity="1.00" d=" M 239.26 48.77 C 243.41 49.13 248.00 51.14 249.58 55.29 C 245.48 54.67 241.11 52.72 239.26 48.77 Z" />
<path fill="#565d60" opacity="1.00" d=" M 268.14 55.39 C 268.73 50.62 274.18 49.33 278.19 48.85 C 275.92 52.34 272.25 54.71 268.14 55.39 Z" />
<path fill="#565d60" opacity="1.00" d=" M 254.42 53.40 C 259.95 50.67 266.71 55.03 267.17 60.95 C 266.54 65.19 262.42 69.16 257.89 68.05 C 251.03 67.33 247.63 56.73 254.42 53.40 M 257.12 56.11 C 255.32 57.25 253.75 59.70 254.81 61.82 C 255.98 65.23 261.57 65.12 262.67 61.71 C 263.51 58.72 260.27 54.97 257.12 56.11 Z" />
<path fill="#565d60" opacity="1.00" d=" M 238.50 58.63 C 241.27 57.83 244.32 58.02 246.99 59.10 C 247.80 61.88 243.88 61.85 242.05 62.02 C 240.17 61.89 236.01 62.15 237.00 59.16 C 237.38 59.03 238.13 58.77 238.50 58.63 Z" />
<path fill="#565d60" opacity="1.00" d=" M 269.56 60.15 C 273.05 57.68 278.02 57.23 281.39 60.16 C 277.80 62.37 273.06 62.78 269.56 60.15 Z" />
<path fill="#565d60" opacity="1.00" d=" M 238.82 71.06 C 241.38 67.69 245.34 65.77 249.39 64.83 C 248.28 69.38 243.07 71.30 238.82 71.06 Z" />
<path fill="#565d60" opacity="1.00" d=" M 267.61 64.68 C 271.75 65.59 275.67 67.69 278.43 70.94 C 273.97 71.52 269.06 69.10 267.61 64.68 Z" />
<path fill="#565d60" opacity="1.00" d=" M 263.76 68.44 C 267.03 70.90 269.38 74.54 269.89 78.64 C 268.47 79.71 267.58 78.24 266.78 77.23 C 264.87 74.70 263.51 71.68 263.76 68.44 Z" />
<path fill="#565d60" opacity="1.00" d=" M 247.56 79.35 C 247.45 75.27 249.83 71.28 253.23 69.10 C 253.13 72.94 251.69 78.18 247.56 79.35 Z" />
<path fill="#565d60" opacity="1.00" d=" M 257.41 72.57 C 258.08 72.32 259.42 71.81 260.09 71.56 C 260.07 74.61 260.33 77.73 259.66 80.73 C 259.00 81.00 257.68 81.53 257.02 81.79 C 257.11 78.75 256.45 75.50 257.41 72.57 Z" />
<path fill="#565d60" opacity="1.00" d=" M 50.97 125.85 C 52.79 124.24 55.03 126.42 56.77 127.21 C 79.13 142.15 101.44 157.17 123.71 172.23 C 124.95 173.00 126.19 174.29 125.71 175.89 C 124.65 179.95 121.94 183.30 120.03 186.98 C 115.06 195.60 111.75 205.04 108.43 214.38 C 107.01 219.85 105.75 225.38 104.53 230.90 C 101.88 240.35 102.10 250.26 102.04 259.98 C 102.14 268.86 101.66 277.84 103.44 286.60 C 105.61 294.32 106.39 302.42 109.27 309.95 C 112.24 318.01 115.24 326.11 119.44 333.63 C 121.77 338.05 124.56 342.24 126.30 346.95 C 103.59 363.21 79.94 378.16 57.02 394.16 C 55.32 395.32 52.43 397.43 50.84 395.07 C 44.09 386.34 39.51 376.25 34.20 366.63 C 25.72 348.58 19.39 329.53 15.24 310.03 C 14.89 304.94 12.98 300.10 12.81 294.99 C 12.43 289.98 11.59 285.02 11.02 280.03 C 10.35 266.69 9.97 253.28 11.06 239.95 C 12.56 232.21 12.17 224.19 14.38 216.59 C 15.91 206.94 18.28 197.43 21.11 188.09 C 27.24 169.42 34.85 151.10 45.33 134.42 C 47.16 131.55 48.49 128.25 50.97 125.85 M 49.84 131.87 C 43.45 142.16 38.37 153.17 33.06 164.04 C 25.35 181.60 19.99 200.17 16.83 219.08 C 13.56 232.81 14.09 247.04 14.03 261.05 C 14.09 274.70 13.61 288.57 16.86 301.93 C 19.56 317.83 23.82 333.45 29.52 348.53 C 35.85 363.69 43.07 378.52 51.95 392.37 C 56.77 391.46 60.54 388.16 64.58 385.64 C 79.71 375.41 94.87 365.23 109.99 355.00 C 114.25 351.84 119.06 349.42 122.96 345.78 C 120.03 339.88 116.80 334.15 113.66 328.36 C 107.01 314.33 102.88 299.27 100.26 284.00 C 96.98 256.68 99.35 228.34 109.69 202.68 C 112.88 193.22 118.42 184.83 123.09 176.08 C 121.30 173.80 118.79 172.27 116.42 170.67 C 97.68 158.02 78.89 145.45 60.13 132.82 C 58.11 131.52 56.14 130.07 53.84 129.29 C 52.01 128.63 50.74 130.60 49.84 131.87 Z" />
<path fill="#565d60" opacity="1.00" d=" M 453.27 132.25 C 457.23 129.70 460.92 126.71 465.11 124.51 C 471.46 132.00 476.05 140.84 480.43 149.59 C 493.23 174.32 501.53 201.34 504.93 228.97 C 505.14 233.05 505.85 237.08 506.33 241.13 C 508.36 273.62 505.40 306.73 494.82 337.63 C 489.76 353.58 482.71 368.83 474.48 383.38 C 472.17 387.24 469.33 390.83 467.77 395.11 C 463.55 397.77 459.96 393.45 456.46 391.60 C 435.96 377.78 415.47 363.94 394.96 350.13 C 393.26 348.96 390.75 347.49 391.89 345.02 C 395.11 336.90 400.62 329.85 403.52 321.57 C 405.35 316.44 407.55 311.46 409.30 306.31 C 410.93 298.69 412.99 291.15 414.31 283.46 C 414.99 277.78 414.47 272.01 415.50 266.36 C 416.14 262.79 416.31 259.12 415.70 255.53 C 414.53 249.05 415.10 242.41 413.96 235.94 C 412.60 229.04 410.83 222.23 409.40 215.36 C 407.90 210.70 405.93 206.22 404.31 201.62 C 401.36 192.88 396.11 185.19 392.05 176.99 C 391.05 172.50 395.69 170.45 398.89 168.74 C 417.02 156.59 434.99 144.19 453.27 132.25 M 450.08 139.02 C 440.38 144.75 431.01 151.06 421.98 157.78 C 415.26 162.11 408.68 166.64 402.03 171.08 C 399.59 172.45 396.43 173.75 396.21 177.00 C 397.42 181.55 400.69 185.17 402.77 189.33 C 407.29 197.42 409.53 206.50 412.99 215.05 C 414.52 222.01 416.17 228.95 417.76 235.91 C 419.03 251.93 418.83 268.05 417.90 284.09 C 416.76 291.25 414.45 298.18 413.45 305.37 C 411.37 311.25 408.77 316.95 406.99 322.95 C 404.86 329.89 400.23 335.58 396.90 341.92 C 395.50 344.01 396.39 347.01 398.43 348.32 C 404.26 351.38 409.48 355.47 415.00 359.05 C 430.88 370.59 447.53 381.01 463.71 392.13 C 470.09 386.39 472.27 377.80 477.07 370.93 C 479.89 366.72 480.92 361.67 483.31 357.24 C 486.68 350.85 488.56 343.83 491.10 337.10 C 495.64 323.77 499.01 310.01 500.80 296.04 C 500.79 289.96 502.79 284.11 502.77 278.03 C 502.94 266.34 502.98 254.65 502.71 242.96 C 502.70 237.21 500.82 231.67 500.84 225.92 C 498.70 206.66 492.54 188.16 485.97 170.03 C 480.26 158.00 474.96 145.68 467.58 134.55 C 466.32 132.89 465.72 129.70 463.13 129.91 C 458.51 132.53 454.20 135.67 450.08 139.02 Z" />
<path fill="#565d60" opacity="1.00" d=" M 258.12 233.39 C 258.73 234.53 259.87 235.53 259.91 236.92 C 260.21 241.73 260.06 246.56 259.99 251.38 C 259.48 251.19 258.44 250.81 257.93 250.62 C 257.07 244.93 257.12 239.06 258.12 233.39 Z" />
<path fill="#565d60" opacity="1.00" d=" M 265.48 240.19 C 278.87 243.42 286.98 260.81 280.12 273.00 C 276.69 279.05 271.12 284.44 264.13 285.87 C 259.26 286.63 254.02 286.77 249.44 284.71 C 242.42 281.66 237.25 275.08 235.30 267.76 C 234.61 262.60 234.38 256.90 237.27 252.31 C 240.50 246.46 246.42 241.11 253.39 240.89 C 250.04 243.80 245.43 244.97 242.58 248.48 C 240.07 251.40 237.88 254.95 238.02 258.95 C 237.97 264.48 237.78 270.84 241.74 275.23 C 245.71 280.11 251.62 283.46 257.94 283.93 C 266.93 284.33 275.78 278.19 278.67 269.70 C 279.81 263.15 280.55 255.52 276.02 250.02 C 273.37 245.91 268.62 244.32 264.84 241.59 C 265.00 241.24 265.32 240.54 265.48 240.19 Z" />
<path fill="#565d60" opacity="1.00" d=" M 451.66 243.33 C 459.06 247.54 464.71 254.20 470.27 260.53 C 464.88 267.22 458.82 273.61 451.73 278.52 C 451.20 273.80 454.39 269.74 458.01 267.14 C 460.43 265.41 463.62 264.10 464.52 260.98 C 461.64 255.78 457.22 251.34 452.10 248.31 C 451.38 246.72 451.22 245.02 451.66 243.33 Z" />
<path fill="#565d60" opacity="1.00" d=" M 52.60 255.63 C 56.81 252.02 60.11 247.12 65.30 244.82 C 62.08 250.96 55.68 254.50 51.75 260.10 C 51.81 261.99 53.44 263.16 54.62 264.42 C 58.44 268.23 62.93 271.59 65.48 276.47 C 61.78 275.19 59.23 272.10 56.38 269.59 C 53.85 267.10 50.94 264.90 48.91 261.95 C 48.08 259.16 51.06 257.46 52.60 255.63 Z" />
<path fill="#565d60" opacity="1.00" d=" M 256.45 449.27 C 257.05 448.05 257.66 446.85 258.21 445.62 C 259.21 446.59 260.20 447.58 261.19 448.57 C 259.63 448.92 258.04 449.13 256.45 449.27 Z" />
<path fill="#565d60" opacity="1.00" d=" M 249.70 448.15 C 250.21 447.83 251.22 447.17 251.73 446.85 C 253.17 448.35 254.21 450.12 254.20 452.27 C 251.45 452.65 249.73 450.82 249.70 448.15 Z" />
<path fill="#565d60" opacity="1.00" d=" M 264.28 448.22 C 264.92 448.17 266.21 448.09 266.85 448.04 C 267.92 450.57 265.74 451.72 263.76 452.60 C 263.84 451.12 264.01 449.66 264.28 448.22 Z" />
<path fill="#565d60" opacity="1.00" d=" M 246.19 452.95 C 248.10 452.45 249.61 454.07 248.97 455.94 C 246.93 457.09 243.74 454.78 246.19 452.95 Z" />
<path fill="#565d60" opacity="1.00" d=" M 250.77 461.94 C 249.47 456.31 256.24 450.88 261.37 453.68 C 264.79 455.11 266.02 458.84 267.26 462.01 C 266.10 464.10 265.50 467.03 262.94 467.87 C 258.29 470.08 251.07 467.68 250.77 461.94 M 256.17 458.13 C 254.24 459.39 255.04 461.98 254.79 463.91 C 255.88 464.63 256.94 465.41 258.09 466.05 C 260.29 465.67 262.06 463.88 262.96 461.91 C 263.50 458.55 258.69 455.41 256.17 458.13 Z" />
<path fill="#565d60" opacity="1.00" d=" M 267.78 455.83 C 268.91 454.54 269.78 452.28 271.91 453.13 C 272.36 455.73 269.83 456.40 267.78 455.83 Z" />
<path fill="#565d60" opacity="1.00" d=" M 244.11 463.08 C 243.83 462.01 243.64 460.94 243.45 459.87 C 244.44 459.98 246.43 460.20 247.42 460.30 C 246.58 461.58 246.07 463.62 244.11 463.08 Z" />
<path fill="#565d60" opacity="1.00" d=" M 271.07 463.08 C 270.74 462.00 270.57 460.90 270.42 459.80 C 271.39 459.95 273.33 460.26 274.30 460.42 C 273.44 461.60 272.94 463.55 271.07 463.08 Z" />
<path fill="#565d60" opacity="1.00" d=" M 268.65 466.58 C 268.64 464.66 270.94 466.92 271.64 467.41 C 273.72 470.39 267.00 469.52 268.65 466.58 Z" />
<path fill="#565d60" opacity="1.00" d=" M 245.23 469.57 C 245.18 467.12 246.94 466.64 249.06 467.18 C 248.02 468.50 247.29 471.31 245.23 469.57 Z" />
<path fill="#565d60" opacity="1.00" d=" M 249.94 475.20 C 250.44 473.63 250.95 472.03 251.99 470.73 C 252.52 471.03 253.59 471.62 254.12 471.92 C 253.48 473.81 251.97 475.07 249.94 475.20 Z" />
<path fill="#565d60" opacity="1.00" d=" M 264.15 474.93 C 263.96 473.58 263.79 472.24 263.62 470.90 C 264.50 470.98 266.26 471.14 267.13 471.22 C 267.02 472.42 266.92 473.63 266.81 474.85 C 266.14 474.87 264.82 474.91 264.15 474.93 Z" />
<path fill="#565d60" opacity="1.00" d=" M 256.82 476.12 C 256.63 474.12 257.66 472.93 259.58 472.68 C 259.90 473.36 260.53 474.71 260.84 475.39 C 259.54 475.80 258.21 476.19 256.82 476.12 Z" />
</g>
</svg>
