<?xml version="1.0" encoding="UTF-8" ?>
<!DOCTYPE svg PUBLIC "-//W3C//DTD SVG 1.1//EN" "http://www.w3.org/Graphics/SVG/1.1/DTD/svg11.dtd">
<svg width="168pt" height="282pt" viewBox="0 0 168 282" version="1.1" xmlns="http://www.w3.org/2000/svg">
<g id="#ffffffff">
</g>
<g id="#405054ff">
<path fill="#405054" opacity="1.00" d=" M 75.08 6.08 C 92.88 4.21 111.30 8.04 126.67 17.28 C 143.62 27.28 156.70 43.93 161.57 63.08 C 163.88 71.50 164.00 80.30 163.91 88.97 C 163.91 125.65 163.90 162.34 163.91 199.02 C 163.94 205.71 163.60 212.46 162.04 218.99 C 158.08 236.52 147.28 252.26 132.72 262.72 C 117.37 273.96 98.01 279.39 79.05 278.22 C 58.63 277.16 38.69 268.19 24.55 253.37 C 15.03 243.29 8.18 230.62 5.52 216.97 C 4.24 210.73 4.06 204.34 4.09 197.99 C 4.12 158.98 4.04 119.96 4.13 80.95 C 4.14 65.17 9.52 49.49 19.17 37.00 C 32.40 19.47 53.32 8.30 75.08 6.08 M 70.48 9.76 C 49.72 13.14 30.38 25.16 18.77 42.77 C 11.25 53.99 7.19 67.44 7.15 80.95 C 7.07 119.98 7.15 159.02 7.11 198.05 C 7.10 203.77 7.21 209.52 8.26 215.16 C 11.00 230.78 19.46 245.19 31.33 255.64 C 44.40 267.34 61.57 274.21 79.04 275.19 C 96.50 276.30 114.34 271.63 128.82 261.76 C 143.20 252.06 154.26 237.25 158.59 220.37 C 160.88 212.13 160.97 203.51 160.88 195.02 C 160.88 158.03 160.87 121.04 160.89 84.05 C 160.92 76.61 160.28 69.11 158.13 61.97 C 152.45 41.93 137.30 25.20 118.58 16.38 C 103.73 9.28 86.69 7.06 70.48 9.76 Z" />
<path fill="#405054" opacity="1.00" d=" M 76.57 39.77 C 82.75 39.27 89.03 39.23 95.15 40.31 C 114.48 43.63 130.97 59.40 135.37 78.48 C 137.28 87.28 137.28 96.53 135.52 105.36 C 131.45 124.08 115.78 139.74 97.04 143.75 C 88.48 145.47 79.52 145.48 70.97 143.75 C 52.00 139.70 36.19 123.72 32.34 104.71 C 30.74 96.09 30.74 87.09 32.62 78.51 C 37.26 58.16 55.71 41.69 76.57 39.77 M 79.05 41.09 C 57.18 42.01 37.42 59.54 33.64 81.05 C 32.30 89.42 32.30 98.13 34.30 106.40 C 38.24 122.26 50.78 135.56 66.18 140.84 C 74.47 143.71 83.42 143.89 92.06 143.06 C 105.04 141.59 117.14 134.42 124.99 124.04 C 133.23 114.10 136.06 100.71 135.15 88.05 C 134.74 73.38 126.99 59.38 115.20 50.76 C 105.12 42.66 91.70 40.12 79.05 41.09 Z" />
<path fill="#405054" opacity="1.00" d=" M 76.44 62.66 C 84.85 61.37 94.07 61.78 101.32 66.73 C 118.33 77.45 118.68 105.92 102.08 117.18 C 89.61 125.48 70.56 124.13 60.67 112.37 C 55.14 105.99 53.20 97.27 53.97 89.00 C 54.33 76.45 64.15 65.11 76.44 62.66 M 79.71 63.77 C 80.44 65.03 81.16 66.30 81.89 67.56 C 83.29 67.55 84.70 67.49 86.10 67.39 C 87.37 66.57 87.85 64.99 88.73 63.83 C 85.73 63.56 82.71 63.57 79.71 63.77 M 71.17 67.87 C 71.94 69.24 72.70 70.63 73.44 72.02 C 74.97 72.04 76.49 72.06 78.01 72.11 C 78.80 70.73 79.59 69.35 80.37 67.98 C 79.62 66.71 78.86 65.44 78.13 64.17 C 75.33 64.42 72.51 65.13 71.17 67.87 M 88.02 68.09 C 88.63 69.48 89.42 70.78 90.17 72.09 C 91.68 72.07 93.20 72.07 94.71 72.06 C 95.52 70.78 96.33 69.50 97.17 68.24 C 96.13 65.13 92.91 64.63 90.06 64.30 C 89.36 65.55 88.61 66.78 88.02 68.09 M 62.72 72.89 C 63.51 74.26 64.29 75.62 65.06 77.00 C 66.61 77.00 68.16 77.00 69.70 77.00 C 70.42 75.67 71.15 74.35 71.87 73.02 C 71.13 71.62 70.38 70.22 69.66 68.81 C 66.49 68.23 64.15 70.27 62.72 72.89 M 82.07 68.97 C 81.26 70.31 80.46 71.66 79.67 73.01 C 80.44 74.35 81.20 75.69 81.99 77.03 C 83.43 77.01 84.86 77.00 86.30 77.00 C 87.07 75.69 87.83 74.37 88.60 73.05 C 87.82 71.70 87.04 70.36 86.26 69.02 C 84.86 69.00 83.47 68.99 82.07 68.97 M 96.35 73.10 C 97.08 74.39 97.79 75.68 98.51 76.98 C 100.07 76.99 101.63 77.01 103.20 77.05 C 103.96 75.72 104.73 74.39 105.50 73.07 C 103.88 70.80 101.98 68.44 98.84 68.82 C 98.02 70.25 97.18 71.67 96.35 73.10 M 56.76 81.82 C 58.34 81.79 59.93 81.77 61.51 81.74 C 62.25 80.43 63.00 79.13 63.75 77.84 C 62.94 76.38 62.12 74.93 61.29 73.48 C 59.51 76.11 57.98 78.89 56.76 81.82 M 73.47 74.00 C 72.76 75.27 72.04 76.54 71.31 77.81 C 72.06 79.10 72.82 80.40 73.56 81.70 C 75.01 81.73 76.45 81.77 77.90 81.82 C 78.68 80.54 79.50 79.27 80.13 77.91 C 79.54 76.51 78.75 75.21 78.00 73.90 C 76.48 73.95 74.97 73.98 73.47 74.00 M 90.25 73.99 C 89.49 75.27 88.72 76.54 87.95 77.81 C 88.73 79.16 89.51 80.51 90.29 81.87 C 91.74 81.87 93.19 81.88 94.63 81.88 C 95.40 80.54 96.16 79.20 96.93 77.86 C 96.19 76.57 95.45 75.29 94.72 73.99 C 93.23 73.99 91.74 73.99 90.25 73.99 M 104.48 77.96 C 105.26 79.30 106.04 80.65 106.82 81.99 C 108.31 81.98 109.80 81.97 111.30 81.96 C 110.15 79.07 108.65 76.33 106.91 73.76 C 106.09 75.15 105.28 76.56 104.48 77.96 M 62.84 82.56 C 63.65 83.84 64.44 85.13 65.24 86.43 C 66.72 86.39 68.20 86.37 69.69 86.35 C 70.45 85.09 71.21 83.82 71.99 82.57 C 71.22 81.34 70.46 80.11 69.72 78.87 C 68.12 78.85 66.52 78.82 64.93 78.78 C 64.23 80.04 63.53 81.30 62.84 82.56 M 79.86 82.86 C 80.40 84.19 81.22 85.38 81.95 86.60 C 83.58 86.49 85.21 86.37 86.85 86.22 C 88.46 83.85 88.38 81.23 86.67 78.95 C 85.06 78.90 83.46 78.84 81.86 78.78 C 81.16 80.12 80.15 81.35 79.86 82.86 M 98.38 78.91 C 97.70 80.20 97.00 81.49 96.31 82.78 C 97.06 83.99 97.73 85.26 98.63 86.37 C 100.02 86.60 101.43 86.59 102.83 86.67 C 103.68 85.36 104.52 84.06 105.38 82.77 C 104.65 81.48 104.14 80.00 103.04 78.97 C 101.49 78.85 99.94 78.90 98.38 78.91 M 56.72 83.67 C 55.37 85.71 55.22 88.61 56.27 90.82 C 57.77 91.35 59.42 91.28 60.98 91.10 C 62.34 90.24 62.74 88.50 63.55 87.20 C 62.80 85.99 62.11 84.74 61.22 83.63 C 59.84 83.11 58.05 83.01 56.72 83.67 M 73.29 83.77 C 72.63 84.99 71.97 86.21 71.32 87.43 C 71.98 88.65 72.64 89.86 73.28 91.09 C 74.84 91.15 76.40 91.22 77.96 91.29 C 78.72 89.96 79.47 88.64 80.22 87.31 C 79.45 86.07 78.69 84.82 77.93 83.57 C 76.38 83.63 74.83 83.69 73.29 83.77 M 90.24 83.65 C 89.46 84.92 88.68 86.19 87.89 87.46 C 88.67 88.74 89.44 90.02 90.23 91.31 C 91.72 91.26 93.22 91.22 94.72 91.19 C 95.47 89.95 96.24 88.71 97.02 87.48 C 96.23 86.24 95.46 84.99 94.69 83.74 C 93.21 83.72 91.72 83.69 90.24 83.65 M 104.95 87.99 C 105.52 89.17 106.23 90.28 106.90 91.40 C 108.64 91.33 110.38 91.27 112.12 91.20 C 112.44 88.74 112.31 86.25 111.99 83.79 C 110.35 83.63 108.71 83.50 107.07 83.36 C 106.37 84.88 104.85 86.21 104.95 87.99 M 65.22 88.23 C 64.47 89.50 63.67 90.74 63.04 92.08 C 63.49 93.51 64.41 94.76 65.11 96.07 C 66.64 96.05 68.16 96.03 69.68 96.01 C 70.41 94.77 71.13 93.54 71.87 92.31 C 71.12 90.96 70.36 89.62 69.59 88.28 C 68.13 88.27 66.67 88.25 65.22 88.23 M 79.58 92.06 C 80.32 93.40 81.07 94.74 81.82 96.07 C 83.30 96.09 84.78 96.11 86.26 96.14 C 87.16 94.43 89.24 92.46 87.61 90.53 C 87.07 88.94 85.73 88.03 84.05 88.31 C 81.52 87.66 80.73 90.48 79.58 92.06 M 98.58 88.46 C 97.81 89.73 97.05 91.01 96.29 92.30 C 96.97 93.53 97.64 94.78 98.31 96.03 C 99.86 96.07 101.41 96.12 102.96 96.17 C 103.73 94.83 104.49 93.48 105.25 92.14 C 104.45 90.91 103.66 89.67 102.87 88.44 C 101.44 88.46 100.01 88.46 98.58 88.46 M 56.36 93.26 C 54.92 95.60 55.96 98.34 56.13 100.86 C 57.78 100.93 59.43 101.00 61.08 101.08 C 61.88 99.72 62.68 98.36 63.48 97.00 C 62.70 95.63 61.92 94.26 61.14 92.89 C 59.54 92.98 57.94 92.99 56.36 93.26 M 73.52 93.01 C 72.77 94.34 72.01 95.67 71.27 97.01 C 72.00 98.33 72.73 99.66 73.46 100.99 C 74.93 101.00 76.41 101.00 77.88 101.02 C 78.64 99.73 79.44 98.46 80.08 97.11 C 79.51 95.65 78.65 94.33 77.88 92.98 C 76.43 93.00 74.97 93.00 73.52 93.01 M 90.29 93.03 C 89.49 94.39 88.68 95.74 87.87 97.10 C 88.65 98.40 89.44 99.70 90.22 101.00 C 91.71 101.00 93.20 101.00 94.70 101.00 C 95.40 99.69 96.12 98.39 96.84 97.10 C 96.09 95.75 95.35 94.41 94.61 93.07 C 93.17 93.05 91.73 93.04 90.29 93.03 M 107.06 93.08 C 106.23 94.39 105.42 95.72 104.61 97.05 C 105.37 98.40 106.14 99.75 106.91 101.09 C 108.57 101.02 110.23 100.94 111.89 100.87 C 112.24 98.33 112.76 95.72 111.79 93.25 C 110.21 93.20 108.63 93.14 107.06 93.08 M 65.10 97.91 C 64.36 99.26 63.44 100.55 62.97 102.03 C 63.52 103.31 64.23 104.51 64.91 105.72 C 66.45 105.71 67.99 105.72 69.53 105.73 C 70.30 104.40 71.07 103.07 71.82 101.72 C 71.11 100.48 70.40 99.24 69.69 98.00 C 68.16 97.97 66.63 97.94 65.10 97.91 M 81.89 97.93 C 81.10 99.26 80.33 100.59 79.56 101.93 C 80.69 103.56 81.41 106.46 83.98 105.86 C 86.58 106.52 87.36 103.63 88.51 102.00 C 87.77 100.65 87.03 99.32 86.28 97.98 C 84.82 97.97 83.35 97.95 81.89 97.93 M 98.45 98.00 C 97.73 99.29 96.99 100.58 96.26 101.86 C 97.01 103.20 97.77 104.54 98.52 105.88 C 99.96 105.90 101.41 105.92 102.85 105.96 C 103.63 104.64 104.45 103.34 105.09 101.95 C 104.49 100.56 103.69 99.26 102.94 97.95 C 101.44 97.98 99.94 97.99 98.45 98.00 M 56.72 102.55 C 57.91 105.40 59.37 108.13 61.22 110.60 C 62.04 109.33 62.86 108.06 63.67 106.79 C 62.89 105.36 62.11 103.93 61.31 102.51 C 59.78 102.52 58.25 102.54 56.72 102.55 M 73.31 102.92 C 72.61 104.14 71.90 105.36 71.18 106.57 C 71.89 107.81 72.59 109.06 73.28 110.30 C 74.80 110.37 76.32 110.44 77.84 110.51 C 78.61 109.24 79.38 107.97 80.17 106.71 C 79.42 105.40 78.66 104.09 77.91 102.78 C 76.38 102.84 74.84 102.88 73.31 102.92 M 90.12 102.82 C 89.41 104.02 88.67 105.22 88.07 106.49 C 88.39 108.05 89.53 109.36 90.25 110.77 C 91.65 110.74 93.06 110.72 94.47 110.70 C 95.28 109.33 96.08 107.96 96.87 106.59 C 96.14 105.38 95.41 104.16 94.69 102.95 C 93.16 102.91 91.64 102.87 90.12 102.82 M 104.85 106.89 C 105.38 108.14 105.96 109.37 106.59 110.58 C 108.66 108.41 109.94 105.67 111.13 102.95 C 109.68 102.92 108.24 102.90 106.79 102.87 C 106.10 104.18 105.13 105.40 104.85 106.89 M 62.71 111.24 C 63.86 113.18 65.27 115.67 67.91 115.48 C 70.18 115.69 70.69 112.82 71.93 111.47 C 71.02 110.22 70.49 108.56 69.16 107.70 C 67.75 107.58 66.33 107.52 64.92 107.50 C 64.19 108.75 63.46 110.00 62.71 111.24 M 79.81 111.14 C 79.82 112.75 81.12 113.94 81.83 115.29 C 83.34 115.28 84.84 115.28 86.35 115.29 C 87.51 113.54 89.25 111.53 87.47 109.52 C 86.70 107.06 83.85 107.76 81.91 107.48 C 81.17 108.67 80.34 109.83 79.81 111.14 M 98.30 107.83 C 97.58 109.12 96.84 110.40 96.10 111.67 C 96.78 112.88 97.47 114.10 98.16 115.31 C 101.17 115.82 103.73 114.44 105.26 111.85 C 104.49 110.45 103.72 109.05 102.94 107.66 C 101.39 107.72 99.84 107.78 98.30 107.83 M 73.49 112.32 C 72.61 113.78 71.75 115.26 70.90 116.73 C 72.35 119.11 75.00 119.87 77.52 120.58 C 78.35 119.10 79.55 117.74 79.97 116.07 C 79.35 114.76 78.58 113.54 77.84 112.30 C 76.39 112.31 74.94 112.32 73.49 112.32 M 90.08 112.19 C 89.28 113.54 88.48 114.89 87.68 116.23 C 88.47 117.65 89.26 119.07 90.04 120.48 C 92.82 119.93 95.93 119.28 97.11 116.35 C 96.28 114.99 95.47 113.63 94.66 112.28 C 93.13 112.26 91.60 112.23 90.08 112.19 M 79.70 120.68 C 82.62 120.84 85.54 120.83 88.45 120.67 C 87.71 119.43 86.96 118.19 86.21 116.95 C 84.77 116.98 83.33 116.99 81.90 117.01 C 81.16 118.23 80.43 119.45 79.70 120.68 Z" />
</g>
</svg>
