<?xml version="1.0" encoding="UTF-8" ?>
<!DOCTYPE svg PUBLIC "-//W3C//DTD SVG 1.1//EN" "http://www.w3.org/Graphics/SVG/1.1/DTD/svg11.dtd">
<svg width="203pt" height="224pt" viewBox="0 0 203 224" version="1.1" xmlns="http://www.w3.org/2000/svg">
<g id="#fafafaff">
</g>
<g id="#000000ff">
<path fill="#000000" opacity="1.00" d=" M 92.30 17.66 C 96.74 17.53 101.18 17.53 105.62 17.65 L 105.33 18.32 C 108.41 18.23 111.49 18.41 114.56 18.68 L 114.39 19.30 C 116.14 19.34 117.89 19.45 119.64 19.54 L 119.31 20.31 C 120.72 20.39 122.14 20.47 123.56 20.55 L 123.35 21.18 C 124.89 21.38 126.44 21.63 127.93 22.13 C 129.45 22.72 130.99 23.27 132.56 23.75 L 132.34 24.04 C 133.64 24.41 134.91 24.86 136.16 25.39 C 136.44 25.38 137.00 25.36 137.28 25.36 L 137.54 26.58 C 137.99 26.51 138.88 26.37 139.33 26.30 L 139.53 27.60 C 139.98 27.51 140.89 27.33 141.34 27.25 L 141.53 28.61 C 141.99 28.51 142.89 28.30 143.35 28.19 L 143.46 29.13 C 145.42 29.90 147.24 30.98 148.88 32.30 C 149.84 32.75 150.81 33.18 151.79 33.60 L 151.37 34.17 C 153.15 34.75 154.51 36.03 155.90 37.23 C 157.47 38.04 158.77 39.22 159.90 40.57 L 160.17 40.48 C 160.53 40.80 161.27 41.44 161.63 41.76 L 161.55 42.03 C 162.38 42.68 163.21 43.33 164.04 43.98 C 165.11 45.08 166.15 46.22 166.97 47.54 L 167.38 47.29 C 167.70 47.64 168.35 48.36 168.67 48.71 L 168.33 49.49 L 169.14 49.39 C 170.39 50.93 171.61 52.49 172.75 54.10 C 173.81 55.40 174.83 56.73 175.75 58.13 C 176.68 59.50 177.64 60.85 178.62 62.19 C 178.57 62.39 178.47 62.80 178.42 63.00 C 181.41 66.60 183.51 71.10 184.80 75.58 L 185.27 75.47 C 185.73 77.03 186.27 78.56 186.78 80.10 C 187.17 81.09 187.56 82.08 187.94 83.08 C 188.27 84.38 188.58 85.69 188.91 87.00 C 189.38 88.54 189.61 90.14 189.78 91.74 L 190.30 91.48 C 190.41 95.69 191.73 99.76 191.69 103.98 C 191.68 110.46 191.89 116.96 191.31 123.42 L 190.71 123.43 C 190.64 125.50 190.50 127.57 190.37 129.64 L 189.68 129.32 C 189.60 130.72 189.52 132.11 189.43 133.51 L 188.68 133.37 C 188.59 134.73 188.50 136.10 188.41 137.46 L 187.89 137.38 C 187.59 138.60 187.24 139.81 186.86 141.01 C 185.45 145.53 183.27 149.73 181.27 154.01 C 180.55 155.24 179.87 156.49 179.26 157.78 L 178.36 157.40 C 178.43 157.75 178.57 158.46 178.64 158.81 C 177.75 160.04 176.93 161.32 176.22 162.66 L 175.83 162.42 C 174.79 164.53 173.71 166.89 171.47 167.97 C 171.55 168.20 171.73 168.67 171.82 168.91 C 171.37 169.25 170.48 169.93 170.03 170.28 C 169.87 170.63 169.53 171.34 169.36 171.70 L 168.98 171.52 C 168.35 172.36 167.71 173.19 167.05 174.02 C 166.37 174.68 165.69 175.34 165.01 176.01 C 164.35 176.69 163.70 177.38 163.05 178.07 C 162.21 178.72 161.36 179.36 160.50 179.99 L 160.71 180.37 C 160.36 180.70 159.65 181.35 159.29 181.68 L 158.95 181.40 C 157.78 182.74 156.40 183.85 154.87 184.75 C 153.60 185.84 152.25 186.84 150.85 187.76 C 149.28 188.87 147.64 189.89 145.92 190.76 C 142.66 192.87 139.18 194.77 135.43 195.86 L 135.52 196.38 C 133.96 196.80 132.43 197.29 130.89 197.76 C 128.99 198.72 126.99 199.45 124.91 199.89 C 123.60 200.24 122.28 200.55 120.97 200.90 C 119.19 201.54 117.31 201.73 115.43 201.71 L 115.49 202.30 C 106.87 203.32 98.14 204.19 89.46 203.09 C 87.17 202.67 84.84 202.45 82.51 202.29 L 82.57 201.71 C 80.69 201.72 78.80 201.56 77.03 200.88 C 75.71 200.55 74.39 200.23 73.08 199.89 C 71.00 199.45 69.00 198.71 67.10 197.76 C 65.55 197.30 64.00 196.79 62.45 196.34 L 62.55 195.82 C 58.80 194.80 55.33 192.86 52.10 190.74 C 50.36 189.92 48.73 188.89 47.16 187.77 C 45.75 186.86 44.41 185.84 43.13 184.75 C 41.60 183.85 40.22 182.74 39.06 181.40 L 38.69 181.67 C 38.34 181.35 37.64 180.72 37.29 180.40 L 37.45 180.03 C 36.61 179.35 35.78 178.67 34.94 177.99 C 33.57 176.72 32.27 175.38 31.00 174.01 C 30.33 173.19 29.66 172.38 29.00 171.56 L 28.64 171.70 C 28.47 171.34 28.13 170.63 27.95 170.27 C 27.51 169.93 26.63 169.25 26.18 168.90 C 26.27 168.68 26.43 168.23 26.52 168.01 C 25.61 167.45 24.83 166.75 24.18 165.90 C 22.56 163.55 20.97 161.18 19.32 158.85 C 19.42 158.50 19.61 157.79 19.71 157.43 L 18.73 157.77 C 18.12 156.49 17.45 155.23 16.73 154.01 C 14.76 149.71 12.52 145.53 11.14 141.00 C 10.76 139.80 10.41 138.60 10.11 137.39 L 9.59 137.45 C 9.49 136.09 9.40 134.73 9.32 133.37 L 8.56 133.51 C 8.48 132.12 8.40 130.72 8.32 129.33 L 7.62 129.62 C 7.50 127.56 7.36 125.49 7.29 123.43 L 6.69 123.42 C 6.11 116.96 6.31 110.47 6.31 103.99 C 6.25 99.77 7.62 95.71 7.65 91.50 C 7.82 91.53 8.17 91.57 8.34 91.60 C 8.41 90.05 8.56 88.49 9.11 87.03 C 9.43 85.71 9.72 84.39 10.05 83.08 C 10.44 82.08 10.83 81.09 11.24 80.11 C 11.72 78.56 12.26 77.03 12.73 75.48 L 13.14 75.55 C 14.59 71.11 16.54 66.58 19.58 62.99 C 19.53 62.79 19.43 62.39 19.38 62.19 C 20.36 60.85 21.32 59.50 22.24 58.12 C 23.18 56.74 24.19 55.40 25.24 54.10 C 26.39 52.49 27.61 50.93 28.86 49.39 L 29.67 49.50 L 29.34 48.74 C 29.67 48.39 30.33 47.69 30.66 47.34 L 31.00 47.49 C 31.64 46.64 32.30 45.80 32.96 44.97 C 33.67 44.32 34.38 43.65 35.07 42.97 C 35.47 42.78 36.27 42.39 36.67 42.20 L 36.32 41.27 L 37.58 41.66 L 37.31 40.48 L 38.09 40.57 C 39.24 39.24 40.53 38.04 42.10 37.22 C 44.40 35.52 46.38 33.29 49.12 32.28 C 50.77 30.98 52.58 29.90 54.55 29.13 L 54.65 28.19 C 55.10 28.29 56.01 28.51 56.47 28.61 L 56.66 27.25 C 57.11 27.33 58.02 27.51 58.47 27.60 L 58.67 26.30 C 59.12 26.37 60.01 26.51 60.45 26.58 L 60.73 25.37 C 61.01 25.37 61.57 25.39 61.85 25.39 C 63.09 24.87 64.35 24.41 65.65 24.04 L 65.44 23.76 C 67.01 23.27 68.55 22.72 70.08 22.12 C 71.56 21.63 73.11 21.37 74.66 21.18 L 74.39 20.56 C 75.82 20.47 77.25 20.39 78.69 20.31 L 78.36 19.54 C 80.10 19.45 81.84 19.34 83.59 19.31 L 83.51 18.68 C 86.58 18.39 89.66 18.23 92.75 18.33 L 92.30 17.66 M 87.10 19.73 C 85.09 20.44 82.96 20.61 80.86 20.80 C 79.56 21.20 78.24 21.55 76.93 21.91 C 75.63 22.26 74.31 22.54 72.98 22.81 C 71.99 23.18 71.00 23.55 70.01 23.93 C 68.78 24.30 67.53 24.62 66.28 24.90 L 66.58 25.33 C 64.86 25.90 63.14 26.53 61.35 26.86 L 61.41 27.90 C 60.94 27.77 60.01 27.50 59.54 27.36 L 59.37 28.78 C 58.90 28.69 57.97 28.52 57.50 28.43 L 57.28 29.88 C 56.95 29.76 56.31 29.52 55.98 29.40 C 54.52 30.88 52.73 31.93 50.83 32.75 C 49.47 33.70 48.13 34.70 46.83 35.74 C 46.60 35.67 46.16 35.54 45.94 35.47 C 45.30 36.89 43.97 37.77 42.88 38.81 C 42.68 38.74 42.27 38.58 42.07 38.51 C 41.39 39.49 40.58 40.34 39.61 41.05 L 39.63 41.24 C 39.26 41.56 38.53 42.21 38.17 42.54 L 37.88 42.42 C 35.71 44.89 32.97 46.81 31.14 49.58 L 30.35 49.49 L 30.57 50.17 C 30.24 50.54 29.59 51.29 29.26 51.67 L 28.88 51.43 C 28.03 53.04 26.95 54.52 25.73 55.87 C 24.81 57.26 23.82 58.60 22.75 59.87 C 21.87 61.63 20.91 63.35 19.71 64.91 C 17.86 68.76 15.49 72.40 14.30 76.53 L 13.97 76.33 C 13.59 77.65 13.13 78.95 12.59 80.23 L 13.10 81.54 C 12.75 81.46 12.05 81.31 11.71 81.24 C 11.62 82.67 11.52 84.09 11.42 85.52 L 10.68 85.37 C 10.60 86.74 10.51 88.10 10.41 89.46 L 9.66 89.38 C 9.58 90.81 9.51 92.24 9.43 93.66 L 8.69 93.29 C 8.71 95.71 8.54 98.13 8.33 100.54 L 7.65 100.36 C 7.64 107.11 7.63 113.86 7.65 120.61 L 8.32 120.51 C 8.53 122.88 8.71 125.26 8.64 127.65 C 8.83 127.59 9.21 127.47 9.40 127.41 C 9.48 128.32 9.65 130.14 9.74 131.05 C 10.18 132.36 10.55 133.68 10.94 135.01 C 11.39 136.55 11.63 138.13 11.80 139.72 L 12.82 139.33 C 12.77 139.72 12.67 140.49 12.62 140.88 C 13.11 142.11 13.55 143.36 13.94 144.62 L 14.24 144.52 C 15.85 148.96 17.88 153.35 20.64 157.20 C 20.55 157.52 20.38 158.17 20.29 158.49 L 21.33 158.28 C 21.82 159.38 22.31 160.48 22.80 161.58 L 24.05 161.60 C 23.90 161.94 23.58 162.61 23.42 162.95 C 24.30 163.54 25.10 164.24 25.82 165.02 C 26.76 166.56 27.82 168.02 28.86 169.49 L 29.59 169.43 L 29.44 170.13 C 32.83 173.36 35.72 177.16 39.60 179.87 L 39.40 180.19 C 39.77 180.45 40.50 180.97 40.87 181.23 C 42.26 182.17 43.60 183.19 44.87 184.30 C 46.10 185.14 47.34 185.97 48.61 186.76 L 48.54 187.69 C 48.86 187.60 49.50 187.43 49.83 187.34 C 51.16 188.32 52.51 189.29 53.85 190.26 C 56.63 191.55 59.45 192.78 62.00 194.50 C 62.34 194.44 63.02 194.32 63.36 194.26 L 63.33 195.11 C 64.54 195.41 65.74 195.75 66.93 196.15 C 68.46 196.71 70.00 197.26 71.56 197.72 L 71.33 198.31 C 72.74 198.38 74.16 198.47 75.57 198.56 L 75.35 199.32 C 76.72 199.40 78.10 199.48 79.48 199.57 L 79.38 200.29 C 81.41 200.40 83.43 200.56 85.46 200.69 L 85.35 201.32 C 88.77 201.41 92.19 201.69 95.62 201.69 L 95.31 202.35 C 98.13 202.28 100.96 202.28 103.78 202.35 L 103.23 201.67 C 106.74 201.63 110.24 201.32 113.76 201.29 L 113.26 200.57 C 115.04 200.49 116.82 200.38 118.61 200.34 L 118.52 199.57 C 119.89 199.48 121.27 199.40 122.65 199.32 L 122.44 198.56 C 123.85 198.47 125.26 198.38 126.67 198.31 L 126.43 197.72 C 128.00 197.27 129.53 196.72 131.05 196.15 C 132.24 195.75 133.45 195.41 134.67 195.11 L 134.65 194.26 C 134.99 194.32 135.66 194.44 136.00 194.50 C 138.55 192.78 141.37 191.55 144.15 190.26 C 145.49 189.28 146.84 188.32 148.19 187.34 C 148.50 187.43 149.14 187.60 149.46 187.69 L 149.37 186.78 C 150.63 185.97 151.87 185.14 153.12 184.31 C 154.39 183.20 155.72 182.17 157.12 181.24 C 157.49 180.97 158.23 180.45 158.60 180.19 L 158.42 179.87 C 162.14 177.14 165.15 173.63 168.26 170.26 C 168.54 169.98 169.08 169.41 169.35 169.12 C 171.07 167.05 172.13 164.30 174.60 162.97 C 174.43 162.63 174.10 161.95 173.93 161.61 L 175.21 161.60 C 175.65 160.45 176.14 159.34 176.68 158.24 L 177.71 158.49 C 177.62 158.17 177.45 157.53 177.36 157.20 C 180.12 153.35 182.14 148.97 183.77 144.53 L 184.05 144.62 C 184.46 143.32 184.92 142.05 185.43 140.80 C 185.33 140.48 185.14 139.83 185.04 139.51 L 186.19 139.74 C 186.37 138.14 186.62 136.55 187.06 135.00 C 187.44 133.68 187.81 132.35 188.25 131.04 C 188.39 129.82 188.53 128.61 188.65 127.39 L 189.31 127.67 C 189.30 125.28 189.48 122.89 189.68 120.51 L 190.35 120.61 C 190.37 113.86 190.35 107.11 190.35 100.36 L 189.67 100.54 C 189.46 98.13 189.29 95.72 189.31 93.30 L 188.57 93.65 C 188.49 92.23 188.42 90.81 188.34 89.38 L 187.59 89.46 C 187.49 88.10 187.40 86.74 187.32 85.37 L 186.64 85.57 C 186.56 84.85 186.39 83.41 186.31 82.69 C 185.88 81.81 185.45 80.93 185.02 80.06 C 184.69 78.80 184.39 77.55 184.12 76.29 L 183.72 76.53 C 182.48 72.41 180.15 68.76 178.30 64.91 C 177.08 63.35 176.13 61.63 175.26 59.87 C 174.16 58.61 173.17 57.26 172.27 55.85 C 171.03 54.52 169.96 53.04 169.13 51.43 L 168.71 51.67 C 168.39 51.30 167.74 50.56 167.41 50.19 L 167.65 49.50 L 166.86 49.58 C 165.01 46.83 162.32 44.86 160.11 42.43 L 159.83 42.54 C 159.47 42.22 158.74 41.56 158.38 41.24 L 158.41 41.02 C 157.39 40.37 156.58 39.53 155.98 38.49 C 155.76 38.57 155.32 38.72 155.11 38.80 C 153.97 37.80 152.67 36.90 152.08 35.45 C 151.85 35.52 151.40 35.67 151.17 35.74 C 149.87 34.70 148.54 33.71 147.17 32.76 C 145.28 31.91 143.48 30.87 142.01 29.40 C 141.69 29.52 141.04 29.76 140.72 29.87 L 140.50 28.43 C 140.03 28.52 139.10 28.69 138.63 28.78 L 138.45 27.35 C 137.98 27.50 137.05 27.78 136.58 27.93 L 136.67 26.89 C 134.89 26.48 133.18 25.88 131.44 25.34 L 131.71 24.89 C 130.45 24.62 129.21 24.30 127.99 23.93 C 127.00 23.55 126.01 23.18 125.02 22.81 C 123.70 22.54 122.38 22.26 121.08 21.88 C 118.21 21.03 115.26 20.43 112.26 20.36 L 112.76 19.69 C 108.30 19.68 103.84 19.32 99.37 19.32 L 99.73 18.60 L 97.02 18.70 L 97.92 19.37 C 94.31 19.34 90.71 19.52 87.10 19.73 Z" />
</g>
</svg>
