<?xml version="1.0" encoding="utf-8"?>
<!-- Generator: Adobe Illustrator 21.1.0, SVG Export Plug-In . SVG Version: 6.00 Build 0)  -->
<svg version="1.1" id="Layer_1" xmlns="http://www.w3.org/2000/svg" xmlns:xlink="http://www.w3.org/1999/xlink" x="0px" y="0px"
	 viewBox="0 0 441.6 441.6" style="enable-background:new 0 0 441.6 441.6;" xml:space="preserve">
<style type="text/css">
	.st0{fill:#010101;}
	.st1{fill:none;}
</style>
<g>
	<circle class="st0" cx="220.8" cy="383.6" r="3.5"/>
</g>
<g>
	<path class="st0" d="M346.9,441.6H94.7C42.5,441.6,0,399.1,0,346.9V94.7C0,42.5,42.5,0,94.7,0h252.1c52.2,0,94.7,42.5,94.7,94.7
		v252.1C441.6,399.1,399.1,441.6,346.9,441.6z M94.7,8C46.9,8,8,46.9,8,94.7v252.1c0,47.8,38.9,86.7,86.7,86.7h252.1
		c47.8,0,86.7-38.9,86.7-86.7V94.7c0-47.8-38.9-86.7-86.7-86.7H94.7z"/>
</g>
<g>
	<path class="st0" d="M220.8,354.1c-73.5,0-133.3-59.8-133.3-133.3S147.3,87.4,220.8,87.4s133.3,59.8,133.3,133.3
		S294.3,354.1,220.8,354.1z M220.8,91.4c-71.3,0-129.3,58-129.3,129.3S149.5,350,220.8,350s129.3-58,129.3-129.3
		S292.1,91.4,220.8,91.4z"/>
</g>
<g>
	<path d="M323.5,119.1"/>
	<path d="M320.4,122.2c25.5,25.5,40.1,59.6,40.1,98.4l4.4,0c0-39.5-15.8-75.3-41.5-101.5L320.4,122.2l3-3.1"/>
	<path d="M360.6,220.7"/>
</g>
<line class="st1" x1="0" y1="0" x2="441.6" y2="441.6"/>
<line class="st1" x1="219.7" y1="446" x2="219.7" y2="-6"/>
<line class="st1" x1="0" y1="220" x2="441.6" y2="220.8"/>
<line class="st1" x1="119.2" y1="325.6" x2="0" y2="446"/>
<line class="st1" x1="321" y1="121.7" x2="320.5" y2="122.3"/>
<line class="st1" x1="322.4" y1="120.3" x2="321" y2="121.7"/>
<line class="st1" x1="323.5" y1="119.2" x2="320.5" y2="122.3"/>
<line class="st1" x1="323.5" y1="119.2" x2="323.4" y2="119.3"/>
<path class="st0" d="M119.3,323.3"/>
<path class="st0" d="M122.4,320.2c-25.5-25.5-40.1-59.6-40.1-98.4l-4.4,0c0,39.5,15.8,75.3,41.5,101.5L122.4,320.2l-3,3.1"/>
<g>
	<path d="M333.1,114.3"/>
	<path d="M334,121.5l3.1-2.9"/>
	<path d="M337.1,118.6l-3.1,2.9c22.1,24,35.1,54.9,36.2,89.8l4.3-0.2C373.4,175.6,359.4,143.2,337.1,118.6z"/>
	<path d="M374.5,211.1l-4.3,0.2"/>
</g>
<path class="st0" d="M105.8,323.8l3.1-2.9c-22.1-24-35.1-54.9-36.2-89.8l-4.3,0.2C69.5,266.8,83.5,299.2,105.8,323.8z"/>
</svg>
