<?xml version="1.0"?>
<svg version="1.1" id="Capa_1" xmlns="http://www.w3.org/2000/svg" xmlns:xlink="http://www.w3.org/1999/xlink" x="0px" y="0px"
	 viewBox="0 0 362 272" xml:space="preserve">
<g id="phoscon-conbee-lg" transform="translate(-49.395 -389.33)" stroke="#808080">
  <g id="g4741" transform="matrix(.55028 0 0 .55028 -626.45 230.44)">
   <g id="g4701" transform="translate(356.48 -33.698)" fill-opacity="0">
    <path id="path4614" class="lg-line lg-frame" d="m1307.6 698.89c-1.5874 1.2269-1.9009 33.969 0 35.355 27.509 20.066 111.6 77.484 111.6 77.484 3.2777 2.4334 6.6473 4.4682 11.314 0.88388l92.631-74.953c1.7026-1.6236 2.3031-3.7982 2.1213-6.364l1.4142-24.749c0.1908-6.9264-3.8784-8.147-7.4246-10.607-5.7069-3.9584-107.3-72.478-107.3-72.478-2.5337-1.6582-5.0675-1.2839-7.6013 0.35355 0 0-60.55 47.094-96.752 75.075z" stroke-width="7.269"></path>
    <path id="path4616" class="lg-line lg-frame" d="m1424.2 814.12-0.75-26.125c0.3923-6.5183 2.49-8.2614 4.5-10.25l94.586-75.767c1.5918-0.69387 2.82-0.66072 3.4135 0.64198" stroke-width="7.269"></path>
    <path id="path4618" class="lg-line lg-frame" d="m1311 696.12 114 79.75c1.6743 1.0265 2.072 2.2658 1.75 3.625" stroke-width="7.269"></path>
    <path id="path4620" class="lg-line" d="m1305.8 703.42 117.23 81.975" stroke-width="3.6345"></path>
    <path id="path4622" class="lg-line" d="m1424.3 808.37s57.563-46.873 90.106-72.837c1.3826-1.1031 2.1637-2.8961 2.6516-4.5962 0.4554-1.5869 0.5473-3.3409 0.1768-4.9498-0.4791-2.0807-1.6494-4.0074-3.0052-5.6569-2.0745-2.5239-7.6014-6.1872-7.6014-6.1872" stroke-width="3.6345"></path>
    <path id="rect4624" class="lg-line" d="m1374.2 720.25 18.907-14.166c1.0626-0.7955 2.3047-0.50806 3.3772 0.2739l14.763 10.764c1.0724 0.78197 0.7882 2.5813-0.274 3.3772l-18.907 14.166c-1.0625 0.79549-2.3047 0.50798-3.3772-0.27399l-14.762-10.764c-1.0725-0.78197-0.7883-2.5812 0.274-3.3771z" stroke-linecap="round" stroke-linejoin="round" stroke-width="3.6345"></path>
    <path id="path4627" class="lg-line" d="m1426 679.75 17.907-13.416c1.0623-0.79589 2.2569-0.43783 3.3772 0.2739l15.763 10.014c1.1203 0.71169 0.7882 2.5813-0.274 3.3772l-18.907 14.166c-1.0625 0.79549-2.3047 0.50798-3.3772-0.27399l-14.762-10.764c-1.0725-0.78197-0.7883-2.5812 0.274-3.3771z" stroke-linecap="round" stroke-linejoin="round" stroke-width="3.6345"></path>
   </g>
   <path id="path4714" class="lg-line" transform="matrix(1.0025 -.0086883 0 .99997 .73641 2.3345)" d="m1627.7 569.54c-23.579 17.438-98.812-5.6116-168.04-51.483-69.226-45.872-106.23-97.194-82.651-114.63 23.579-17.438 98.812 5.6116 168.04 51.483 69.226 45.872 106.23 97.194 82.651 114.63z" fill-opacity="0" stroke-linejoin="round" stroke-width="3.6301"></path>
   <path id="path4712" class="lg-line lg-frame" transform="matrix(1.0025 -.0086883 0 .99997 .73641 2.3345)" d="m1384 308.33c-7.8878-3.4417-15.955-7.1374-23.333-5.6354-2.4748 0.50388-7.561 3.2649-10.076 4.8975 0 0-8.5442 6.0525-13.806 11.447-1.1282 8.1535-4.9749 12.142-8.295 17.338-4.9841 7.8005-12.63 12.839-21.045 19.121-8.6991 6.4936-19.357 11.813-30.538 15.913-8.3888 3.076-22.395 3.4326-26.723 6.261-4.3281 2.8285-11.592 7.9604-17.593 13.034-2.1368 1.8063-3.9523 5.7357-3.3843 8.607 1.0178 5.1442 9.0321 10.687 11.663 12.883" fill-opacity="0" stroke-linejoin="round" stroke-width="7.2601"></path>
   <path id="path4710" class="lg-line lg-frame" transform="matrix(1.0025 -.0086883 0 .99997 .73641 2.3345)" d="m1765.8 566.71s9.2324 4.4188 10.519 5.7043c1.7046 1.2312-136.28 104.75-138.04 105.05-2.8763 0.48871-12.283-6.9246-12.283-6.9246" fill-opacity="0" stroke-linejoin="round" stroke-width="7.2601"></path>
   <path id="use4667" class="lg-line lg-frame" transform="matrix(1.0025 -.0086883 0 .99997 .73641 2.3345)" d="m1774 546.8-361.89-241.92c-4.3505-2.6566-8.7853-2.9898-13.254-2.3804-4.1868 0.4048-7.5577 1.9921-10.642 3.9942 0 0-18.261 9.8848-18.157 12.198 0.4752 10.51-4.6864 19.831-10.049 29.089-5.616 9.6952-14.261 18.81-24.581 26.514-10.668 7.9631-23.447 14.949-37.449 19.515-12.29 4.0071-36.124 5.1694-39.159 6.3563-3.0342 1.1869-14.215 9.7618-21.575 15.983-2.6203 2.215-3.9029 5.3179-3.7927 8.096 0.1542 3.8888 2.9517 7.8796 6.1776 10.572l363.51 240.42c1.3385 0.88199 2.7768 1.4517 4.8052 0.16792 0 0 27.851-19.91 30.532-21.771 2.6812-1.8616 2.7825-20.849 8.2872-30.613 4.0161-7.1232 10.368-13.738 17.59-19.589 8.9772-7.2736 19.602-13.775 31.297-18.722 15.891-6.722 48.918-10.417 51.148-11.311 2.2297-0.89448 26.109-20.415 26.109-20.415 3.3329-2.5279 3.4223-4.6218 1.0988-6.175z" fill-opacity="0" stroke-linejoin="round" stroke-width="7.2601"></path>
   <path id="path4669" class="lg-line lg-frame" transform="matrix(1.0025 -.0086883 0 .99997 .73641 2.3345)" d="m1233.1 423.52c-4.3746 34.708-1.5114 57.994 9.799 67.063l355.5 247.12c6.3481 4.7352 15.4 4.7259 18.05 3.4016l15.45-5.9016" fill-opacity="0" stroke-width="7.2601"></path>
   <path id="path4704" class="lg-line" transform="matrix(1.0025 -.0086883 0 .99997 .73641 2.3345)" d="m1624.6 671.14s11.154-7.1498 13.835-9.0114c2.6812-1.8616 2.7825-20.849 8.2872-30.613 4.0161-7.1232 10.368-13.738 17.59-19.589 8.9772-7.2736 19.602-13.775 31.297-18.722 15.891-6.722 48.918-10.417 51.148-11.311 2.2297-0.89448 20.758-16.253 20.758-16.253" fill-opacity="0" stroke-linecap="round" stroke-linejoin="round" stroke-width="3.6301"></path>
   <path id="path4677" class="lg-line lg-frame" d="m1644 727.12-13.05-8.8787 0.1768-59.278m43.045 48.98-30.172 19.237-0.6768-62.021" fill-opacity="0" stroke-linejoin="round" stroke-width="7.269"></path>
   <path id="path4679" class="lg-line lg-frame" d="m1232.9 389.56-1.0607 32.527c0.4886 2.6874 1.9004 3.9663 3.8891 4.5962" fill-opacity="0" stroke-width="7.269"></path>
   <path id="path4681" class="lg-line lg-frame" d="m1781.5 559.3-0.9748 37.879" fill-opacity="0" stroke-width="7.269"></path>
   <path id="path4683" class="lg-line lg-frame" d="m1780 534.37c4.094 2.4996 1.5504 15.648 0.5304 24.395" fill-opacity="0" stroke-width="7.269"></path>
   <path id="path4706" class="lg-line" d="m1610 664.3v64.5" fill="none" stroke-width="3.6345"></path>
  </g>
  <g id="text4745" transform="matrix(.59418 .3895 -.64228 .42848 1139.3 654.51)" fill="#808080" stroke-width="1.4075" aria-label="ConBee">
   <path id="path4747" class="lg-line lg-fill" d="m-1075.3 530.47q-0.093-3.4692 0.988-6.4999 1.1018-3.0312 3.2422-5.261 2.0793-2.186 5.0549-3.4615 2.9964-1.2759 6.2533-1.3514 2.9043-0.0673 5.395 0.70047 2.5109 0.74614 4.5877 2.3279l0.042 3.1106q-2.3145-1.936-4.7049-2.8331-2.3905-0.89711-5.0043-0.83654-5.8915 0.13654-9.4818 4.0298-3.5697 3.8928-3.4056 10.006 0.082 3.0673 1.0403 5.5004 0.9786 2.4327 2.876 4.2937 1.8755 1.8192 4.2457 2.738 2.391 0.91825 5.0878 0.85575 2.6139-0.0606 5.0787-1.0279 2.465-0.9673 4.637-2.7956l0.089 3.3q-2.2029 1.4481-4.6931 2.2466-2.469 0.81922-4.9168 0.87595-3.2984 0.0764-6.3387-1.0596-3.0403-1.136-5.2563-3.2649-2.2799-2.1908-3.5003-5.1259t-1.3152-6.4677z"></path>
   <path id="path4749" class="lg-line lg-fill" d="m-1045.3 535.89q-0.055-2.0519 0.6422-3.9096 0.6975-1.8577 2.0494-3.3072 1.372-1.4711 3.1563-2.2745 1.7843-0.80336 3.7758-0.84951 2.033-0.0471 3.879 0.67211 1.8666 0.71874 3.3366 2.124 1.47 1.4053 2.2663 3.2283 0.8169 1.8226 0.8714 3.8533 0.054 2.0307-0.6429 3.8884-0.6981 1.8365-2.0706 3.2865-1.4124 1.5144-3.2584 2.3404-1.8247 0.84663-3.8369 0.89326-1.9708 0.0457-3.7971-0.71634-1.8258-0.74085-3.3384-2.1875-1.4273-1.3639-2.2022-3.1663-0.7749-1.8024-0.8305-3.8754zm2.7601-0.0216q0.087 3.2365 2.2422 5.4302 2.1549 2.1726 5.1835 2.1024 3.0288-0.0702 5.0643-2.3399 2.0558-2.2913 1.969-5.5278-0.088-3.2788-2.2428-5.4514t-5.2044-2.1019q-3.0286 0.0702-5.0643 2.3399-2.0355 2.2697-1.9475 5.5485z"></path>
   <path id="path4751" class="lg-line lg-fill" d="m-1019.7 544.66-0.5036-18.763 2.4271-0.0562 0.078 2.898q1.072-1.824 2.6662-2.75 1.6143-0.94759 3.7303-0.99663 3.1325-0.0726 4.9227 1.6639t1.8754 4.9096l0.3418 12.734-2.5931 0.0601-0.3105-11.571q-0.076-2.8134-1.2736-4.1404-1.1779-1.3486-3.5842-1.2928-2.925 0.0678-4.2672 1.8769-1.3221 1.7875-1.2204 5.574l0.2629 9.7941z"></path>
   <path id="path4753" class="lg-line lg-fill" d="m-997.21 544.14-0.83121-30.969 5.2691-0.12211q3.4643-0.0803 5.0085 0.22259 1.5442 0.30289 2.6451 1.1029 1.5456 1.1284 2.3793 2.8024 0.83315 1.6529 0.88766 3.6836 0.0664 2.475-1.1524 4.2389-1.2189 1.7639-3.4238 2.3654 2.9369 0.37644 4.6487 2.2841 1.7118 1.9077 1.7919 4.8903 0.0585 2.1788-0.53918 3.886-0.59767 1.7072-1.8716 2.9644-1.2936 1.3-3.1464 1.8721-1.8534 0.55096-6.355 0.65528zm2.6937-2.4966 3.5266-0.0817q3.008-0.0697 4.1421-0.34999t1.906-0.91201q0.95456-0.78413 1.4996-2.1303 0.54451-1.3673 0.50363-2.8904-0.05-1.8615-0.73052-3.2428-0.68112-1.4024-1.8408-2.074-0.80079-0.44711-1.8846-0.6125-1.0637-0.18702-3.3248-0.13461l-0.6016 0.0139-3.5266 0.0817zm-0.3963-14.765 3.4436-0.0798q3.7963-0.088 5.318-1.3932 1.5425-1.3058 1.463-4.2673-0.0857-3.1942-1.656-4.4702-1.5496-1.2764-5.4288-1.1865l-3.4436 0.0798z"></path>
   <path id="path4755" class="lg-line lg-fill" d="m-975.92 534.46q-0.12378-4.6115 2.2688-7.5033 2.4133-2.8923 6.417-2.9851 3.817-0.0885 6.1901 2.4812 2.3725 2.5485 2.4895 6.9062l0.0153 0.57114-14.625 0.33894q0.20138 3.636 1.9373 5.6701 1.736 2.0341 4.5572 1.9687 2.033-0.0471 3.538-1.2038 1.505-1.1567 2.4607-3.4437l2.3793 1.2572q-1.334 2.8884-3.3514 4.2899-1.9972 1.3798-4.9637 1.4485-4.0452 0.0937-6.6291-2.598-2.5637-2.7134-2.6841-7.198zm2.862-2.4158 11.43-0.26489q-0.25597-2.5764-1.7876-3.9591-1.5316-1.3827-4.0832-1.3236-2.3234 0.0538-3.8602 1.5711-1.5161 1.5168-1.6992 3.9764z"></path>
   <path id="path4757" class="lg-line lg-fill" d="m-954.76 533.97q-0.12377-4.6115 2.2688-7.5033 2.4133-2.8923 6.417-2.9851 3.817-0.0884 6.1901 2.4812 2.3725 2.5485 2.4894 6.9062l0.0153 0.57114-14.625 0.33894q0.20139 3.636 1.9373 5.6701 1.736 2.0341 4.5572 1.9687 2.033-0.0471 3.538-1.2038 1.505-1.1567 2.4607-3.4437l2.3793 1.2572q-1.334 2.8884-3.3514 4.2899-1.9972 1.3798-4.9637 1.4485-4.0452 0.0937-6.6291-2.598-2.5637-2.7134-2.6841-7.198zm2.862-2.4158 11.43-0.26489q-0.25597-2.5764-1.7876-3.9591-1.5316-1.3827-4.0832-1.3235-2.3234 0.0538-3.8602 1.5711-1.5161 1.5168-1.6992 3.9764z"></path>
  </g>
 </g>
</svg>
