<?xml version="1.0"?>
<svg xmlns="http://www.w3.org/2000/svg" id="Ebene_1" data-name="Ebene 1" viewBox="0 0 590 161" width="200" height="55"><defs><style>.cls-1{fill:#1d1d1b;}.cls-2{fill:#e30613;}.cls-3{fill:#676c6e;}.cls-4{fill:#fff;}</style></defs><title>2019</title><path class="cls-1" d="M22.74,48.05v-5A10.22,10.22,0,0,1,19,47.68a10.33,10.33,0,0,1-5.71,1.56,12,12,0,0,1-9.43-4Q.26,41.22.26,34.61A15.8,15.8,0,0,1,3.79,24a11.41,11.41,0,0,1,9.11-4.12,11.17,11.17,0,0,1,6,1.52,10,10,0,0,1,3.88,4.46V.5h3.84V48.05ZM4.46,34.73q0,5.28,2.38,8.13a8.32,8.32,0,0,0,6.79,2.86,8.07,8.07,0,0,0,6.72-3.12q2.46-3.1,2.46-8.57c0-3.33-.81-6-2.43-7.87a8.27,8.27,0,0,0-6.68-2.87A8.24,8.24,0,0,0,7,26.34Q4.46,29.4,4.46,34.73"/><path class="cls-1" d="M37.21,26.3a16.68,16.68,0,0,1,4.1-5A7.69,7.69,0,0,1,46,19.83a8.85,8.85,0,0,1,1.61.15,10.47,10.47,0,0,1,1.62.43L48,24a10.4,10.4,0,0,0-1.28-.31,7,7,0,0,0-1.27-.12,7.08,7.08,0,0,0-5.81,3.19,12.75,12.75,0,0,0-2.41,7.94V48.05H33.44V20.84h3.77Z"/><path class="cls-1" d="M72.89,34.55H51.27q.15,5.28,2.63,8.28a8.19,8.19,0,0,0,6.66,3,8.82,8.82,0,0,0,5.28-1.63,12,12,0,0,0,3.77-4.91l3.47,1.91A15.08,15.08,0,0,1,68,47.29a13.41,13.41,0,0,1-7.41,2,12.56,12.56,0,0,1-9.68-4q-3.69-4-3.69-10.51,0-6.69,3.66-10.79a12.25,12.25,0,0,1,9.59-4.11,11.59,11.59,0,0,1,9,3.78q3.41,3.8,3.4,10.11Zm-4.48-3.22a8.41,8.41,0,0,0-2.48-5.8,8.45,8.45,0,0,0-6-2.05,8.15,8.15,0,0,0-5.76,2.14,8.77,8.77,0,0,0-2.68,5.71Z"/><path class="cls-1" d="M75.76,43.2l3.59-2.05a7.1,7.1,0,0,0,2.57,3.41,7.19,7.19,0,0,0,4.15,1.15,5.63,5.63,0,0,0,3.8-1.21,4,4,0,0,0,1.41-3.23q0-3.14-5.55-5.31c-.39-.14-.7-.27-.92-.37a17,17,0,0,1-6-3.48,6.14,6.14,0,0,1-1.72-4.43A7.35,7.35,0,0,1,79.53,22a9.13,9.13,0,0,1,6.35-2.23,10.57,10.57,0,0,1,5.65,1.45,8.32,8.32,0,0,1,3.4,4.11l-3.46,1.93a5.5,5.5,0,0,0-2.15-2.94,6.4,6.4,0,0,0-3.68-1,4.64,4.64,0,0,0-3.24,1.15,3.72,3.72,0,0,0-1.27,2.87,3.53,3.53,0,0,0,1.26,2.79,16.54,16.54,0,0,0,5.21,2.43q4.49,1.56,6,3.4A7.68,7.68,0,0,1,95.18,41a7.4,7.4,0,0,1-2.67,6,10.77,10.77,0,0,1-7.18,2.24,10.9,10.9,0,0,1-6-1.58,8.91,8.91,0,0,1-3.6-4.46"/><path class="cls-1" d="M121.18,48.05v-5a9.79,9.79,0,0,1-9.48,6.16,12,12,0,0,1-9.43-4q-3.58-4-3.58-10.61A15.85,15.85,0,0,1,102.22,24a11.43,11.43,0,0,1,9.11-4.12,11.23,11.23,0,0,1,6,1.52,10,10,0,0,1,3.88,4.46V.5H125V48.05ZM102.9,34.73q0,5.28,2.37,8.13a8.34,8.34,0,0,0,6.8,2.86,8.1,8.1,0,0,0,6.72-3.12q2.44-3.1,2.45-8.57c0-3.33-.81-6-2.42-7.87a9.11,9.11,0,0,0-13.44.18c-1.66,2-2.48,4.84-2.48,8.39"/><path class="cls-1" d="M155.87,34.55H134.25q.15,5.28,2.64,8.28a8.16,8.16,0,0,0,6.65,3,8.78,8.78,0,0,0,5.28-1.63,12,12,0,0,0,3.77-4.91l3.47,1.91A15,15,0,0,1,151,47.29a13.36,13.36,0,0,1-7.41,2,12.56,12.56,0,0,1-9.68-4q-3.69-4-3.69-10.51,0-6.69,3.66-10.79a12.25,12.25,0,0,1,9.59-4.11,11.59,11.59,0,0,1,9.05,3.78q3.41,3.8,3.4,10.11Zm-4.47-3.22a8.46,8.46,0,0,0-2.49-5.8,8.41,8.41,0,0,0-6-2.05,8.13,8.13,0,0,0-5.75,2.14,8.73,8.73,0,0,0-2.69,5.71Z"/><path class="cls-1" d="M161.21,48.05V20.84h3.59V25a11.08,11.08,0,0,1,4.07-3.91,11.41,11.41,0,0,1,5.53-1.3,9.74,9.74,0,0,1,7.21,2.57,9.7,9.7,0,0,1,2.58,7.18V48.05h-3.83V31.27q0-4.08-1.71-6.06c-1.13-1.32-2.89-2-5.26-2-2.88,0-5,.86-6.36,2.56s-2,4.39-2,8.06v14.2Z"/><path class="cls-1" d="M231.71,34.55H210.08q.16,5.28,2.64,8.28a8.19,8.19,0,0,0,6.66,3,8.82,8.82,0,0,0,5.28-1.63,12,12,0,0,0,3.77-4.91l3.46,1.91a15,15,0,0,1-5.1,6.08,13.41,13.41,0,0,1-7.41,2,12.55,12.55,0,0,1-9.68-4A14.9,14.9,0,0,1,206,34.73q0-6.69,3.67-10.79a12.23,12.23,0,0,1,9.59-4.11,11.61,11.61,0,0,1,9.05,3.78q3.41,3.8,3.4,10.11Zm-4.48-3.22a8.41,8.41,0,0,0-2.48-5.8,8.45,8.45,0,0,0-6-2.05A8.17,8.17,0,0,0,213,25.62a8.77,8.77,0,0,0-2.68,5.71Z"/><rect class="cls-1" x="237.3" y="0.5" width="3.9" height="47.55"/><path class="cls-1" d="M272.42,34.55H250.8q.15,5.28,2.63,8.28a8.19,8.19,0,0,0,6.66,3,8.82,8.82,0,0,0,5.28-1.63,12,12,0,0,0,3.77-4.91l3.47,1.91a15,15,0,0,1-5.11,6.08,13.39,13.39,0,0,1-7.41,2,12.56,12.56,0,0,1-9.68-4q-3.69-4-3.69-10.51,0-6.69,3.66-10.79A12.25,12.25,0,0,1,260,19.83a11.59,11.59,0,0,1,9,3.78q3.41,3.8,3.4,10.11Zm-4.48-3.22a8.41,8.41,0,0,0-2.48-5.8,8.43,8.43,0,0,0-6-2.05,8.13,8.13,0,0,0-5.75,2.14A8.73,8.73,0,0,0,251,31.33Z"/><polygon class="cls-1" points="277.76 48.05 277.76 0.5 281.54 0.5 281.54 32.89 295.09 20.84 300.31 20.84 285.74 33.05 301.38 48.05 296.17 48.05 281.54 33.97 281.54 48.05 277.76 48.05"/><polygon class="cls-1" points="305.45 24.06 300.45 24.06 300.45 20.84 305.45 20.84 305.45 9.67 309.16 9.67 309.16 20.84 314.62 20.84 314.62 24.06 309.16 24.06 309.16 48.05 305.45 48.05 305.45 24.06"/><path class="cls-1" d="M323.38,26.3a16.83,16.83,0,0,1,4.09-5,7.72,7.72,0,0,1,4.68-1.47,8.85,8.85,0,0,1,1.61.15,10.36,10.36,0,0,1,1.61.43L334.15,24a10.4,10.4,0,0,0-1.28-.31,6.87,6.87,0,0,0-7.08,3.07,12.75,12.75,0,0,0-2.41,7.94V48.05h-3.77V20.84h3.77Z"/><path class="cls-1" d="M348.68,49.24a13.92,13.92,0,0,1-5.59-1.15,15.57,15.57,0,0,1-4.84-3.29,13.71,13.71,0,0,1-3.13-4.67A14.75,14.75,0,0,1,334,34.49a14.51,14.51,0,0,1,1.11-5.64,14.23,14.23,0,0,1,3.16-4.73,14.47,14.47,0,0,1,10.37-4.29,15,15,0,0,1,5.72,1.1,14.78,14.78,0,0,1,4.83,3.19,14.47,14.47,0,0,1,.06,20.68,15,15,0,0,1-4.89,3.29,14.61,14.61,0,0,1-5.72,1.15m.12-3.52a10.14,10.14,0,0,0,7.59-3.24,11,11,0,0,0,3.11-7.93,11.06,11.06,0,0,0-3.1-8,10.56,10.56,0,0,0-15.18,0,11.1,11.1,0,0,0-3.1,8,11.06,11.06,0,0,0,3.1,7.93,10.09,10.09,0,0,0,7.58,3.24"/><path class="cls-1" d="M368.23,48.05V20.84h3.59V25a11.08,11.08,0,0,1,4.07-3.91,11.41,11.41,0,0,1,5.53-1.3,9.74,9.74,0,0,1,7.21,2.57,9.7,9.7,0,0,1,2.58,7.18V48.05h-3.83V31.27q0-4.08-1.71-6.06c-1.13-1.32-2.89-2-5.26-2-2.88,0-5,.86-6.36,2.56s-2,4.39-2,8.06v14.2Z"/><path class="cls-1" d="M397.12,10.22a2.75,2.75,0,0,1,.86-2,2.82,2.82,0,0,1,2-.84,2.88,2.88,0,0,1,2.07.84,2.86,2.86,0,0,1,0,4.1,2.88,2.88,0,0,1-2.1.83,2.84,2.84,0,0,1-2.07-.83,2.77,2.77,0,0,1-.84-2.06m.95,10.62H402V48.05h-3.89Z"/><polygon class="cls-1" points="409.19 48.05 409.19 0.5 412.97 0.5 412.97 32.89 426.52 20.84 431.74 20.84 417.17 33.05 432.81 48.05 427.6 48.05 412.97 33.97 412.97 48.05 409.19 48.05"/><polygon class="cls-2" points="449.9 56.38 449.82 20.84 485.42 20.84 449.9 56.38"/><polygon class="cls-3" points="450.08 160.5 449.89 56.38 485.42 20.84 589.74 20.84 589.74 160.5 450.08 160.5"/><path class="cls-4" d="M556.22,120.11a46.7,46.7,0,1,1,10.55-30.34,9.48,9.48,0,0,1-.21,2.81,8,8,0,0,1-1.62,3.51,8.31,8.31,0,0,1-6.84,3.1H506.7c-11.6,0-11.6-17.39,0-17.39h41.36a29.22,29.22,0,1,0-5.28,27.26c7.37-9,20.8,2.09,13.44,11"/></svg>
