<?xml version="1.0" encoding="utf-8"?>
<!-- Generator: Adobe Illustrator 21.1.0, SVG Export Plug-In . SVG Version: 6.00 Build 0)  -->
<svg version="1.1" id="Layer_1" xmlns="http://www.w3.org/2000/svg" xmlns:xlink="http://www.w3.org/1999/xlink" x="0px" y="0px"
	 viewBox="0 0 497 431.2" style="enable-background:new 0 0 497 431.2;" xml:space="preserve">
<style type="text/css">
	.st0{fill:#020202;}
	.st1{fill:#010101;}
	.st2{fill:none;}
</style>
<g>
	<path class="st0" d="M438.5,79.7l-81.1-66.6l-0.6-0.4c-9.1-5.4-19.9-7.4-26.5-7L78.5,20.4c-21.1,1.2-37.6,18.7-37.6,39.8v251.7
		c0,5.4,1.7,10.5,4.8,14.9l63.2,87.9c7.5,10.4,19.6,16.5,32.3,16.5c1.1,0,2.1,0,3.2-0.1L421,408.5c13.2-1.1,23.3-11.9,23.4-25.1
		l3.4-283.7l0,0C447.9,91.9,444.5,84.6,438.5,79.7z M73.8,31c0.3-0.7,1.2-1.6,2.5-2.3c0.9-0.1,1.8-0.2,2.7-0.3l251.8-14.7
		c0.3,0,0.7,0,1.1,0c4.7,0,13.2,1.5,20.6,5.8l74.4,61.1c-0.1,0.3-0.5,1-1.4,1L146.7,98.2c-8.6,0.5-17.1-3.1-22.8-9.6l-50-57
		C73.7,31.5,73.6,31.4,73.8,31z M53.6,48l46.1,49.1c7.9,8.4,12.3,19.4,12.3,31v261.4c0,0.3-0.1,0.4-0.4,0.5c-0.2,0.1-0.4,0-0.6-0.2
		l-61.8-86c-0.1-0.2-0.2-0.3-0.3-0.5V60.2c0-4.8,1.1-9.4,3-13.5C52.4,46.9,52.9,47.3,53.6,48z M436.5,383.2
		c-0.1,9.1-7,16.5-16.1,17.2L143.8,423c-11,0.9-21.9-4.1-28.4-13.1l-63.2-87.8c-2.2-3-3.3-6.5-3.3-10.2v-1.8l58.8,82
		c0.9,1.2,2.2,1.9,3.6,1.9c0.5,0,1-0.1,1.4-0.2c1.9-0.6,3.1-2.3,3.1-4.3V128.1c0-12.6-4.7-24.6-13.3-33.7l-46-49.1
		c-0.9-1-1.8-1.6-2.7-2c3.7-5.9,9.3-10.5,16-13c-0.4,1.5,0,2.9,1,4.1l50,57c6.1,6.9,15,11,24.2,11c0.6,0,1.2,0,1.9-0.1l278.9-16.7
		c1.8-0.1,3.4-1,4.3-2.5l3.3,2.7c4.1,3.4,6.5,8.4,6.4,13.7L436.5,383.2z"/>
	<path class="st0" d="M413.2,100.2L153.3,115c-12.1,0.7-21.6,10.7-21.6,22.9v256.8c0,6.4,2.7,12.5,7.4,16.9c4.2,3.9,9.8,6,15.5,6
		c0.6,0,1.3,0,1.9-0.1l254.9-21.4c11.8-1,21-11,21-22.8v-255c0-5-2-9.7-5.7-13.2C423,101.7,418.2,99.9,413.2,100.2z M428.4,373.3
		c0,9.8-7.6,18-17.3,18.8l-254.9,21.4c-5.3,0.4-10.4-1.3-14.4-4.9s-6.1-8.6-6.1-13.9V137.9c0-10,7.8-18.3,17.8-18.9l259.9-14.8
		c0.3,0,0.6,0,0.8,0c3.6,0,7,1.4,9.7,3.9c2.9,2.7,4.4,6.4,4.4,10.3L428.4,373.3L428.4,373.3z"/>
</g>
<g>
	<g>
		<g>
			<path class="st1" d="M261.4,278.5L261.4,278.5c-0.7,0-1.2-0.5-1.3-1.2c0-0.1,0-0.2,0-0.3l0.8-17.3l0.7-17.1c0-0.2,0-0.3,0-0.4
				c0.1-0.7,0.6-1.2,1.3-1.2c0.1,0,0.1,0,0.2,0c4.2-0.1,8.4-0.3,12.5-0.5c4.7-0.3,9.6-0.6,14.5-0.6c0.1,0,0.2,0,0.3,0
				c1.5,0,3,0.3,4.2,0.8c2.1,0.8,3.7,2,4.9,3.7c0.9,1.3,1.5,2.7,1.8,4.3c0.1,0.6,0.2,1.3,0.1,1.9l-0.6,23.7c0,0.1,0,0.2,0,0.3
				c-0.1,0.7-0.5,1.2-1.2,1.3c-0.1,0-0.2,0-0.3,0l-7.3,0.5c-0.1,0-0.2,0-0.3,0c-0.7,0-1.2-0.6-1.3-1.2c0-0.1,0-0.2,0-0.4l0.6-20.9
				c0-0.4,0-0.7,0-1c-0.1-0.9-0.6-1.7-1.3-2.4c-0.7-0.7-1.4-1.1-2.2-1.2c-0.3-0.1-0.6-0.1-1-0.1c-4.5,0.2-9.1,0.5-13.6,0.8l-1.7,0.1
				l-1.5,26.2c0,0.2,0,0.3,0,0.4c-0.1,0.7-0.6,1.3-1.3,1.3h-0.1c-2.3,0.2-4.6,0.3-6.7,0.5C261.6,278.5,261.5,278.5,261.4,278.5z
				 M268.1,276.1l0.2,1l-0.1-1C268.2,276,268.2,276,268.1,276.1z M267.8,276.5L267.8,276.5L267.8,276.5z M263.6,243l-1.5,33.4
				c1.8-0.1,3.7-0.2,5.7-0.4l1.5-26.2c0-0.2,0-0.3,0-0.4c0.1-0.7,0.5-1.1,1.2-1.3c0.1,0,0.2,0,0.4,0l2-0.1c4.5-0.3,9.1-0.6,13.7-0.8
				c0.6,0,1,0,1.4,0.1c1.2,0.2,2.2,0.8,3.2,1.7c1,1,1.7,2.2,1.9,3.5c0.1,0.4,0.1,0.8,0.1,1.3l-0.6,20.4l6.4-0.5l0.5-23.3
				c0-0.5,0-1-0.1-1.5c-0.2-1.3-0.7-2.4-1.4-3.4c-1-1.4-2.3-2.4-4-3c-1-0.4-2.3-0.6-3.6-0.6c-4.9,0-9.8,0.3-14.6,0.6
				C271.8,242.7,267.7,243,263.6,243z M263,242v1c0.1,0,0.1,0,0.2,0L263,242z M263.6,242.5L263.6,242.5L263.6,242.5z"/>
		</g>
		<g>
			<path class="st1" d="M306.7,275.3L306.7,275.3c-0.7,0-1.3-0.5-1.3-1.3c0-0.1,0-0.2,0-0.3c0-1.6,0-3.1,0.1-4.5
				c0.1-6.1,0.2-12.1,0.3-18.2l0.2-9.7c0-0.2,0-0.3,0-0.4c0.1-0.7,0.6-1.3,1.3-1.3h0.2c2-0.1,4.4-0.2,7-0.2c0.1,0,0.2,0,0.3,0
				c0.7,0.1,1.2,0.6,1.3,1.3c0,0.1,0,0.2,0,0.3l-1.1,32.2c0,0.2,0,0.3,0,0.4c-0.1,0.6-0.5,1.1-1.1,1.2c-0.1,0-0.2,0-0.3,0
				c-2.1,0.1-4.2,0.3-6.5,0.4C306.9,275.3,306.8,275.3,306.7,275.3z M307.9,241.6l-0.2,9.4c-0.1,6.1-0.2,12.1-0.3,18.2
				c0,1.3,0,2.6-0.1,4c1.9-0.1,3.7-0.3,5.5-0.4l1.1-31.4C311.7,241.5,309.7,241.5,307.9,241.6z M307.9,241.1L307.9,241.1
				L307.9,241.1z"/>
		</g>
		<g>
			<path class="st1" d="M275.9,277.5c-0.7,0-1.3-0.5-1.4-1.3c0-0.1,0-0.3,0-0.4l1.1-20.1c0-0.2,0-0.3,0-0.4c0.1-0.7,0.6-1.2,1.3-1.3
				c0.1,0,0.1,0,0.2,0c2.3-0.2,4.8-0.3,7.2-0.4c0.1,0,0.2,0,0.3,0c0.7,0,1.3,0.6,1.3,1.3c0,0.1,0,0.2,0,0.2l-0.8,20.2
				c0,0.1,0,0.2,0,0.4c-0.1,0.7-0.6,1.1-1.3,1.2c-0.1,0-0.1,0-0.2,0l-7.5,0.5C276.1,277.5,276,277.5,275.9,277.5z M283.5,275l0.3,1
				l-0.1-1C283.6,274.9,283.5,274.9,283.5,275z M277.7,256l-1.1,19.4l6.6-0.5l0.8-19.3C281.8,255.7,279.7,255.9,277.7,256z"/>
		</g>
	</g>
</g>
<path d="M221.4,250.6c-1,13-1.4,26.2-1.7,39.3c-28.2-1.5-56.2-6.7-83.7-14c-27.9-7.9-55.8-17.8-80-35.7c-11.7-9-23.5-20.8-26.6-37.1
	c-2-10.9,1.8-21.4,7.8-29.8c0.1-3.5,0.2-7.1,0.3-10.7c-11.7,10-22.1,22.5-26.4,38.6c-4.4,15.7-0.3,32.9,8,45.8
	c12.1,19.2,30.2,32.3,48.5,43c47,26.3,99.4,37,151.1,42.8c-0.4,14-0.7,28-0.5,42c22.1-19.5,44.2-39,64.5-61
	C262.6,292.3,243,270.1,221.4,250.6z"/>
<path d="M489.3,228.4c-2.6-18.4-16.7-32.8-31.3-43.2c-2.6-1.8-5.3-3.6-8-5.2c0,2,0,3.9,0,5.8c2,1.4,3.8,3,5.6,4.7
	c10.3,8.8,18.4,23,13.5,36.6c-5.7,16.3-21.3,26.4-35.9,34.3c-43.5,22-92.7,28.1-140.5,33.9c-0.3,11.8-0.3,23.7,0.2,35.4
	c36.2-1.9,72.2-8.8,106.7-19.8c25.2-8.5,50.3-19.4,70.1-37.3C482.1,262.2,492,245.8,489.3,228.4z"/>
<line class="st2" x1="447.8" y1="180" x2="447.8" y2="190.3"/>
</svg>
