<?xml version="1.0" encoding="utf-8"?>
<!-- Generator: Adobe Illustrator 21.1.0, SVG Export Plug-In . SVG Version: 6.00 Build 0)  -->
<svg version="1.1" id="Layer_1" xmlns="http://www.w3.org/2000/svg" xmlns:xlink="http://www.w3.org/1999/xlink" x="0px" y="0px"
	 viewBox="0 0 497 493.9" style="enable-background:new 0 0 497 493.9;" xml:space="preserve">
<style type="text/css">
	.st0{fill:#020202;}
	.st1{fill:#010101;}
	.st2{fill:none;}
</style>
<path class="st0" d="M438.5,142.4l-81.1-66.6l-0.6-0.4c-9.1-5.4-19.9-7.4-26.5-7l-62.4,3.6c0,2.7,0,5.4,0,8l62.9-3.7
	c0.3,0,0.7,0,1.1,0c4.7,0,13.2,1.5,20.6,5.8l74.4,61.1c-0.1,0.3-0.5,1-1.4,1l-278.8,16.6c-8.6,0.5-17.1-3.1-22.8-9.6l-50-57
	c-0.2-0.1-0.3-0.2-0.1-0.6c0.3-0.7,1.2-1.6,2.5-2.3c0.9-0.1,1.8-0.2,2.7-0.3l127.9-7.5c0-2.7,0-5.1,0-8L78.5,83.1
	c-21.1,1.2-37.6,18.7-37.6,39.8v251.7c0,5.4,1.7,10.5,4.8,14.9l63.2,87.9c7.5,10.4,19.6,16.5,32.3,16.5c1.1,0,2.1,0,3.2-0.1
	L421,471.2c13.2-1.1,23.3-11.9,23.4-25.1l3.4-283.7C447.9,154.6,444.5,147.3,438.5,142.4z M48.9,122.9c0-4.8,1.1-9.4,3-13.5
	c0.5,0.2,1,0.6,1.7,1.3l46.1,49.1c7.9,8.4,12.3,19.4,12.3,31v261.4c0,0.3-0.1,0.4-0.4,0.5c-0.2,0.1-0.4,0-0.6-0.2l-61.8-86
	c-0.1-0.2-0.2-0.3-0.3-0.5V122.9z M436.5,445.9c-0.1,9.1-7,16.5-16.1,17.2l-276.6,22.6c-11,0.9-21.9-4.1-28.4-13.1l-63.2-87.8
	c-2.2-3-3.3-6.5-3.3-10.2v-1.8l58.8,82c0.9,1.2,2.2,1.9,3.6,1.9c0.5,0,1-0.1,1.4-0.2c1.9-0.6,3.1-2.3,3.1-4.3V190.8
	c0-12.6-4.7-24.6-13.3-33.7l-46-49.1c-0.9-1-1.8-1.6-2.7-2c3.7-5.9,9.3-10.5,16-13c-0.4,1.5,0,2.9,1,4.1l50,57
	c6.1,6.9,15,11,24.2,11c0.6,0,1.2,0,1.9-0.1l278.9-16.7c1.8-0.1,3.4-1,4.3-2.5l3.3,2.7c4.1,3.4,6.5,8.4,6.4,13.7L436.5,445.9z"/>
<path class="st0" d="M413.2,162.9l-259.9,14.8c-12.1,0.7-21.6,10.7-21.6,22.9v256.8c0,6.4,2.7,12.5,7.4,16.9c4.2,3.9,9.8,6,15.5,6
	c0.6,0,1.3,0,1.9-0.1l254.9-21.4c11.8-1,21-11,21-22.8V181c0-5-2-9.7-5.7-13.2C423,164.4,418.2,162.6,413.2,162.9z M428.4,436
	c0,9.8-7.6,18-17.3,18.8l-254.9,21.4c-5.3,0.4-10.4-1.3-14.4-4.9s-6.1-8.6-6.1-13.9V200.6c0-10,7.8-18.3,17.8-18.9l259.9-14.8
	c0.3,0,0.6,0,0.8,0c3.6,0,7,1.4,9.7,3.9c2.9,2.7,4.4,6.4,4.4,10.3V436H428.4z"/>
<g>
	<g>
		<g>
			<path class="st1" d="M261.4,341.2L261.4,341.2c-0.7,0-1.2-0.5-1.3-1.2c0-0.1,0-0.2,0-0.3l0.8-17.3l0.7-17.1c0-0.2,0-0.3,0-0.4
				c0.1-0.7,0.6-1.2,1.3-1.2c0.1,0,0.1,0,0.2,0c4.2-0.1,8.4-0.3,12.5-0.5c4.7-0.3,9.6-0.6,14.5-0.6c0.1,0,0.2,0,0.3,0
				c1.5,0,3,0.3,4.2,0.8c2.1,0.8,3.7,2,4.9,3.7c0.9,1.3,1.5,2.7,1.8,4.3c0.1,0.6,0.2,1.3,0.1,1.9l-0.6,23.7c0,0.1,0,0.2,0,0.3
				c-0.1,0.7-0.5,1.2-1.2,1.3c-0.1,0-0.2,0-0.3,0l-7.3,0.5c-0.1,0-0.2,0-0.3,0c-0.7,0-1.2-0.6-1.3-1.2c0-0.1,0-0.2,0-0.4l0.6-20.9
				c0-0.4,0-0.7,0-1c-0.1-0.9-0.6-1.7-1.3-2.4c-0.7-0.7-1.4-1.1-2.2-1.2c-0.3-0.1-0.6-0.1-1-0.1c-4.5,0.2-9.1,0.5-13.6,0.8l-1.7,0.1
				l-1.5,26.2c0,0.2,0,0.3,0,0.4c-0.1,0.7-0.6,1.3-1.3,1.3h-0.1c-2.3,0.2-4.6,0.3-6.7,0.5C261.6,341.2,261.5,341.2,261.4,341.2z
				 M268.1,338.8l0.2,1l-0.1-1C268.2,338.7,268.2,338.7,268.1,338.8z M267.8,339.2L267.8,339.2L267.8,339.2z M263.6,305.7l-1.5,33.4
				c1.8-0.1,3.7-0.2,5.7-0.4l1.5-26.2c0-0.2,0-0.3,0-0.4c0.1-0.7,0.5-1.1,1.2-1.3c0.1,0,0.2,0,0.4,0l2-0.1c4.5-0.3,9.1-0.6,13.7-0.8
				c0.6,0,1,0,1.4,0.1c1.2,0.2,2.2,0.8,3.2,1.7c1,1,1.7,2.2,1.9,3.5c0.1,0.4,0.1,0.8,0.1,1.3l-0.6,20.4l6.4-0.5l0.5-23.3
				c0-0.5,0-1-0.1-1.5c-0.2-1.3-0.7-2.4-1.4-3.4c-1-1.4-2.3-2.4-4-3c-1-0.4-2.3-0.6-3.6-0.6c-4.9,0-9.8,0.3-14.6,0.6
				C271.8,305.4,267.7,305.7,263.6,305.7z M263,304.7v1c0.1,0,0.1,0,0.2,0L263,304.7z M263.6,305.2L263.6,305.2L263.6,305.2z"/>
		</g>
		<g>
			<path class="st1" d="M306.7,338L306.7,338c-0.7,0-1.3-0.5-1.3-1.3c0-0.1,0-0.2,0-0.3c0-1.6,0-3.1,0.1-4.5
				c0.1-6.1,0.2-12.1,0.3-18.2l0.2-9.7c0-0.2,0-0.3,0-0.4c0.1-0.7,0.6-1.3,1.3-1.3h0.2c2-0.1,4.4-0.2,7-0.2c0.1,0,0.2,0,0.3,0
				c0.7,0.1,1.2,0.6,1.3,1.3c0,0.1,0,0.2,0,0.3l-1.1,32.2c0,0.2,0,0.3,0,0.4c-0.1,0.6-0.5,1.1-1.1,1.2c-0.1,0-0.2,0-0.3,0
				c-2.1,0.1-4.2,0.3-6.5,0.4C306.9,338,306.8,338,306.7,338z M307.9,304.3l-0.2,9.4c-0.1,6.1-0.2,12.1-0.3,18.2c0,1.3,0,2.6-0.1,4
				c1.9-0.1,3.7-0.3,5.5-0.4l1.1-31.4C311.7,304.2,309.7,304.2,307.9,304.3z M307.9,303.8L307.9,303.8L307.9,303.8z"/>
		</g>
		<g>
			<path class="st1" d="M275.9,340.2c-0.7,0-1.3-0.5-1.4-1.3c0-0.1,0-0.3,0-0.4l1.1-20.1c0-0.2,0-0.3,0-0.4c0.1-0.7,0.6-1.2,1.3-1.3
				c0.1,0,0.1,0,0.2,0c2.3-0.2,4.8-0.3,7.2-0.4c0.1,0,0.2,0,0.3,0c0.7,0,1.3,0.6,1.3,1.3c0,0.1,0,0.2,0,0.2l-0.8,20.2
				c0,0.1,0,0.2,0,0.4c-0.1,0.7-0.6,1.1-1.3,1.2c-0.1,0-0.1,0-0.2,0l-7.5,0.5C276.1,340.2,276,340.2,275.9,340.2z M283.5,337.7
				l0.3,1l-0.1-1C283.6,337.6,283.5,337.6,283.5,337.7z M277.7,318.7l-1.1,19.4l6.6-0.5l0.8-19.3
				C281.8,318.4,279.7,318.6,277.7,318.7z"/>
		</g>
	</g>
</g>
<line class="st2" x1="447.8" y1="242.8" x2="447.8" y2="253"/>
<g id="_x23_000000ff">
	<path d="M289.5,58.6c-17.1-19.2-34.2-38.4-51.3-57.6c-0.3-0.2-0.7-0.8-1-0.4c-1.1,0.9-1.9,2.1-2.9,3.1
		c-16.3,18.3-32.5,36.5-48.8,54.8c-1.7,1.9-3.4,3.7-5,5.7c2.4,0.2,4.9,0.1,7.3,0.1c8.6,0,17.2,0,25.7,0c0,21.4-0.1,42.7,0,64.1
		c15.8,0.1,31.7,0.1,47.5,0c0.1-21.4,0-42.8,0-64.1c5.4,0,10.8,0,16.2,0c5.6-0.1,11.2,0.1,16.9-0.1
		C292.9,62.2,291.1,60.4,289.5,58.6z"/>
</g>
</svg>
