<?xml version="1.0" encoding="utf-8"?>
<!-- Generator: Adobe Illustrator 21.0.0, SVG Export Plug-In . SVG Version: 6.00 Build 0)  -->
<svg version="1.1" id="Layer_1" xmlns="http://www.w3.org/2000/svg" xmlns:xlink="http://www.w3.org/1999/xlink" x="0px" y="0px"
	 viewBox="0 0 1417.3 646.7" style="enable-background:new 0 0 1417.3 646.7;" xml:space="preserve">
<g>
	<path d="M1334.7,0H82.6C37.1,0,0,37.1,0,82.6v475.3c0,45.6,37.1,82.6,82.6,82.6h248.8c5.3,4,11.7,6.1,18.5,6.1h717.4
		c6.8,0,13.2-2.1,18.5-6.1h248.8c45.6,0,82.6-37.1,82.6-82.6V82.6C1417.3,37.1,1380.3,0,1334.7,0z M1081.1,576.1v32.7
		c0,7.6-6.2,13.8-13.8,13.8H350c-7.6,0-13.8-6.2-13.8-13.8v-32.7V64.4V37.9c0-7.6,6.2-13.8,13.8-13.8h717.4
		c7.6,0,13.8,6.2,13.8,13.8v26.5V576.1z M23.2,557.9V82.6c0-0.9,0.1-1.9,0.1-2.8c2.7-2.3,6.1-3.8,9.9-3.8h291.4v488.5H33.3
		c-3.8,0-7.3-1.5-9.9-3.8C23.3,559.8,23.2,558.9,23.2,557.9z M1092.7,76h291.4c3.8,0,7.3,1.5,9.9,3.8c0,0.9,0.1,1.8,0.1,2.8v475.3
		c0,0.9-0.1,1.9-0.1,2.8c-2.7,2.3-6.1,3.8-9.9,3.8h-291.4V76z M1391.6,65.7c-2.4-0.7-4.9-1.2-7.6-1.2h-291.4V37.9
		c0-5.5-1.8-10.6-4.8-14.7h246.8C1361.6,23.2,1384.3,41.1,1391.6,65.7z M82.6,23.2h246.8c-3,4.2-4.8,9.2-4.8,14.7v26.5H33.3
		c-2.7,0-5.2,0.5-7.6,1.2C33,41.1,55.7,23.2,82.6,23.2z M25.7,574.9c2.4,0.7,4.9,1.2,7.6,1.2h291.4v32.7c0,3,0.6,5.9,1.6,8.6H82.6
		C55.7,617.4,33,599.4,25.7,574.9z M1334.7,617.4h-243.6c1-2.7,1.6-5.5,1.6-8.6v-32.7h291.4c2.7,0,5.2-0.5,7.6-1.2
		C1384.3,599.4,1361.6,617.4,1334.7,617.4z"/>
	<path d="M1021.2,84.1H416.4c-13.8,0-25.1,11.3-25.1,25.1v402c0,13.8,11.2,25.1,25.1,25.1h604.9c13.8,0,25.1-11.3,25.1-25.1v-402
		C1046.3,95.3,1035.1,84.1,1021.2,84.1z M1040.5,511.1c0,10.6-8.6,19.3-19.3,19.3H416.4c-10.6,0-19.3-8.6-19.3-19.3v-402
		c0-10.6,8.6-19.3,19.3-19.3h604.9c10.6,0,19.3,8.6,19.3,19.3V511.1z"/>
	<path d="M608.6,225.1c18.1,0,35.6,0,53.9,0c0-18.3,0-35.9,0-53.9c-18.1,0-35.8,0-53.9,0C608.6,189.4,608.6,207,608.6,225.1z
		 M624.3,187.4c7.7,0,14.8,0,22.6,0c0,7.3,0,14.3,0,21.8c-7.5,0-14.7,0-22.6,0C624.3,202.1,624.3,195.1,624.3,187.4z"/>
	<path d="M631.2,140v0.2c0,8.1-2.6,14.2-7.8,18.5c-0.7,0.6-0.8,1.6-0.2,2.3c0.3,0.4,0.8,0.6,1.2,0.6c0.4,0,0.7-0.1,1-0.4
		c6.1-5,9-11.8,9-21V140c0-9.1-2.9-16-9-21c-0.7-0.6-1.7-0.5-2.3,0.2c-0.6,0.7-0.5,1.7,0.2,2.3C628.7,125.8,631.2,131.9,631.2,140z"
		/>
	<path d="M615.9,153.2c-0.7,0.6-0.8,1.6-0.2,2.3c0.3,0.4,0.8,0.6,1.2,0.6c0.4,0,0.7-0.1,1-0.4c4.5-3.7,6.7-8.8,6.7-15.5V140
		c0-6.7-2.2-11.8-6.7-15.5c-0.7-0.6-1.7-0.5-2.3,0.2c-0.6,0.7-0.5,1.7,0.2,2.3c3.7,3,5.5,7.3,5.5,13v0.1
		C621.5,145.8,619.7,150.1,615.9,153.2z"/>
	<path d="M610.3,150c2.8-2.3,4.3-5.7,4.3-10c0-4.2-1.4-7.6-4.3-9.9c-0.7-0.6-1.7-0.5-2.3,0.2c-0.6,0.7-0.5,1.7,0.2,2.3
		c2.1,1.7,3.1,4.1,3.1,7.5c0,3.3-1,5.7-3.1,7.4c-0.7,0.6-0.8,1.6-0.2,2.3c0.3,0.4,0.8,0.6,1.2,0.6C609.6,150.3,610,150.2,610.3,150z
		"/>
	<polygon points="855.2,192.3 817,192.3 817,187 855.2,187 855.2,171.5 817,171.5 816.1,171.5 801.7,171.5 801.7,224.8 816.1,224.8 
		817,224.8 817,207.8 855.2,207.8 	"/>
	<polygon points="879.6,171.5 865.2,171.5 865.2,224.8 879.6,224.8 880.5,224.8 880.5,207.8 918.6,207.8 918.6,192.3 880.5,192.3 
		880.5,187 918.6,187 918.6,171.5 880.5,171.5 	"/>
	<path d="M775,171.5h-22.9h-0.9h-14.5v53.4h14.5h0.9H775h15.3h0.1v-53.4h-0.1H775z M775,209.3h-22.9V187H775V209.3z"/>
	<polygon points="711,171.5 688.1,171.5 687.2,171.5 672.8,171.5 672.8,224.8 688.1,224.8 688.1,187 711,187 711,224.8 726.3,224.8 
		726.3,171.5 726.2,171.5 	"/>
	<polygon points="579.9,132.6 556.8,132.6 541.3,132.6 541.2,132.6 541.2,171 541.1,171 541.1,186.8 556.7,186.8 579.9,186.8 
		579.9,209.3 556.7,209.3 541.1,209.3 541.1,225.1 555.8,225.1 556.7,225.1 579.9,225.1 595.4,225.1 595.5,225.1 595.5,186.7 
		595.5,186.7 595.5,170.9 579.9,170.9 556.8,170.9 556.8,148.4 579.9,148.4 595.5,148.4 595.5,132.6 580.9,132.6 	"/>
	<path d="M793.3,451.5c-16.7,0-30.3,13.6-30.3,30.3s13.6,30.3,30.3,30.3c16.7,0,30.3-13.6,30.3-30.3S810,451.5,793.3,451.5z
		 M793.3,506.2c-13.5,0-24.5-11-24.5-24.5c0-13.5,11-24.5,24.5-24.5c13.5,0,24.5,11,24.5,24.5C817.8,495.3,806.8,506.2,793.3,506.2z
		"/>
	<polygon points="410.6,254.6 472.9,254.6 472.9,437.2 410.6,437.2 410.6,445.9 481.6,445.9 481.6,245.9 410.6,245.9 	"/>
	<path d="M111.6,239.8c28.8,0,52.2-23.4,52.2-52.2s-23.4-52.2-52.2-52.2s-52.2,23.4-52.2,52.2S82.8,239.8,111.6,239.8z M111.6,141.3
		c25.6,0,46.4,20.8,46.4,46.4S137.2,234,111.6,234s-46.4-20.8-46.4-46.4S86,141.3,111.6,141.3z"/>
	<path d="M113.3,226c21.1,0,38.3-17.2,38.3-38.3s-17.2-38.3-38.3-38.3S75,166.5,75,187.7S92.2,226,113.3,226z M113.3,158.1
		c16.3,0,29.6,13.3,29.6,29.6s-13.3,29.6-29.6,29.6S83.7,204,83.7,187.7S97,158.1,113.3,158.1z"/>
	<path d="M111.6,511.2c28.8,0,52.2-23.4,52.2-52.2c0-28.8-23.4-52.2-52.2-52.2S59.4,430.2,59.4,459
		C59.4,487.8,82.8,511.2,111.6,511.2z M111.6,412.6c25.6,0,46.4,20.8,46.4,46.4s-20.8,46.4-46.4,46.4S65.2,484.6,65.2,459
		S86,412.6,111.6,412.6z"/>
	<path d="M113.3,497.3c21.1,0,38.3-17.2,38.3-38.3s-17.2-38.3-38.3-38.3S75,437.9,75,459S92.2,497.3,113.3,497.3z M113.3,429.4
		c16.3,0,29.6,13.3,29.6,29.6s-13.3,29.6-29.6,29.6S83.7,475.3,83.7,459S97,429.4,113.3,429.4z"/>
	<path d="M1305.7,135.5c-28.8,0-52.2,23.4-52.2,52.2s23.4,52.2,52.2,52.2c28.8,0,52.2-23.4,52.2-52.2S1334.5,135.5,1305.7,135.5z
		 M1305.7,234c-25.6,0-46.4-20.8-46.4-46.4s20.8-46.4,46.4-46.4s46.4,20.8,46.4,46.4S1331.3,234,1305.7,234z"/>
	<path d="M1304,149.4c-21.1,0-38.3,17.2-38.3,38.3s17.2,38.3,38.3,38.3s38.3-17.2,38.3-38.3S1325.1,149.4,1304,149.4z M1304,217.3
		c-16.3,0-29.6-13.3-29.6-29.6s13.3-29.6,29.6-29.6s29.6,13.3,29.6,29.6S1320.3,217.3,1304,217.3z"/>
	<path d="M1305.7,406.8c-28.8,0-52.2,23.4-52.2,52.2c0,28.8,23.4,52.2,52.2,52.2c28.8,0,52.2-23.4,52.2-52.2
		C1357.9,430.2,1334.5,406.8,1305.7,406.8z M1305.7,505.4c-25.6,0-46.4-20.8-46.4-46.4s20.8-46.4,46.4-46.4s46.4,20.8,46.4,46.4
		S1331.3,505.4,1305.7,505.4z"/>
	<path d="M1304,420.7c-21.1,0-38.3,17.2-38.3,38.3s17.2,38.3,38.3,38.3s38.3-17.2,38.3-38.3S1325.1,420.7,1304,420.7z M1304,488.6
		c-16.3,0-29.6-13.3-29.6-29.6s13.3-29.6,29.6-29.6s29.6,13.3,29.6,29.6S1320.3,488.6,1304,488.6z"/>
	<polygon points="454.4,267.3 447.9,267.3 447.9,290.8 434.5,267.3 427.1,267.3 427.1,301 433.7,301 433.7,277.1 447.4,301 
		454.4,301 	"/>
	<polygon points="427.2,386.1 427.2,419.8 451.1,419.8 451.1,413.8 434.3,413.8 434.3,386.1 	"/>
	<rect x="416.6" y="177.2" width="66.7" height="8.7"/>
	<rect x="416.6" y="209.5" width="107.7" height="8.7"/>
	<polygon points="951.4,445.9 1022.4,445.9 1022.4,437.2 960.1,437.2 960.1,254.6 1022.4,254.6 1022.4,245.9 951.4,245.9 	"/>
	<polygon points="999.6,267.3 993,267.3 993,290.8 979.6,267.3 972.2,267.3 972.2,301 978.8,301 978.8,277.1 992.5,301 999.6,301 	
		"/>
	<polygon points="972.4,386.1 972.4,419.8 996.2,419.8 996.2,413.8 979.4,413.8 979.4,386.1 	"/>
	<path d="M98.9,193.5h8.6v8.6c0,3.2,2.6,5.8,5.8,5.8s5.8-2.6,5.8-5.8v-8.6h8.6c3.2,0,5.8-2.6,5.8-5.8c0-3.2-2.6-5.8-5.8-5.8h-8.6
		v-8.6c0-3.2-2.6-5.8-5.8-5.8s-5.8,2.6-5.8,5.8v8.6h-8.6c-3.2,0-5.8,2.6-5.8,5.8C93.1,190.9,95.7,193.5,98.9,193.5z"/>
	<path d="M98.9,464.8h8.6v8.6c0,3.2,2.6,5.8,5.8,5.8s5.8-2.6,5.8-5.8v-8.6h8.6c3.2,0,5.8-2.6,5.8-5.8s-2.6-5.8-5.8-5.8h-8.6v-8.6
		c0-3.2-2.6-5.8-5.8-5.8s-5.8,2.6-5.8,5.8v8.6h-8.6c-3.2,0-5.8,2.6-5.8,5.8S95.7,464.8,98.9,464.8z"/>
	<rect x="960.3" y="209.5" width="71.6" height="8.7"/>
	<rect x="932.1" y="177.2" width="99.8" height="8.7"/>
</g>
<circle cx="1004.2" cy="497.3" r="13.9"/>
<path d="M1318.4,181.9h-8.6v-8.6c0-3.2-2.6-5.8-5.8-5.8s-5.8,2.6-5.8,5.8v8.6h-8.7c-3.2,0-5.8,2.6-5.8,5.8c0,3.2,2.6,5.8,5.8,5.8
	h8.7v8.6c0,3.2,2.6,5.8,5.8,5.8s5.8-2.6,5.8-5.8v-8.6h8.6c3.2,0,5.8-2.6,5.8-5.8C1324.2,184.5,1321.6,181.9,1318.4,181.9z"/>
<path d="M1318.4,453.2h-8.6v-8.6c0-3.2-2.6-5.8-5.8-5.8s-5.8,2.6-5.8,5.8v8.6h-8.7c-3.2,0-5.8,2.6-5.8,5.8s2.6,5.8,5.8,5.8h8.7v8.6
	c0,3.2,2.6,5.8,5.8,5.8s5.8-2.6,5.8-5.8v-8.6h8.6c3.2,0,5.8-2.6,5.8-5.8S1321.6,453.2,1318.4,453.2z"/>
</svg>
