<?xml version="1.0" encoding="iso-8859-1"?>
<!-- Generator: Adobe Illustrator 16.0.0, SVG Export Plug-In . SVG Version: 6.00 Build 0)  -->
<!DOCTYPE svg PUBLIC "-//W3C//DTD SVG 1.1//EN" "http://www.w3.org/Graphics/SVG/1.1/DTD/svg11.dtd">
<svg version="1.1" id="Capa_1" xmlns="http://www.w3.org/2000/svg" xmlns:xlink="http://www.w3.org/1999/xlink" x="0px" y="0px"
	 width="599.153px" height="599.153px" viewBox="0 0 599.153 599.153" style="enable-background:new 0 0 599.153 599.153;"
	 xml:space="preserve">
<g>
	<g>
		<path d="M512.067,540.515V58.64c0-32.059-26.081-58.14-58.14-58.14H145.226c-32.058,0-58.14,26.082-58.14,58.14v481.874
			c0,32.059,26.082,58.14,58.14,58.14h308.701C485.986,598.654,512.067,572.572,512.067,540.515z M129.926,540.515V58.64
			c0-8.45,6.85-15.3,15.3-15.3h308.701c8.45,0,15.3,6.851,15.3,15.3v481.874c0,8.45-6.85,15.3-15.3,15.3H145.226
			C136.776,555.814,129.926,548.964,129.926,540.515z"/>
		<path d="M453.929,599.153c-0.001,0-0.001,0-0.002,0H145.226c-32.334,0-58.64-26.306-58.64-58.64V58.64
			c0-32.334,26.306-58.64,58.64-58.64h308.701c32.334,0,58.64,26.306,58.64,58.64v481.875c0,15.639-6.106,30.357-17.194,41.445
			C484.286,593.047,469.566,599.153,453.929,599.153z M145.226,1c-31.783,0-57.64,25.857-57.64,57.64v481.874
			c0,31.782,25.857,57.64,57.64,57.64h308.701c15.371,0,29.839-6.002,40.738-16.9c10.899-10.899,16.901-25.367,16.901-40.738V58.64
			c0-31.783-25.857-57.64-57.64-57.64H145.226z M453.927,556.313H145.226c-4.22,0-8.188-1.643-11.172-4.627
			c-2.984-2.984-4.627-6.952-4.627-11.172V58.64c0-8.712,7.088-15.8,15.8-15.8h308.701c8.712,0,15.8,7.088,15.8,15.8v481.874
			C469.727,549.226,462.639,556.313,453.927,556.313z M145.226,43.84c-8.161,0-14.8,6.639-14.8,14.8v481.875
			c0,3.953,1.54,7.669,4.334,10.465c2.795,2.795,6.512,4.334,10.465,4.334h308.701c8.161,0,14.8-6.64,14.8-14.8V58.64
			c0-8.161-6.639-14.8-14.8-14.8H145.226z"/>
	</g>
	<g>
		<path d="M213.808,417.995h171.538c32.059,0,58.14-26.081,58.14-58.14v-140c0-32.059-26.081-58.14-58.14-58.14H213.808
			c-32.058,0-58.14,26.082-58.14,58.14v140C155.667,391.914,181.75,417.995,213.808,417.995z M198.508,219.855
			c0-8.45,6.849-15.3,15.3-15.3h171.538c8.45,0,15.3,6.85,15.3,15.3v140c0,8.45-6.85,15.3-15.3,15.3H213.808
			c-8.451,0-15.3-6.85-15.3-15.3V219.855L198.508,219.855z"/>
		<path d="M385.345,418.495H213.808c-32.334,0-58.64-26.306-58.64-58.64v-140c0-32.334,26.306-58.64,58.64-58.64h171.538
			c32.334,0,58.64,26.306,58.64,58.64v140C443.985,392.189,417.679,418.495,385.345,418.495z M213.808,162.215
			c-31.783,0-57.64,25.857-57.64,57.64v140c0,31.782,25.857,57.64,57.64,57.64h171.538c31.782,0,57.64-25.857,57.64-57.64v-140
			c0-31.783-25.857-57.64-57.64-57.64H213.808z M385.345,375.655H213.808c-8.712,0-15.8-7.088-15.8-15.8v-140
			c0-8.712,7.088-15.8,15.8-15.8h171.538c8.712,0,15.8,7.088,15.8,15.8v140C401.145,368.567,394.057,375.655,385.345,375.655z
			 M213.808,205.055c-8.161,0-14.8,6.639-14.8,14.8v140c0,8.161,6.639,14.8,14.8,14.8h171.538c8.161,0,14.8-6.639,14.8-14.8v-140
			c0-8.161-6.639-14.8-14.8-14.8H213.808z"/>
	</g>
	<g>
		<path d="M251.996,306.609c11.83,0,21.42-9.59,21.42-21.42v-42.304c0-11.83-9.59-21.42-21.42-21.42
			c-11.83,0-21.42,9.59-21.42,21.42v42.304C230.576,297.02,240.166,306.609,251.996,306.609z"/>
		<path d="M251.996,307.109c-12.087,0-21.92-9.833-21.92-21.92v-42.304c0-12.087,9.833-21.92,21.92-21.92s21.92,9.833,21.92,21.92
			v42.304C273.916,297.276,264.083,307.109,251.996,307.109z M251.996,221.965c-11.535,0-20.92,9.385-20.92,20.92v42.304
			c0,11.535,9.385,20.92,20.92,20.92c11.536,0,20.92-9.385,20.92-20.92v-42.304C272.916,231.35,263.531,221.965,251.996,221.965z"/>
	</g>
	<g>
		<path d="M347.158,306.609c11.83,0,21.42-9.59,21.42-21.42v-42.304c0-11.83-9.59-21.42-21.42-21.42s-21.42,9.59-21.42,21.42v42.304
			C325.738,297.02,335.328,306.609,347.158,306.609z"/>
		<path d="M347.158,307.109c-12.087,0-21.92-9.833-21.92-21.92v-42.304c0-12.087,9.833-21.92,21.92-21.92s21.92,9.833,21.92,21.92
			v42.304C369.078,297.276,359.245,307.109,347.158,307.109z M347.158,221.965c-11.535,0-20.92,9.385-20.92,20.92v42.304
			c0,11.535,9.385,20.92,20.92,20.92s20.92-9.385,20.92-20.92v-42.304C368.078,231.35,358.693,221.965,347.158,221.965z"/>
	</g>
	<g>
		<circle cx="299.576" cy="336.334" r="20.929"/>
		<path d="M299.576,357.764c-11.816,0-21.429-9.613-21.429-21.429c0-11.816,9.613-21.43,21.429-21.43s21.429,9.613,21.429,21.43
			C321.005,348.15,311.392,357.764,299.576,357.764z M299.576,315.905c-11.265,0-20.429,9.165-20.429,20.43
			s9.165,20.429,20.429,20.429c11.265,0,20.429-9.164,20.429-20.429S310.841,315.905,299.576,315.905z"/>
	</g>
</g>
<g>
</g>
<g>
</g>
<g>
</g>
<g>
</g>
<g>
</g>
<g>
</g>
<g>
</g>
<g>
</g>
<g>
</g>
<g>
</g>
<g>
</g>
<g>
</g>
<g>
</g>
<g>
</g>
<g>
</g>
</svg>
