<svg height="512pt" viewBox="-77 0 512 512" width="512pt" xmlns="http://www.w3.org/2000/svg"><path d="m179.5 220c16.816406 0 30.5-13.683594 30.5-30.5 0-5.238281-1.351562-10.410156-3.910156-14.945312-2.035156-3.609376-6.609375-4.886719-10.21875-2.851563s-4.882813 6.609375-2.847656 10.21875c1.292968 2.292969 1.976562 4.914063 1.976562 7.578125 0 8.546875-6.953125 15.5-15.5 15.5s-15.5-6.953125-15.5-15.5c0-2.664062.683594-5.285156 1.976562-7.578125 2.035157-3.609375.761719-8.183594-2.847656-10.21875s-8.183594-.757813-10.21875 2.851563c-2.558594 4.535156-3.910156 9.707031-3.910156 14.945312 0 16.816406 13.683594 30.5 30.5 30.5zm0 0"/><path d="m179.5 193c4.144531 0 7.5-3.355469 7.5-7.5v-25c0-4.144531-3.355469-7.5-7.5-7.5s-7.5 3.355469-7.5 7.5v25c0 4.144531 3.355469 7.5 7.5 7.5zm0 0"/><path d="m350.5 0h-343c-4.144531 0-7.5 3.355469-7.5 7.5v270.257812c0 18.878907 15.363281 34.242188 34.242188 34.242188h4.257812v63.5c0 4.144531 3.355469 7.5 7.5 7.5h41.5v106.5c0 12.40625 10.09375 22.5 22.5 22.5s22.5-10.09375 22.5-22.5v-106.5h14.832031c4.144531 0 7.5-3.355469 7.5-7.5s-3.355469-7.5-7.5-7.5h-93.832031v-56h251v56h-125.5c-4.144531 0-7.5 3.355469-7.5 7.5s3.355469 7.5 7.5 7.5h46.5v106.5c0 12.40625 10.09375 22.5 22.5 22.5s22.5-10.09375 22.5-22.5v-106.5h41.5c4.144531 0 7.5-3.355469 7.5-7.5v-63.5h4.257812c18.878907 0 34.242188-15.363281 34.242188-34.242188v-97.757812c0-4.144531-3.355469-7.5-7.5-7.5s-7.5 3.355469-7.5 7.5v97.757812c0 10.609376-8.632812 19.242188-19.242188 19.242188h-289.515624c-10.609376 0-19.242188-8.632812-19.242188-19.242188v-262.757812h328v80.5c0 4.144531 3.355469 7.5 7.5 7.5s7.5-3.355469 7.5-7.5v-88c0-4.144531-3.355469-7.5-7.5-7.5zm-233 383v106.5c0 4.136719-3.363281 7.5-7.5 7.5s-7.5-3.363281-7.5-7.5v-106.5zm138 106.5c0 4.136719-3.363281 7.5-7.5 7.5s-7.5-3.363281-7.5-7.5v-106.5h15zm0 0"/><path d="m350.5 120c-4.144531 0-7.5 3.355469-7.5 7.5v20.5c0 4.144531 3.355469 7.5 7.5 7.5s7.5-3.355469 7.5-7.5v-20.5c0-4.144531-3.355469-7.5-7.5-7.5zm0 0"/><path d="m108 186c0 39.148438 31.851562 71 71 71s71-31.851562 71-71-31.851562-71-71-71-71 31.851562-71 71zm71-56c30.878906 0 56 25.121094 56 56s-25.121094 56-56 56-56-25.121094-56-56 25.121094-56 56-56zm0 0"/><path d="m186.5 68.5v-18c0-4.144531-3.355469-7.5-7.5-7.5s-7.5 3.355469-7.5 7.5v18c0 4.144531 3.355469 7.5 7.5 7.5s7.5-3.355469 7.5-7.5zm0 0"/></svg>