<?xml version="1.0" encoding="utf-8"?>
<!-- Generator: Adobe Illustrator 24.0.1, SVG Export Plug-In . SVG Version: 6.00 Build 0)  -->
<svg version="1.1" id="Laag_1" xmlns="http://www.w3.org/2000/svg" xmlns:xlink="http://www.w3.org/1999/xlink" x="0px" y="0px"
	 viewBox="0 0 810 761.26" style="enable-background:new 0 0 810 761.26;" xml:space="preserve">
<style type="text/css">
	.st0{fill:none;stroke:#000000;stroke-width:5;stroke-miterlimit:10;}
</style>
<path class="st0" d="M16.63,283.95l-7.37,8.49 M5.4,273.97l3.27,24.38 M8.01,268.55c-1.56,0.96-2.6,2.75-2.6,4.81
	c0,0.35,0.03,0.7,0.1,1.04 M10.89,290.71c-1.55,1.03-2.58,2.96-2.58,5.16c0,3.3,2.32,5.96,5.18,5.96c0.36,0,0.7-0.04,1.05-0.12
	 M19.87,196.26c-2.73,5-5.26,10.62-7.43,16.69c-2.88,8.06-4.77,15.92-5.68,23.02 M6.77,235.96c-0.35,2.84-0.57,5.56-0.62,8.14
	 M779.18,385.01l-11.94,14.97 M326.26,543.47c0.46,0.03,0.92,0.05,1.4,0.05c4.9,0,9.04-1.91,10.42-4.53 M315.05,535.79
	c-0.18,0.49-0.28,1-0.28,1.54c0,3.48,4.2,6.31,9.4,6.31c4.99,0,9.08-2.61,9.38-5.92 M805.77,321.76l-2.95,37.28 M802.83,359.04
	l-3.8,44.99 M8.3,398.16L2.5,278.9 M250.99,2.83c-1.13,0.06-2.17,0.52-2.88,1.39c-1.53,1.84-0.98,4.81,1.22,6.64
	c0.11,0.09,0.21,0.16,0.32,0.24 M305.65,65.46L248.41,9.9 M271.57,94.83c0.04-0.07,0.1-0.15,0.14-0.22
	c4.62-6.72,20.14-4.09,34.66,5.88c6.33,4.35,11.43,9.38,14.78,14.22 M229.45,37.1l42.75,58.46 M229.45,37.1
	c-2.01-11.19-0.33-20.71,5.62-27.02c5.05-5.36,12.58-7.78,21.64-7.57 M371.86,106.38c1.08,2.33,1.8,4.33,2.14,5.98 M374,112.35
	c0.45,2.11,0.27,3.65-0.63,4.48c-2.99,2.83-13.34-2.75-27.41-13.93 M345.96,102.91c-12.52-9.94-27.97-24.31-43.83-41.12
	 M286.65,9.42c4.5,2.87,9.24,6.23,14.1,10.02 M300.75,19.44c9.71,7.58,19.93,16.89,29.95,27.51c22.83,24.22,38.78,49.12,43.45,65.91
	 M256.26,2.58c8.42-0.53,18.97,1.93,30.62,6.98 M457.78,120.49c-0.86,0.99-1.38,2.22-1.38,3.55c0,3.26,3.04,5.9,6.8,5.9
	c1.59,0,3.06-0.48,4.21-1.28 M689.28,77.88c-2.86-8.14-7.93-15.24-14.48-20.77 M545.95,93.86l-0.33,0.15 M545.62,94.01l-53.01,23.55
	 M492.6,117.56l-27.2,12.08 M600.9,47.68c-12.29,3.79-25.35,8.3-38.79,13.48c-55.26,21.28-98.46,46.62-105.29,60.83 M633.99,62.06
	c-16.64,4.32-35.5,10.39-55.19,17.97c-12.43,4.79-24.23,9.81-35.07,14.85 M547.34,128.6l-34.34,8.51 M676.35,58.37
	C664.6,47.13,639.74,41.5,612.18,45.3c-3.89,0.53-7.7,1.24-11.37,2.09 M687.98,89.4c1.41-2.95,2-5.98,1.57-8.99
	c-1.93-14.06-24.57-22.56-50.57-18.98c-5.56,0.77-10.82,2.03-15.64,3.66 M606.31,133.94c-9.43-7.27-26.85-10.71-46-8.08
	c-5.05,0.69-9.87,1.76-14.36,3.14 M681.64,89.41h7.34 M605.32,133.18l10.57-6.06 M615.89,127.12l65.75-37.71 M391.84,269l0.18-49.22
	 M395.88,262.2l-4.33,9.78 M370.58,448.92l-32.64,90.31 M370.58,449.22L391.84,269 M349.48,468.01l-16,70.13 M370.58,358.55
	l21.27-135.54 M348.75,471.07c5.84-24.06,11.61-51.82,16.78-81.5c2.55-14.69,4.81-28.99,6.77-42.67 M323.78,436.9l-9.01,100.43
	 M389.44,213.89c2.64,1.96,3.2,6,1.94,11.76 M390.34,213.89c-18.04,0.7-44.25,73.85-59.27,166.37c-3.94,24.24-6.72,47.47-8.4,68.65
	 M312.41,178.48c1.27,0.01,2.71-0.15,4.2-0.52c4.39-1.09,7.58-3.5,7.11-5.4 M315.38,178.22l-31.87,8.41 M13.48,301.84l107.62-17.71
	 M121.1,284.13l21.61-3.59 M324.4,173.39c-9.61-2.76-24.14-3.38-42.2-1.97 M282.19,171.42c-33.8,2.65-80,12.38-129.58,28.38
	c-9.16,2.96-18.1,6.02-26.78,9.16 M125.83,208.95c-52.27,18.92-94.82,40.63-116.87,58.8 M8.96,267.76c-0.5,0.42-0.99,0.83-1.47,1.24
	 M314.51,178.29c-35.01,0.29-87.87,10.21-145.09,28.68c-75.16,24.25-135.62,56.06-155.08,79.58 M292.15,210.29
	c-17.37,4.12-37.86,10.57-59.37,19c-44.41,17.41-79.92,38.04-90.76,51.66 M508.58,215.26l-1.32,12.93 M474.01,190.92l35.21,25.24
	 M474.35,191.38c13.28,4.34,37.22,14.68,63.96,27.9c15.23,7.52,29.16,14.9,40.46,21.31 M624.43,237.21
	c-0.3-0.17-0.61-0.34-0.92-0.52 M623.97,236.95c-14.86-8.44-35.38-17.79-58.57-26.28c-14.41-5.27-28.24-9.63-40.69-12.94
	 M524.71,197.73c-1.16-0.3-2.32-0.61-3.45-0.9 M521.27,196.83c-22.18-5.65-39.49-7.75-46.93-5.43 M641.77,346.25l7.25,3.05
	 M649.01,349.3l119.26,50.28 M642.62,346.93c-15.67-31.5-65.03-76.5-130.18-115.67c-1.73-1.04-3.46-2.06-5.19-3.07 M778.66,385.8
	c13.05-21.73-47.76-82.48-137.31-138.19 M641.68,247.78c-3.4-2.12-6.86-4.24-10.35-6.34c-2.38-1.43-4.76-2.84-7.14-4.24
	 M767.02,399.76c-0.44-27.27-61-84.39-145.15-134.97c-15.89-9.55-31.57-18.25-46.75-25.99 M6.15,243.76
	c-0.11,2.75-0.16,5.52-0.16,8.29c0,5.91,0.25,11.79,0.73,17.63 M11.88,301.84c27.4,114.48,147.66,206.19,303.13,233.71
	 M338.06,538.74c24.19,3.21,49.13,4.9,74.62,4.9c150.38,0,281.69-58.53,352.04-145.54 M780.3,376.84
	c9.78-14.8,17.89-30.29,24.13-46.35 M352.95,738.7c-0.46,2.16-0.73,4.52-0.73,7.02c0,4.91,1,9.35,2.62,12.56 M322.74,734.73
	c-0.29,1.76-0.45,3.64-0.45,5.58c0,6.48,1.75,12.14,4.36,15.25 M355.01,758.78l-29.14-3.53 M361.46,751.27l-7.33,7.97
	 M365.72,739.84l-4.55,11.91 M635.56,244.5c0.43-1.79,0.64-3.62,0.64-5.49c0-20.16-25.27-36.49-56.45-36.49
	c-9.28,0-18.04,1.44-25.77,4.01 M641.46,247.45c4.19-5.36,6.54-11.37,6.54-17.72c0-22.41-29.26-40.59-65.35-40.59
	c-18.03,0-34.37,4.55-46.2,11.9 M799.1,404.47l-5.83,73 M8.11,396.81l11.82,83.8 M789.74,378.8c7.79-17.84,13.16-36.43,15.81-55.56
	 M805.57,323.23c1.28-9.19,1.93-18.49,1.93-27.9c0-81.19-48.55-154.44-126.42-206.29 M600.79,47.39
	c-58.99-23.36-127.15-36.68-199.75-36.68c-34.73,0-68.45,3.05-100.63,8.79 M229.5,37.22C132.18,68.9,55.84,126.75,19.04,197.81
	 M526.56,197.68c0.98-5.18,1.5-10.49,1.5-15.9c0-5.03-0.45-9.98-1.3-14.81 M283.35,185.55c4.71,32.49,35.87,59.63,78.45,71.02
	 M391.88,261.75c4.86,0.39,9.81,0.6,14.83,0.6c41.55,0,78.33-14.07,100.83-35.69 M522.09,196.81c3.31-7.31,5.09-15.07,5.09-23.08
	c0-3.44-0.32-6.83-0.96-10.15 M526.22,163.58c-3.39-17.8-15.58-33.78-33.61-46.02 M472.34,106.48
	c-19.4-8.47-42.66-13.41-67.68-13.41c-13.05,0-25.64,1.34-37.44,3.84 M346.52,102.71c-37.37,13.28-63.05,38.99-64.32,68.71
	 M285.27,194.25c10.45,26.21,40.42,47.22,79.07,55.86 M391.9,254.02c3.93,0.25,7.9,0.37,11.92,0.37
	c43.97,0,82.54-15.25,104.15-38.15 M685.25,277.37c1.37-7.61,2.07-15.36,2.07-23.22c0-48.84-27.1-93.41-71.74-127.27 M519.72,79.31
	c-35.76-10.89-75.45-16.96-117.25-16.96c-19.05,0-37.67,1.26-55.67,3.66 M265.54,85.93c-68.76,25.43-120.25,69.41-139.57,121.95
	 M121.04,283.87c17.14,73.42,97.14,132.93,202.1,153.22 M371.23,443.44c10.26,0.75,20.69,1.13,31.24,1.13
	c105.55,0,197.69-38.35,246.9-95.31 M6.44,239.13c-2.59,13-3.94,26.27-3.94,39.77c0,157.19,181.98,284.61,406.46,284.61
	c174.64,0,323.56-77.13,381.07-185.38 M6.52,365.2c31.02,137.42,197.02,242.35,397.15,242.35c204.92,0,374.06-110,399.15-252.27
	 M8.8,399.58c33.61,133.15,197.99,234.21,395.7,234.21c195.5,0,358.42-98.82,394.53-229.76 M19.85,478.67
	C35.09,625.64,202.38,741.39,406.5,741.39c209.39,0,380.02-121.8,387.53-274.14"/>
</svg>
